<svg version="1.1" id="Layer_1" xmlns="http://www.w3.org/2000/svg" xmlns:xlink="http://www.w3.org/1999/xlink" x="0px" y="0px"
	 width="100%" viewBox="0 0 658 255" enable-background="new 0 0 658 255" xml:space="preserve">
<path fill="#020202" opacity="1.000000" stroke="none" 
	d="
M429.000000,256.000000 
	C286.039001,256.000000 143.577988,256.000000 1.058492,256.000000 
	C1.058492,171.062286 1.058492,86.124527 1.058492,1.093381 
	C220.211029,1.093381 439.422089,1.093381 658.816589,1.093381 
	C658.816589,85.999687 658.816589,170.999802 658.816589,256.000000 
	C582.457825,256.000000 505.978912,256.000000 429.000000,256.000000 
M477.320709,198.253143 
	C477.320709,198.253143 477.444672,198.211105 477.914185,198.802628 
	C478.956635,198.243378 479.999054,197.684143 481.694061,197.015854 
	C481.441467,196.446091 481.188873,195.876312 480.278778,195.111496 
	C479.194397,195.446655 478.109985,195.781815 476.414795,196.010605 
	C476.002441,195.985336 475.590118,195.960068 475.089203,195.164551 
	C474.412689,194.902863 473.736145,194.641174 473.059631,194.379486 
	C471.782593,198.785614 470.505554,203.191757 469.228485,207.597885 
	C469.864349,207.844940 470.500183,208.091995 471.136017,208.339066 
	C472.840485,205.375168 474.544952,202.411270 476.266846,199.342026 
	C476.266846,199.342026 476.194092,199.261612 476.910767,199.411041 
	C477.015717,198.995087 477.120697,198.579132 477.320709,198.253143 
M539.154663,197.265060 
	C538.933655,198.930832 538.712708,200.596603 538.046021,202.777405 
	C538.401489,204.400726 538.247864,206.774048 539.245544,207.451233 
	C540.406067,208.238907 543.146362,208.225830 544.193237,207.352341 
	C546.777222,205.196259 548.941772,202.461166 550.905945,199.696640 
	C551.352966,199.067413 550.305359,197.376282 549.172424,195.961273 
	C547.455627,196.364258 545.738892,196.767227 543.355835,196.828918 
	C544.426208,192.380417 545.496643,187.931915 546.567078,183.483414 
	C545.883850,183.273682 545.200623,183.063950 544.517395,182.854218 
	C542.921143,187.504623 541.324951,192.155029 539.154663,197.265060 
M499.905640,198.359680 
	C499.225830,199.281097 498.230835,200.113464 497.939484,201.144638 
	C497.494019,202.721466 497.534119,204.435455 497.368073,206.091217 
	C498.993805,206.119644 500.629639,206.273102 502.242462,206.142212 
	C503.936646,206.004730 505.608673,205.594864 507.341431,205.295212 
	C507.602875,203.511673 508.426117,201.322632 508.065735,199.349808 
	C507.733002,197.528259 506.130798,195.938599 505.087677,194.246811 
	C503.623993,195.708664 502.160309,197.170517 500.668823,198.750595 
	C500.668823,198.750595 500.556030,198.795700 499.905640,198.359680 
M560.611755,205.323349 
	C560.705688,208.929398 562.624573,208.321884 564.879944,207.240921 
	C566.964600,206.241791 569.118774,205.387695 570.934387,204.602798 
	C571.310486,203.026169 572.164001,201.180389 572.055115,199.393219 
	C571.955933,197.766296 571.182129,195.743469 569.990234,194.783264 
	C569.269897,194.202927 566.531616,194.828018 565.839111,195.758881 
	C563.848206,198.435165 562.436768,201.542450 560.839844,204.468475 
	C560.839844,204.468475 560.802917,204.454880 560.611755,205.323349 
M521.533997,202.431305 
	C521.734375,203.840225 521.934692,205.249146 522.220154,207.256714 
	C524.083496,204.794571 525.496033,202.928101 526.678528,201.365677 
	C527.955383,203.605484 529.052368,205.529739 530.149353,207.454010 
	C531.807129,206.505325 533.464844,205.556641 535.122620,204.607956 
	C534.930237,204.198212 534.737915,203.788467 534.545532,203.378723 
	C533.366089,203.508377 532.186646,203.638046 531.988403,203.659836 
	C530.642639,201.188492 529.985901,198.215912 528.290344,197.398727 
	C526.795105,196.678131 524.140076,198.364029 521.356628,198.655380 
	C519.240723,197.253693 518.983765,190.985672 515.134155,195.960266 
	C515.634949,198.008652 515.686401,199.698669 515.337341,201.301453 
	C514.888550,203.362534 514.118408,205.353622 513.486633,207.374847 
	C513.915344,207.477814 514.343994,207.580780 514.772705,207.683746 
	C516.863708,205.756653 518.954773,203.829544 521.533997,202.431305 
M260.633820,201.426300 
	C265.632294,200.887558 261.091736,207.135056 265.004761,207.443634 
	C265.877502,206.696503 266.798279,205.908234 266.709351,205.984375 
	C265.792023,203.015869 265.140594,200.907883 264.661804,199.358521 
	C262.758209,198.872238 260.899292,198.397400 258.724396,197.193542 
	C255.593475,196.400085 252.462570,195.606644 249.331650,194.813187 
	C254.365540,199.586288 245.940018,203.497391 248.889191,208.147812 
	C251.303238,205.410965 253.404709,203.028488 256.226105,199.829819 
	C256.226105,202.689148 256.226105,204.318634 256.226105,207.244080 
	C257.974304,204.700485 258.956604,203.271240 260.633820,201.426300 
M306.784912,205.234909 
	C308.939240,204.084442 310.250763,211.182480 312.263733,206.001160 
	C311.489166,203.768997 311.487488,201.585632 310.964539,199.535202 
	C310.509918,197.752563 309.641998,195.992737 308.565155,194.506531 
	C308.277405,194.109375 306.381470,194.457870 305.521362,194.966873 
	C301.589447,197.293640 299.274231,202.970062 300.224854,208.343033 
	C301.589203,207.898239 302.868866,207.481064 304.744476,207.110092 
	C305.189850,206.546783 305.635223,205.983475 306.784912,205.234909 
M367.070282,200.983536 
	C367.282776,201.163361 367.495239,201.343201 367.804749,202.250397 
	C367.962219,204.106445 368.119659,205.962479 368.277130,207.818527 
	C368.719086,207.766846 369.161041,207.715164 369.602997,207.663483 
	C370.059418,205.115005 370.710083,202.582932 370.926941,200.014221 
	C371.254303,196.136780 369.784241,195.242996 366.236847,196.932434 
	C365.551697,197.258743 364.921936,197.701355 364.227905,198.113297 
	C363.590210,196.633850 363.101685,195.500488 361.974030,192.884369 
	C360.542969,197.853653 359.516052,201.419479 358.489166,204.985321 
	C358.981262,205.177338 359.473389,205.369354 359.965485,205.561371 
	C362.138611,203.836914 364.311768,202.112442 367.070282,200.983536 
M384.138550,204.271286 
	C386.476501,197.646729 389.878265,191.321045 390.220154,184.087967 
	C388.149750,186.454666 387.206268,189.228241 385.847565,191.780792 
	C385.198273,193.000656 383.850494,194.519333 382.665253,194.666840 
	C377.627472,195.293777 375.634644,198.702026 374.537384,202.909210 
	C373.610138,206.464661 374.418945,208.942154 379.586578,208.209534 
	C380.832214,208.743942 382.077850,209.278351 384.090363,210.141769 
	C384.090363,207.943268 384.090363,206.483475 384.138550,204.271286 
M153.032379,63.091095 
	C153.330917,61.974915 153.580231,60.842785 153.935913,59.745121 
	C156.340698,52.323524 155.256271,51.113583 147.572220,52.648319 
	C143.364746,53.488686 139.151199,54.298557 134.165207,55.007107 
	C121.483025,51.215786 108.826035,51.644501 95.353989,55.078018 
	C90.519211,54.087631 85.722122,52.780582 80.838638,52.199471 
	C76.316612,51.661366 75.504028,53.008049 76.642685,57.332291 
	C77.182129,59.380943 77.519966,61.482681 77.357567,63.964916 
	C75.604401,65.229767 73.816383,66.449287 72.103218,67.766182 
	C38.044785,93.946518 36.954205,148.146881 69.964958,175.994034 
	C72.092880,177.738800 73.976013,180.079178 76.409897,181.079514 
	C79.542831,182.367157 82.289719,183.258057 81.903946,187.399155 
	C80.212105,205.560730 109.419052,224.323639 125.660873,216.194916 
	C137.898132,210.070374 148.382812,203.150833 149.785538,188.422073 
	C150.248688,183.559082 152.202103,181.611923 156.382721,181.045288 
	C159.907684,180.567551 161.300735,178.669281 161.694534,175.085999 
	C162.613861,174.382782 163.605957,173.756454 164.441879,172.965149 
	C187.184555,151.436081 192.494095,115.117340 176.706909,88.079369 
	C170.867584,78.078636 163.776764,69.156746 153.032379,63.091095 
M332.596375,89.500381 
	C332.596375,78.560951 332.596375,67.621521 332.596375,56.558708 
	C327.408966,56.558708 322.994873,56.558708 318.082123,56.558708 
	C318.082123,72.402527 318.082123,87.963959 318.082123,103.525391 
	C316.575653,102.010826 315.813538,100.399078 315.113464,98.760834 
	C309.613770,85.890846 304.187714,72.988655 298.554138,60.177654 
	C297.872223,58.626968 296.243378,56.705616 294.786499,56.444344 
	C291.617859,55.876087 288.276855,56.268940 284.818939,56.268940 
	C284.818939,86.329880 284.818939,115.737610 284.818939,145.770248 
	C288.573212,145.770248 292.033600,145.591690 295.466766,145.820953 
	C298.836395,146.045975 299.720337,144.699036 299.612671,141.466766 
	C299.213318,129.477081 299.054260,117.479210 298.840851,105.483772 
	C298.817352,104.164894 299.025330,102.841896 299.125916,101.520813 
	C306.358856,115.020828 312.654144,128.598267 319.106628,142.100586 
	C319.796478,143.544189 321.269196,145.374252 322.611969,145.592941 
	C325.775604,146.108200 329.080170,145.758148 332.597382,145.758148 
	C332.597382,126.778656 332.597382,108.639526 332.596375,89.500381 
M426.203064,105.500015 
	C426.203064,118.763885 426.203064,132.027756 426.203064,145.773026 
	C430.636841,145.773026 434.433685,145.681366 438.223511,145.804901 
	C440.793915,145.888672 441.775665,144.925400 441.712555,142.303406 
	C441.572266,136.475571 441.669312,130.642014 441.669434,124.810791 
	C441.669556,119.060684 441.669464,113.310577 441.669464,107.432129 
	C448.367493,107.432129 454.299500,107.432129 460.866882,107.432129 
	C460.866882,120.237740 460.866882,132.800201 460.866882,145.480957 
	C466.263611,145.480957 471.019775,145.480957 475.822449,145.480957 
	C475.822449,115.670685 475.822449,86.159065 475.822449,56.649162 
	C470.569061,56.649162 465.851929,56.649162 460.533386,56.649162 
	C460.533386,68.409317 460.533386,79.793182 460.533386,91.304749 
	C454.013092,91.304749 448.107880,91.304749 441.688751,91.304749 
	C441.688751,79.599251 441.688751,68.201958 441.688751,56.667183 
	C436.310577,56.667183 431.454651,56.667183 426.730774,56.667183 
	C426.510468,57.387974 426.330841,57.702946 426.329773,58.018513 
	C426.278107,73.512314 426.241791,89.006172 426.203064,105.500015 
M527.622925,140.139664 
	C532.629517,135.283264 535.551331,129.366028 535.605957,122.405449 
	C535.719543,107.934158 535.920044,93.445030 535.350403,78.992180 
	C534.802246,65.083893 523.617859,54.802193 510.315247,54.959820 
	C497.068756,55.116779 486.167877,65.676414 485.740662,79.550568 
	C485.305634,93.679688 485.304688,107.834236 485.572174,121.968964 
	C485.772583,132.558105 491.130005,140.441849 500.668304,144.844604 
	C510.180878,149.235474 519.153992,147.442062 527.622925,140.139664 
M224.339584,105.500237 
	C224.407532,111.658875 224.008347,117.865547 224.635834,123.966637 
	C226.178635,138.967606 239.772491,148.829132 254.547058,146.094238 
	C265.760925,144.018463 274.328674,133.807373 274.451843,121.243988 
	C274.655853,100.428703 274.360138,79.608421 274.240784,58.790443 
	C274.236450,58.032055 273.871033,57.275738 273.708862,56.652863 
	C268.673676,56.652863 263.934204,56.652863 258.890076,56.652863 
	C258.890076,58.857620 258.890106,60.675117 258.890076,62.492611 
	C258.889893,80.813019 258.896118,99.133438 258.879517,117.453827 
	C258.877869,119.282104 258.933289,121.144135 258.623871,122.931946 
	C257.785156,127.778275 253.873413,131.084610 249.285645,131.042786 
	C244.874420,131.002579 241.176270,127.895157 240.250931,123.201889 
	C239.900803,121.425957 239.928207,119.559135 239.926102,117.733574 
	C239.904587,99.080093 239.919724,80.426567 239.900284,61.773083 
	C239.898468,60.023132 239.730438,58.273357 239.637253,56.478580 
	C234.420593,56.478580 229.808517,56.478580 224.343872,56.478580 
	C224.343872,72.623093 224.343872,88.561729 224.339584,105.500237 
M390.787018,70.449219 
	C397.881073,70.624924 401.308899,73.756409 401.648682,80.616898 
	C401.817688,84.029243 401.678101,87.456879 401.678101,90.908844 
	C407.270538,90.908844 412.025452,90.908844 416.801880,90.908844 
	C416.801880,85.839569 417.344055,80.987999 416.694946,76.301422 
	C415.082611,64.660095 404.886353,55.670704 393.468567,55.194298 
	C381.770813,54.706211 371.130768,62.572933 368.198700,73.877617 
	C365.191895,85.470207 369.685791,97.458931 379.802124,103.935379 
	C385.402344,107.520607 391.391998,110.494926 397.021423,114.038010 
	C401.576172,116.904701 402.753174,120.734360 401.042633,125.150192 
	C399.347504,129.526382 395.282715,131.953354 390.768555,131.284607 
	C386.477692,130.648926 383.314301,127.163010 382.856750,122.271225 
	C382.644562,120.003006 382.820526,117.698486 382.820526,115.161400 
	C377.337860,115.161400 372.493958,115.161400 367.002991,115.161400 
	C367.337524,119.523468 367.116913,123.588768 368.043854,127.372986 
	C370.398529,136.985916 376.387726,143.599991 386.091339,146.194519 
	C395.624481,148.743469 403.941864,146.100403 410.591919,138.920258 
	C421.143280,127.527870 419.202362,110.246513 406.277161,101.572891 
	C400.489960,97.689331 394.140900,94.653427 388.155121,91.052856 
	C380.177856,86.254372 381.218079,72.892090 390.787018,70.449219 
M584.784302,107.332825 
	C595.075012,98.503723 598.823853,83.479706 593.768311,71.000542 
	C591.268799,64.830727 587.022949,60.141376 580.636597,58.109791 
	C569.126526,54.448231 557.335449,57.004757 545.406006,56.131714 
	C545.406006,86.347206 545.406006,115.580467 545.406006,144.870743 
	C550.625427,144.870743 555.518982,144.870743 560.856567,144.870743 
	C560.856567,133.922409 560.856567,123.330605 560.856567,114.153893 
	C569.177246,111.878922 576.692749,109.824104 584.784302,107.332825 
M359.473602,136.422379 
	C359.473602,109.844337 359.473602,83.266296 359.473602,56.636669 
	C353.801514,56.636669 349.067719,56.636669 344.100403,56.636669 
	C344.100403,86.255585 344.100403,115.511162 344.100403,145.068268 
	C349.242310,145.068268 354.139526,145.068268 359.474701,145.068268 
	C359.474701,142.335526 359.474701,139.864609 359.473602,136.422379 
M276.415955,206.051193 
	C278.049408,205.265961 280.044647,204.826920 281.217651,203.601059 
	C282.465424,202.297043 283.562347,200.224075 283.498688,198.533005 
	C283.462708,197.576813 280.914337,196.775848 279.583618,195.789032 
	C278.455109,194.952164 277.450073,193.948822 275.909637,192.597351 
	C272.336853,200.726791 269.040100,208.753311 268.797424,217.708450 
	C270.594879,215.257202 271.319153,212.435196 272.503387,209.821548 
	C273.139923,208.416672 274.565918,207.369476 276.415955,206.051193 
M467.654846,197.269928 
	C466.757935,195.898895 466.125458,193.840103 464.884827,193.363113 
	C463.789886,192.942123 461.533691,193.882248 460.649231,194.939774 
	C459.101990,196.789841 457.504211,199.108566 457.240814,201.383011 
	C456.956757,203.835754 458.179932,206.463058 458.745575,209.014191 
	C461.236542,208.128983 463.727478,207.243759 466.218414,206.358536 
	C466.006744,205.813751 465.795074,205.268967 465.583374,204.724182 
	C463.695618,205.356705 461.807861,205.989227 459.320129,206.822784 
	C459.430847,204.972809 459.512299,203.612228 459.593750,202.251633 
	C460.087250,202.626984 460.580780,203.002319 461.074280,203.377655 
	C463.195129,201.584229 465.315979,199.790802 467.654846,197.269928 
M395.046692,202.197800 
	C396.124084,201.884033 397.693085,201.904785 398.180054,201.189255 
	C399.313690,199.523392 400.214294,197.557159 400.583893,195.594849 
	C400.703156,194.961548 398.691925,193.134674 397.967102,193.291809 
	C396.199005,193.675171 393.992004,194.494598 393.092010,195.875244 
	C391.535248,198.263382 390.304596,201.148300 389.980591,203.945679 
	C389.796204,205.537491 391.319000,208.246231 392.740723,208.832352 
	C394.023285,209.361084 396.214874,207.684753 398.005585,206.980896 
	C397.832794,206.574539 397.660034,206.168167 397.487244,205.761810 
	C395.967163,206.029114 394.447052,206.296417 391.184845,206.870071 
	C392.638000,204.541473 393.385040,203.344391 395.046692,202.197800 
M489.608307,204.701614 
	C488.534576,204.795074 487.460876,204.888550 485.289642,205.077545 
	C486.988190,201.437820 488.309509,198.606476 490.018921,194.943527 
	C491.072571,197.131851 491.573914,198.173035 492.075226,199.214218 
	C492.634735,199.126663 493.194214,199.039108 493.753723,198.951553 
	C493.495605,197.087494 493.237518,195.223419 492.979401,193.359360 
	C491.213348,193.610046 489.205475,193.428268 487.753265,194.240265 
	C486.453552,194.966965 485.506195,196.675522 484.862579,198.151169 
	C483.497833,201.280075 481.239502,205.180161 485.009186,207.530762 
	C488.651520,209.801910 491.293518,206.397232 493.545135,203.705673 
	C493.634796,203.598480 493.597473,203.385086 493.715027,202.503189 
	C492.291901,203.121185 491.213226,203.589584 489.608307,204.701614 
M429.043976,206.288696 
	C430.027893,205.409729 430.938507,204.425308 432.013794,203.677841 
	C433.440948,202.685791 435.403168,200.837891 436.404572,201.229019 
	C438.022430,201.860931 439.044495,204.018173 440.176605,205.363052 
	C440.072235,197.623199 439.486694,197.044052 433.146301,198.577408 
	C432.775146,197.148026 432.403046,195.714905 432.030945,194.281799 
	C429.691223,197.001694 428.277069,199.753815 427.377350,202.664948 
	C427.054871,203.708282 427.974152,205.135391 429.043976,206.288696 
M233.484940,205.163879 
	C234.789749,206.098038 236.409470,208.070068 237.344742,207.786301 
	C241.347061,206.571869 244.332901,203.788361 244.911758,199.455215 
	C245.112869,197.949799 244.320251,195.739197 243.191818,194.818222 
	C242.359482,194.138901 239.504959,194.460617 238.838867,195.326569 
	C236.696487,198.111725 235.151016,201.356018 233.484940,205.163879 
M349.477692,201.082565 
	C351.016113,200.645691 352.826691,200.563889 354.006744,199.659424 
	C354.949036,198.937195 355.840607,196.891541 355.449219,196.018661 
	C355.003571,195.024765 353.090240,194.112823 351.847015,194.153336 
	C346.714294,194.320602 342.999420,202.027664 345.821503,206.310455 
	C347.492340,208.846130 349.152588,208.797745 351.557709,206.143280 
	C346.320923,205.065720 345.907043,204.329605 349.477692,201.082565 
M445.222839,195.923599 
	C445.551636,197.715073 445.971130,199.495728 446.186584,201.300751 
	C446.464447,203.628799 446.579071,205.976334 446.763977,208.315475 
	C447.451202,208.433258 448.138397,208.551041 448.825592,208.668839 
	C447.123901,201.678040 447.743683,196.093094 455.963806,194.708267 
	C454.674683,194.286728 453.385590,193.865204 452.293671,193.508163 
	C452.436890,191.938614 452.567261,190.509735 452.781189,188.164902 
	C449.718048,191.065430 447.559326,193.109528 445.222839,195.923599 
M220.549438,206.771255 
	C222.285400,207.185715 224.021347,207.600174 226.399673,208.168015 
	C224.416199,205.693481 222.108780,203.936050 222.402405,202.965485 
	C223.200912,200.325958 225.100159,198.019424 227.084518,194.711838 
	C227.804169,197.023285 228.133667,198.081635 228.463181,199.139999 
	C229.064911,199.021469 229.666626,198.902924 230.268356,198.784393 
	C229.991882,196.960022 229.715424,195.135666 229.438965,193.311310 
	C227.680176,193.636047 224.831024,193.421173 224.355911,194.381195 
	C222.534683,198.061096 221.475693,202.118225 220.549438,206.771255 
M288.824402,194.913345 
	C287.538879,199.109131 284.612488,203.118927 286.914581,208.722534 
	C289.054504,204.745804 290.702606,201.683044 292.078766,199.125641 
	C291.792389,197.756439 291.709412,196.379608 291.168304,195.215759 
	C290.924194,194.690796 289.767303,194.590210 288.824402,194.913345 
M554.712769,199.476135 
	C554.293396,202.195633 551.491821,204.870544 554.876953,208.457275 
	C556.075623,204.997253 557.168457,202.157883 557.988525,199.241791 
	C558.180603,198.558456 557.449158,197.615402 557.142578,196.791855 
	C556.396484,197.458527 555.650391,198.125214 554.712769,199.476135 
M423.958038,197.472260 
	C423.033813,197.787643 421.423767,197.934647 421.298187,198.446091 
	C420.560577,201.450760 417.859833,204.409943 421.058289,208.846405 
	C422.261536,204.657837 423.190521,201.423935 423.958038,197.472260 
z"/>
<path fill="#362D52" opacity="1.000000" stroke="none" 
	d="
M161.022354,175.278687 
	C161.300735,178.669281 159.907684,180.567551 156.382721,181.045288 
	C152.202103,181.611923 150.248688,183.559082 149.785538,188.422073 
	C148.382812,203.150833 137.898132,210.070374 125.660873,216.194916 
	C109.419052,224.323639 80.212105,205.560730 81.903946,187.399155 
	C82.289719,183.258057 79.542831,182.367157 76.409897,181.079514 
	C73.976013,180.079178 72.092880,177.738800 70.207428,175.351562 
	C74.120857,173.352188 77.791824,171.995300 82.084679,170.408554 
	C81.804886,169.633133 81.441902,168.096039 80.725586,166.746475 
	C78.936378,163.375504 76.834717,160.165833 75.127525,156.756683 
	C67.367294,141.260071 61.808750,125.170876 63.824253,107.491158 
	C65.212341,95.315056 69.315918,84.701118 81.422371,78.714050 
	C83.424644,77.723854 85.399864,73.141380 84.721397,71.109100 
	C83.739227,68.167122 80.325569,66.036880 77.949142,63.560368 
	C77.519966,61.482681 77.182129,59.380943 76.642685,57.332291 
	C75.504028,53.008049 76.316612,51.661366 80.838638,52.199471 
	C85.722122,52.780582 90.519211,54.087631 95.833687,55.476662 
	C99.097061,59.038441 102.108421,60.057922 106.667244,59.367859 
	C112.744553,58.447948 119.454903,57.918736 125.191391,59.606918 
	C130.906616,61.288845 132.536850,58.392189 134.940384,55.122181 
	C139.151199,54.298557 143.364746,53.488686 147.572220,52.648319 
	C155.256271,51.113583 156.340698,52.323524 153.935913,59.745121 
	C153.580231,60.842785 153.330917,61.974915 152.669464,63.575294 
	C151.546448,64.081848 150.786346,64.104202 149.991394,63.701778 
	C150.301773,61.119823 150.646988,58.962643 151.056015,56.406704 
	C144.500778,56.480652 139.160126,58.398045 134.828308,62.613216 
	C131.741898,65.616531 129.008804,68.982506 126.111412,72.180641 
	C122.065506,76.646484 117.522034,79.511879 111.156624,77.146736 
	C110.257675,76.812721 109.090332,77.201042 108.016075,77.256638 
	C108.096466,77.988892 108.013901,78.404549 108.184494,78.614441 
	C110.529007,81.499031 111.007927,85.219734 114.775482,87.862923 
	C117.206017,89.568100 115.922310,96.567497 116.177269,101.433304 
	C116.434113,102.493881 116.816864,103.315407 116.927460,104.388382 
	C115.447289,104.912598 114.239273,105.185379 112.889557,105.490150 
	C116.057205,109.963478 116.057205,109.963478 122.986526,102.269073 
	C124.246185,102.836906 125.527550,103.673988 126.920204,103.950447 
	C127.838333,104.132713 129.809128,103.341545 129.795532,103.268745 
	C129.011124,99.067657 131.555756,101.522179 133.068924,101.451637 
	C136.340652,101.299118 139.760056,101.314034 142.824051,100.336136 
	C149.010147,98.361778 147.902756,92.710716 148.497345,87.670563 
	C148.871964,83.821289 147.785446,81.382286 143.466095,81.631454 
	C143.307983,80.852745 143.209930,80.409332 143.356750,79.759323 
	C142.584534,76.842438 141.567444,74.132141 140.852844,71.266647 
	C143.812897,69.203255 146.470428,67.295059 149.118942,65.782211 
	C147.831924,68.180359 146.553909,70.183159 144.681885,73.116875 
	C147.762329,75.940742 150.966949,78.878441 154.046280,82.083374 
	C153.043427,82.960663 152.165863,83.570740 150.839386,84.492889 
	C152.024963,85.067276 152.971390,85.525795 153.903015,86.351929 
	C158.507507,92.945084 161.545685,99.679260 160.873093,107.776672 
	C159.470123,107.595642 158.318024,107.446983 156.714523,107.240082 
	C158.609680,111.999840 160.255646,116.272659 162.069519,120.472954 
	C162.249451,120.889633 163.454376,120.863678 164.460754,120.985748 
	C164.809021,120.282211 164.880081,119.636086 165.040771,118.531311 
	C165.101379,113.384521 165.072357,108.696388 165.371948,104.007080 
	C166.138504,103.994019 166.576447,103.982124 167.095383,104.383698 
	C167.292053,109.906532 167.859344,115.053230 167.440704,120.118439 
	C166.057617,136.853683 159.124115,151.677002 150.969269,166.037750 
	C150.078232,167.606857 149.661316,169.445206 149.052231,171.084045 
	C153.317322,173.306564 158.809570,169.498337 161.022354,175.278687 
M122.642883,126.143852 
	C119.566978,127.444458 116.491074,128.745056 113.141426,130.161407 
	C118.232277,135.201859 122.358231,131.927338 126.574654,128.981735 
	C129.899445,133.312851 133.341339,132.132965 137.329636,129.584000 
	C136.027878,132.251923 134.564392,135.218185 132.304886,136.067978 
	C126.506027,138.248962 120.353752,139.490280 114.040840,141.188446 
	C117.303513,144.275146 120.570450,143.517639 123.934700,142.210739 
	C125.109505,141.754379 126.407570,141.139587 127.583191,141.257401 
	C130.258347,141.525467 132.892532,142.202454 135.883255,142.778763 
	C135.243561,145.784256 133.017319,147.194839 129.306854,146.807190 
	C128.121872,146.683380 126.753403,146.723511 125.703400,147.202621 
	C122.712677,148.567200 119.842720,150.196457 115.815430,152.301697 
	C119.356071,152.056580 121.877670,151.835052 124.404114,151.727493 
	C125.612114,151.676056 126.912041,151.592712 128.023758,151.963394 
	C129.884857,152.583923 141.690491,151.148651 143.086304,149.816589 
	C143.514755,149.407715 143.680756,148.723831 144.007797,148.086212 
	C142.431564,147.482513 141.059143,146.956879 140.043243,146.567795 
	C142.680038,143.871704 145.124146,141.372604 147.923126,138.510666 
	C144.799042,137.425629 143.025009,136.809479 141.250977,136.193329 
	C141.139740,135.788147 141.028519,135.382965 140.917297,134.977783 
	C147.043884,134.319092 149.065369,130.492020 149.918610,125.584442 
	C147.335876,125.924896 145.289612,126.194633 143.243347,126.464371 
	C148.164032,123.188606 148.919189,118.859138 149.036499,114.867706 
	C146.446808,114.733109 144.353867,114.624336 142.260925,114.515556 
	C148.210129,110.810379 150.237823,106.198715 147.828018,100.073685 
	C143.075500,103.383736 138.611084,107.062584 133.612213,109.745682 
	C130.926712,111.187088 127.324226,110.923546 124.133942,111.419189 
	C122.935768,111.605331 121.446297,111.373199 120.586319,112.006363 
	C118.008835,113.904083 115.676544,116.134827 112.964218,118.481613 
	C117.385590,122.726562 120.369087,118.502312 123.640984,116.064056 
	C127.430862,119.734879 131.399109,119.804436 135.529953,116.793854 
	C135.718567,121.662941 133.540756,123.353905 128.521072,123.425476 
	C126.740372,123.450867 124.978943,124.827438 122.642883,126.143852 
M133.241501,157.156265 
	C127.779427,155.385391 123.342194,157.970764 117.777199,161.006119 
	C120.799896,161.191208 122.734062,161.309647 125.167519,161.458649 
	C123.414047,163.450378 122.075935,164.970306 120.737823,166.490234 
	C121.067589,166.918610 121.397346,167.346985 121.727104,167.775345 
	C126.368515,164.529709 131.009933,161.284073 135.651352,158.038437 
	C135.113342,157.704910 134.575348,157.371368 133.241501,157.156265 
M93.396225,84.830498 
	C94.852043,88.193459 97.543144,89.712730 100.986313,88.920044 
	C102.982071,88.460579 104.730324,86.926079 106.978020,85.656097 
	C101.855721,83.634163 97.960815,82.096718 93.654602,80.396919 
	C93.605125,80.792908 93.400635,82.429497 93.396225,84.830498 
M115.508354,70.007217 
	C119.977577,72.162758 124.975029,68.874054 126.705757,61.912632 
	C121.640800,61.645782 116.748940,61.388054 111.857079,61.130325 
	C111.805801,61.602413 111.754524,62.074497 111.703247,62.546585 
	C114.493553,63.518848 117.283859,64.491112 121.240349,65.869728 
	C118.809639,67.515076 117.393089,68.473930 115.508354,70.007217 
M85.566872,61.950741 
	C87.253708,62.903835 88.940544,63.856930 90.616005,64.803596 
	C92.048042,63.711533 93.445114,62.646141 96.110565,60.613491 
	C90.504623,58.749069 85.875061,57.209370 81.245506,55.669670 
	C80.963615,56.267975 80.681725,56.866280 80.399834,57.464584 
	C81.922791,58.830975 83.445755,60.197361 85.566872,61.950741 
M122.358635,211.677750 
	C124.400208,207.445404 125.495964,203.175751 123.612190,198.004959 
	C121.500946,204.194244 119.702209,209.467392 117.512688,215.886139 
	C119.520874,214.250671 120.727722,213.267807 122.358635,211.677750 
M157.055420,130.294312 
	C157.706390,133.183075 158.357376,136.071854 159.246109,140.015686 
	C162.647736,133.552689 161.605530,127.643158 156.993774,122.831810 
	C156.993774,125.149269 156.993774,127.284401 157.055420,130.294312 
M133.871765,199.172058 
	C132.457108,202.622360 131.042450,206.072647 129.654205,209.458527 
	C136.263794,207.316956 138.489014,201.035431 134.748108,193.648712 
	C134.458817,195.519989 134.235947,196.961639 133.871765,199.172058 
M90.362175,88.034256 
	C88.102074,87.702827 87.482178,88.312332 88.059364,90.298477 
	C89.695488,95.928467 95.148338,97.390884 99.685829,94.255699 
	C96.919037,92.541061 93.819611,90.620285 90.362175,88.034256 
M153.760559,149.358871 
	C152.759857,152.321075 151.759171,155.283295 150.758469,158.245499 
	C151.495697,158.463699 152.232925,158.681900 152.970139,158.900101 
	C154.198608,154.763519 155.427063,150.626923 156.655533,146.490341 
	C156.150360,146.330368 155.645187,146.170395 155.140015,146.010422 
	C154.752243,146.892532 154.364487,147.774643 153.760559,149.358871 
M137.578278,168.961334 
	C136.403198,168.713333 135.228119,168.465317 133.666794,168.135788 
	C135.148666,171.792252 136.262054,174.539490 137.375443,177.286713 
	C137.818634,177.269012 138.261826,177.251312 138.705002,177.233612 
	C138.511627,174.678192 138.318253,172.122787 137.578278,168.961334 
M116.461807,174.078125 
	C113.787064,174.078125 111.112320,174.078125 108.437576,174.078125 
	C108.469704,174.546555 108.501823,175.014999 108.533951,175.483429 
	C113.540535,175.483429 118.547119,175.483429 123.553703,175.483429 
	C123.544716,175.015060 123.535728,174.546707 123.526741,174.078339 
	C121.484451,174.078339 119.442154,174.078339 116.461807,174.078125 
M128.062164,172.793579 
	C128.695541,174.761795 129.328918,176.730011 129.962296,178.698227 
	C130.436386,178.695465 130.910477,178.692703 131.384567,178.689941 
	C131.639084,176.749298 132.407715,174.695404 132.011810,172.898041 
	C131.564636,170.867966 130.105530,168.891342 128.062164,172.793579 
M94.073059,170.707169 
	C92.381233,173.502594 92.260506,175.975784 95.788254,178.401672 
	C96.067749,175.199020 99.703178,172.323959 94.073059,170.707169 
z"/>
<path fill="#F6F6F6" opacity="1.000000" stroke="none" 
	d="
M332.596863,90.000389 
	C332.597382,108.639526 332.597382,126.778656 332.597382,145.758148 
	C329.080170,145.758148 325.775604,146.108200 322.611969,145.592941 
	C321.269196,145.374252 319.796478,143.544189 319.106628,142.100586 
	C312.654144,128.598267 306.358856,115.020828 299.125916,101.520813 
	C299.025330,102.841896 298.817352,104.164894 298.840851,105.483772 
	C299.054260,117.479210 299.213318,129.477081 299.612671,141.466766 
	C299.720337,144.699036 298.836395,146.045975 295.466766,145.820953 
	C292.033600,145.591690 288.573212,145.770248 284.818939,145.770248 
	C284.818939,115.737610 284.818939,86.329880 284.818939,56.268940 
	C288.276855,56.268940 291.617859,55.876087 294.786499,56.444344 
	C296.243378,56.705616 297.872223,58.626968 298.554138,60.177654 
	C304.187714,72.988655 309.613770,85.890846 315.113464,98.760834 
	C315.813538,100.399078 316.575653,102.010826 318.082123,103.525391 
	C318.082123,87.963959 318.082123,72.402527 318.082123,56.558708 
	C322.994873,56.558708 327.408966,56.558708 332.596375,56.558708 
	C332.596375,67.621521 332.596375,78.560951 332.596863,90.000389 
z"/>
<path fill="#F5F5F5" opacity="1.000000" stroke="none" 
	d="
M426.203430,105.000015 
	C426.241791,89.006172 426.278107,73.512314 426.329773,58.018513 
	C426.330841,57.702946 426.510468,57.387974 426.730774,56.667183 
	C431.454651,56.667183 436.310577,56.667183 441.688751,56.667183 
	C441.688751,68.201958 441.688751,79.599251 441.688751,91.304749 
	C448.107880,91.304749 454.013092,91.304749 460.533386,91.304749 
	C460.533386,79.793182 460.533386,68.409317 460.533386,56.649162 
	C465.851929,56.649162 470.569061,56.649162 475.822449,56.649162 
	C475.822449,86.159065 475.822449,115.670685 475.822449,145.480957 
	C471.019775,145.480957 466.263611,145.480957 460.866882,145.480957 
	C460.866882,132.800201 460.866882,120.237740 460.866882,107.432129 
	C454.299500,107.432129 448.367493,107.432129 441.669464,107.432129 
	C441.669464,113.310577 441.669556,119.060684 441.669434,124.810791 
	C441.669312,130.642014 441.572266,136.475571 441.712555,142.303406 
	C441.775665,144.925400 440.793915,145.888672 438.223511,145.804901 
	C434.433685,145.681366 430.636841,145.773026 426.203064,145.773026 
	C426.203064,132.027756 426.203064,118.763885 426.203430,105.000015 
z"/>
<path fill="#F6F6F6" opacity="1.000000" stroke="none" 
	d="
M527.364380,140.384155 
	C519.153992,147.442062 510.180878,149.235474 500.668304,144.844604 
	C491.130005,140.441849 485.772583,132.558105 485.572174,121.968964 
	C485.304688,107.834236 485.305634,93.679688 485.740662,79.550568 
	C486.167877,65.676414 497.068756,55.116779 510.315247,54.959820 
	C523.617859,54.802193 534.802246,65.083893 535.350403,78.992180 
	C535.920044,93.445030 535.719543,107.934158 535.605957,122.405449 
	C535.551331,129.366028 532.629517,135.283264 527.364380,140.384155 
M501.079895,84.674789 
	C501.080292,96.003372 501.066620,107.331978 501.085846,118.660530 
	C501.099548,126.730728 504.548920,131.379623 510.502441,131.431351 
	C516.443909,131.482971 520.172119,126.670326 520.171143,118.840813 
	C520.169678,107.179085 520.126587,95.517342 520.090881,83.855637 
	C520.064270,75.158859 516.901062,70.499825 510.918610,70.312073 
	C504.702728,70.116997 501.157562,74.953026 501.079895,84.674789 
z"/>
<path fill="#F6F6F6" opacity="1.000000" stroke="none" 
	d="
M224.341736,105.000305 
	C224.343872,88.561729 224.343872,72.623093 224.343872,56.478580 
	C229.808517,56.478580 234.420593,56.478580 239.637253,56.478580 
	C239.730438,58.273357 239.898468,60.023132 239.900284,61.773083 
	C239.919724,80.426567 239.904587,99.080093 239.926102,117.733574 
	C239.928207,119.559135 239.900803,121.425957 240.250931,123.201889 
	C241.176270,127.895157 244.874420,131.002579 249.285645,131.042786 
	C253.873413,131.084610 257.785156,127.778275 258.623871,122.931946 
	C258.933289,121.144135 258.877869,119.282104 258.879517,117.453827 
	C258.896118,99.133438 258.889893,80.813019 258.890076,62.492611 
	C258.890106,60.675117 258.890076,58.857620 258.890076,56.652863 
	C263.934204,56.652863 268.673676,56.652863 273.708862,56.652863 
	C273.871033,57.275738 274.236450,58.032055 274.240784,58.790443 
	C274.360138,79.608421 274.655853,100.428703 274.451843,121.243988 
	C274.328674,133.807373 265.760925,144.018463 254.547058,146.094238 
	C239.772491,148.829132 226.178635,138.967606 224.635834,123.966637 
	C224.008347,117.865547 224.407532,111.658875 224.341736,105.000305 
z"/>
<path fill="#F6F6F6" opacity="1.000000" stroke="none" 
	d="
M390.382111,70.566986 
	C381.218079,72.892090 380.177856,86.254372 388.155121,91.052856 
	C394.140900,94.653427 400.489960,97.689331 406.277161,101.572891 
	C419.202362,110.246513 421.143280,127.527870 410.591919,138.920258 
	C403.941864,146.100403 395.624481,148.743469 386.091339,146.194519 
	C376.387726,143.599991 370.398529,136.985916 368.043854,127.372986 
	C367.116913,123.588768 367.337524,119.523468 367.002991,115.161400 
	C372.493958,115.161400 377.337860,115.161400 382.820526,115.161400 
	C382.820526,117.698486 382.644562,120.003006 382.856750,122.271225 
	C383.314301,127.163010 386.477692,130.648926 390.768555,131.284607 
	C395.282715,131.953354 399.347504,129.526382 401.042633,125.150192 
	C402.753174,120.734360 401.576172,116.904701 397.021423,114.038010 
	C391.391998,110.494926 385.402344,107.520607 379.802124,103.935379 
	C369.685791,97.458931 365.191895,85.470207 368.198700,73.877617 
	C371.130768,62.572933 381.770813,54.706211 393.468567,55.194298 
	C404.886353,55.670704 415.082611,64.660095 416.694946,76.301422 
	C417.344055,80.987999 416.801880,85.839569 416.801880,90.908844 
	C412.025452,90.908844 407.270538,90.908844 401.678101,90.908844 
	C401.678101,87.456879 401.817688,84.029243 401.648682,80.616898 
	C401.308899,73.756409 397.881073,70.624924 390.382111,70.566986 
z"/>
<path fill="#F4F4F4" opacity="1.000000" stroke="none" 
	d="
M584.496216,107.551056 
	C576.692749,109.824104 569.177246,111.878922 560.856567,114.153893 
	C560.856567,123.330605 560.856567,133.922409 560.856567,144.870743 
	C555.518982,144.870743 550.625427,144.870743 545.406006,144.870743 
	C545.406006,115.580467 545.406006,86.347206 545.406006,56.131714 
	C557.335449,57.004757 569.126526,54.448231 580.636597,58.109791 
	C587.022949,60.141376 591.268799,64.830727 593.768311,71.000542 
	C598.823853,83.479706 595.075012,98.503723 584.496216,107.551056 
M560.761414,91.316414 
	C560.833069,92.917770 560.904724,94.519127 560.995972,96.559807 
	C567.342346,96.310898 573.763367,98.491005 578.030090,91.959099 
	C581.120483,87.228050 581.353577,79.432236 578.269287,75.435272 
	C573.645996,69.444054 567.196594,72.014557 560.761414,71.277763 
	C560.761414,78.144905 560.761414,84.248024 560.761414,91.316414 
z"/>
<path fill="#73CAC4" opacity="1.000000" stroke="none" 
	d="
M154.171570,81.816147 
	C150.966949,78.878441 147.762329,75.940742 144.681885,73.116875 
	C146.553909,70.183159 147.831924,68.180359 149.204620,65.608749 
	C149.541611,64.735474 149.783936,64.431015 150.026260,64.126556 
	C150.786346,64.104202 151.546448,64.081848 152.674713,63.965141 
	C163.776764,69.156746 170.867584,78.078636 176.706909,88.079369 
	C192.494095,115.117340 187.184555,151.436081 164.441879,172.965149 
	C163.605957,173.756454 162.613861,174.382782 161.358444,175.182343 
	C158.809570,169.498337 153.317322,173.306564 149.052231,171.084045 
	C149.661316,169.445206 150.078232,167.606857 150.969269,166.037750 
	C159.124115,151.677002 166.057617,136.853683 167.440704,120.118439 
	C167.859344,115.053230 167.292053,109.906532 167.131378,103.986786 
	C166.359741,100.496338 165.873199,97.721123 164.856873,95.155800 
	C162.677444,89.654617 160.102890,84.359802 154.171570,81.816147 
z"/>
<path fill="#73CAC4" opacity="1.000000" stroke="none" 
	d="
M77.653351,63.762642 
	C80.325569,66.036880 83.739227,68.167122 84.721397,71.109100 
	C85.399864,73.141380 83.424644,77.723854 81.422371,78.714050 
	C69.315918,84.701118 65.212341,95.315056 63.824253,107.491158 
	C61.808750,125.170876 67.367294,141.260071 75.127525,156.756683 
	C76.834717,160.165833 78.936378,163.375504 80.725586,166.746475 
	C81.441902,168.096039 81.804886,169.633133 82.084679,170.408554 
	C77.791824,171.995300 74.120857,173.352188 70.190475,174.994446 
	C36.954205,148.146881 38.044785,93.946518 72.103218,67.766182 
	C73.816383,66.449287 75.604401,65.229767 77.653351,63.762642 
z"/>
<path fill="#F9F9F9" opacity="1.000000" stroke="none" 
	d="
M359.474152,136.908020 
	C359.474701,139.864609 359.474701,142.335526 359.474701,145.068268 
	C354.139526,145.068268 349.242310,145.068268 344.100403,145.068268 
	C344.100403,115.511162 344.100403,86.255585 344.100403,56.636669 
	C349.067719,56.636669 353.801514,56.636669 359.473602,56.636669 
	C359.473602,83.266296 359.473602,109.844337 359.474152,136.908020 
z"/>
<path fill="#6DBEBA" opacity="1.000000" stroke="none" 
	d="
M134.552795,55.064644 
	C132.536850,58.392189 130.906616,61.288845 125.191391,59.606918 
	C119.454903,57.918736 112.744553,58.447948 106.667244,59.367859 
	C102.108421,60.057922 99.097061,59.038441 96.250648,55.554550 
	C108.826035,51.644501 121.483025,51.215786 134.552795,55.064644 
z"/>
<path fill="#C8C8C8" opacity="1.000000" stroke="none" 
	d="
M276.025818,206.106033 
	C274.565918,207.369476 273.139923,208.416672 272.503387,209.821548 
	C271.319153,212.435196 270.594879,215.257202 268.797424,217.708450 
	C269.040100,208.753311 272.336853,200.726791 275.909637,192.597351 
	C277.450073,193.948822 278.455109,194.952164 279.583618,195.789032 
	C280.914337,196.775848 283.462708,197.576813 283.498688,198.533005 
	C283.562347,200.224075 282.465424,202.297043 281.217651,203.601059 
	C280.044647,204.826920 278.049408,205.265961 276.025818,206.106033 
z"/>
<path fill="#CCCCCC" opacity="1.000000" stroke="none" 
	d="
M378.939911,207.962173 
	C374.418945,208.942154 373.610138,206.464661 374.537384,202.909210 
	C375.634644,198.702026 377.627472,195.293777 382.665253,194.666840 
	C383.850494,194.519333 385.198273,193.000656 385.847565,191.780792 
	C387.206268,189.228241 388.149750,186.454666 390.220154,184.087967 
	C389.878265,191.321045 386.476501,197.646729 383.698975,204.672989 
	C383.062622,202.556854 382.865784,200.039017 382.671600,197.554749 
	C377.133331,199.461716 376.128265,202.417694 379.601532,206.756683 
	C379.711456,206.894012 379.175018,207.548676 378.939911,207.962173 
z"/>
<path fill="#BFBFBF" opacity="1.000000" stroke="none" 
	d="
M467.545837,197.633636 
	C465.315979,199.790802 463.195129,201.584229 461.074280,203.377655 
	C460.580780,203.002319 460.087250,202.626984 459.593750,202.251633 
	C459.512299,203.612228 459.430847,204.972809 459.320129,206.822784 
	C461.807861,205.989227 463.695618,205.356705 465.583374,204.724182 
	C465.795074,205.268967 466.006744,205.813751 466.218414,206.358536 
	C463.727478,207.243759 461.236542,208.128983 458.745544,209.014191 
	C458.179932,206.463058 456.956757,203.835754 457.240814,201.383011 
	C457.504211,199.108566 459.101990,196.789841 460.649231,194.939774 
	C461.533691,193.882248 463.789886,192.942123 464.884827,193.363113 
	C466.125458,193.840103 466.757935,195.898895 467.545837,197.633636 
z"/>
<path fill="#C4C4C4" opacity="1.000000" stroke="none" 
	d="
M394.589386,202.172546 
	C393.385040,203.344391 392.638000,204.541473 391.184845,206.870071 
	C394.447052,206.296417 395.967163,206.029114 397.487244,205.761810 
	C397.660034,206.168167 397.832794,206.574539 398.005585,206.980896 
	C396.214874,207.684753 394.023285,209.361084 392.740723,208.832352 
	C391.319000,208.246231 389.796204,205.537491 389.980591,203.945679 
	C390.304596,201.148300 391.535248,198.263382 393.092010,195.875244 
	C393.992004,194.494598 396.199005,193.675171 397.967102,193.291809 
	C398.691925,193.134674 400.703156,194.961548 400.583893,195.594849 
	C400.214294,197.557159 399.313690,199.523392 398.180054,201.189255 
	C397.693085,201.904785 396.124084,201.884033 394.589386,202.172546 
z"/>
<path fill="#CCCCCC" opacity="1.000000" stroke="none" 
	d="
M366.484894,200.387985 
	C364.311768,202.112442 362.138611,203.836914 359.965485,205.561371 
	C359.473389,205.369354 358.981262,205.177338 358.489166,204.985321 
	C359.516052,201.419479 360.542969,197.853653 361.974030,192.884369 
	C363.101685,195.500488 363.590210,196.633850 364.227905,198.113297 
	C364.921936,197.701355 365.551697,197.258743 366.236847,196.932434 
	C369.784241,195.242996 371.254303,196.136780 370.926941,200.014221 
	C370.710083,202.582932 370.059418,205.115005 369.602997,207.663483 
	C369.161041,207.715164 368.719086,207.766846 368.277130,207.818527 
	C368.119659,205.962479 367.962219,204.106445 367.912140,201.600784 
	C367.507996,200.763443 366.996429,200.575714 366.484894,200.387985 
z"/>
<path fill="#B8B8B8" opacity="1.000000" stroke="none" 
	d="
M489.871460,204.379791 
	C491.213226,203.589584 492.291901,203.121185 493.715027,202.503189 
	C493.597473,203.385086 493.634796,203.598480 493.545135,203.705673 
	C491.293518,206.397232 488.651520,209.801910 485.009186,207.530762 
	C481.239502,205.180161 483.497833,201.280075 484.862579,198.151169 
	C485.506195,196.675522 486.453552,194.966965 487.753265,194.240265 
	C489.205475,193.428268 491.213348,193.610046 492.979401,193.359360 
	C493.237518,195.223419 493.495605,197.087494 493.753723,198.951553 
	C493.194214,199.039108 492.634735,199.126663 492.075226,199.214218 
	C491.573914,198.173035 491.072571,197.131851 490.018921,194.943527 
	C488.309509,198.606476 486.988190,201.437820 485.289642,205.077545 
	C487.460876,204.888550 488.534576,204.795074 489.871460,204.379791 
z"/>
<path fill="#D0D0D0" opacity="1.000000" stroke="none" 
	d="
M428.685333,206.338028 
	C427.974152,205.135391 427.054871,203.708282 427.377350,202.664948 
	C428.277069,199.753815 429.691223,197.001694 432.030945,194.281799 
	C432.403046,195.714905 432.775146,197.148026 433.146301,198.577408 
	C439.486694,197.044052 440.072235,197.623199 440.176605,205.363052 
	C439.044495,204.018173 438.022430,201.860931 436.404572,201.229019 
	C435.403168,200.837891 433.440948,202.685791 432.013794,203.677841 
	C430.938507,204.425308 430.027893,205.409729 428.685333,206.338028 
z"/>
<path fill="#D0D0D0" opacity="1.000000" stroke="none" 
	d="
M304.148529,207.063889 
	C302.868866,207.481064 301.589203,207.898239 300.224854,208.343033 
	C299.274231,202.970062 301.589447,197.293640 305.521362,194.966873 
	C306.381470,194.457870 308.277405,194.109375 308.565155,194.506531 
	C309.641998,195.992737 310.509918,197.752563 310.964539,199.535202 
	C311.487488,201.585632 311.489166,203.768997 312.263733,206.001160 
	C310.250763,211.182480 308.939240,204.084442 306.109375,205.142776 
	C306.571381,202.562210 307.708954,200.073776 309.116608,196.994568 
	C302.934265,198.977707 300.907745,203.877975 304.148529,207.063889 
z"/>
<path fill="#DBDBDB" opacity="1.000000" stroke="none" 
	d="
M259.938904,201.842010 
	C258.956604,203.271240 257.974304,204.700485 256.226105,207.244080 
	C256.226105,204.318634 256.226105,202.689148 256.226105,199.829819 
	C253.404709,203.028488 251.303238,205.410965 248.889191,208.147812 
	C245.940018,203.497391 254.365540,199.586288 249.331650,194.813187 
	C252.462570,195.606644 255.593475,196.400085 258.890564,197.899536 
	C259.350830,199.684341 259.644867,200.763168 259.938904,201.842010 
z"/>
<path fill="#A7A7A7" opacity="1.000000" stroke="none" 
	d="
M521.997192,198.987289 
	C524.140076,198.364029 526.795105,196.678131 528.290344,197.398727 
	C529.985901,198.215912 530.642639,201.188492 531.988403,203.659836 
	C532.186646,203.638046 533.366089,203.508377 534.545532,203.378723 
	C534.737915,203.788467 534.930237,204.198212 535.122620,204.607956 
	C533.464844,205.556641 531.807129,206.505325 530.149353,207.454010 
	C529.052368,205.529739 527.955383,203.605484 526.678528,201.365677 
	C525.496033,202.928101 524.083496,204.794571 522.220154,207.256714 
	C521.934692,205.249146 521.734375,203.840225 521.276001,202.206360 
	C521.018066,201.981415 520.936646,201.960434 521.199768,202.233810 
	C521.666260,201.726364 521.869629,200.945541 522.032715,199.871704 
	C521.994080,199.381577 521.995667,199.184433 521.997192,198.987289 
z"/>
<path fill="#C8C8C8" opacity="1.000000" stroke="none" 
	d="
M233.430145,204.793579 
	C235.151016,201.356018 236.696487,198.111725 238.838867,195.326569 
	C239.504959,194.460617 242.359482,194.138901 243.191818,194.818222 
	C244.320251,195.739197 245.112869,197.949799 244.911758,199.455215 
	C244.332901,203.788361 241.347061,206.571869 237.344742,207.786301 
	C236.409470,208.070068 234.789749,206.098038 233.430145,204.793579 
M236.477585,205.629013 
	C240.983734,204.565857 242.298386,201.448486 242.689682,196.172256 
	C238.206802,198.517715 236.314407,201.148758 236.477585,205.629013 
z"/>
<path fill="#D0D0D0" opacity="1.000000" stroke="none" 
	d="
M349.060242,201.020752 
	C345.907043,204.329605 346.320923,205.065720 351.557709,206.143280 
	C349.152588,208.797745 347.492340,208.846130 345.821503,206.310455 
	C342.999420,202.027664 346.714294,194.320602 351.847015,194.153336 
	C353.090240,194.112823 355.003571,195.024765 355.449219,196.018661 
	C355.840607,196.891541 354.949036,198.937195 354.006744,199.659424 
	C352.826691,200.563889 351.016113,200.645691 349.060242,201.020752 
z"/>
<path fill="#CCCCCC" opacity="1.000000" stroke="none" 
	d="
M560.797607,204.480392 
	C562.436768,201.542450 563.848206,198.435165 565.839111,195.758881 
	C566.531616,194.828018 569.269897,194.202927 569.990234,194.783264 
	C571.182129,195.743469 571.955933,197.766296 572.055115,199.393219 
	C572.164001,201.180389 571.310486,203.026169 570.934387,204.602798 
	C569.118774,205.387695 566.964600,206.241791 564.879944,207.240921 
	C562.624573,208.321884 560.705688,208.929398 561.026001,205.047668 
	C565.451660,205.421219 568.758240,202.174301 569.191711,195.976227 
	C567.213440,198.167221 565.944519,199.674744 564.563416,201.071274 
	C563.374634,202.273361 562.057800,203.348877 560.797607,204.480392 
z"/>
<path fill="#C8C8C8" opacity="1.000000" stroke="none" 
	d="
M500.696655,198.632370 
	C502.160309,197.170517 503.623993,195.708664 505.087677,194.246796 
	C506.130798,195.938599 507.733002,197.528259 508.065735,199.349808 
	C508.426117,201.322632 507.602875,203.511673 507.341431,205.295212 
	C505.608673,205.594864 503.936646,206.004730 502.242462,206.142212 
	C500.629639,206.273102 498.993805,206.119644 497.368073,206.091217 
	C497.534119,204.435455 497.494019,202.721466 497.939484,201.144638 
	C498.230835,200.113464 499.225830,199.281097 500.364014,198.925232 
	C501.497223,200.050125 502.658905,201.178726 502.772400,201.081665 
	C504.063232,199.977753 505.193939,198.686615 506.367493,197.445557 
	C506.060883,197.275436 505.754272,197.105316 505.447662,196.935211 
	C503.863983,197.500931 502.280334,198.066650 500.696655,198.632370 
z"/>
<path fill="#C4C4C4" opacity="1.000000" stroke="none" 
	d="
M445.311707,195.538605 
	C447.559326,193.109528 449.718048,191.065430 452.781189,188.164902 
	C452.567261,190.509735 452.436890,191.938614 452.293671,193.508163 
	C453.385590,193.865204 454.674683,194.286728 455.963806,194.708267 
	C447.743683,196.093094 447.123901,201.678040 448.825592,208.668839 
	C448.138397,208.551041 447.451202,208.433258 446.763977,208.315475 
	C446.579071,205.976334 446.464447,203.628799 446.186584,201.300751 
	C445.971130,199.495728 445.551636,197.715073 445.311707,195.538605 
z"/>
<path fill="#C4C4C4" opacity="1.000000" stroke="none" 
	d="
M521.676880,198.821335 
	C521.995667,199.184433 521.994080,199.381577 521.931885,200.148834 
	C521.559692,201.132782 521.248169,201.546616 520.936646,201.960449 
	C520.936646,201.960434 521.018066,201.981415 521.031921,201.941925 
	C518.954773,203.829544 516.863708,205.756653 514.772705,207.683746 
	C514.343994,207.580780 513.915344,207.477814 513.486633,207.374847 
	C514.118408,205.353622 514.888550,203.362534 515.337341,201.301453 
	C515.686401,199.698669 515.634949,198.008652 515.134155,195.960266 
	C518.983765,190.985672 519.240723,197.253693 521.676880,198.821335 
z"/>
<path fill="#C4C4C4" opacity="1.000000" stroke="none" 
	d="
M220.340851,206.402908 
	C221.475693,202.118225 222.534683,198.061096 224.355911,194.381195 
	C224.831024,193.421173 227.680176,193.636047 229.438965,193.311310 
	C229.715424,195.135666 229.991882,196.960022 230.268356,198.784393 
	C229.666626,198.902924 229.064911,199.021469 228.463181,199.139999 
	C228.133667,198.081635 227.804169,197.023285 227.084518,194.711838 
	C225.100159,198.019424 223.200912,200.325958 222.402405,202.965485 
	C222.108780,203.936050 224.416199,205.693481 226.399673,208.168015 
	C224.021347,207.600174 222.285400,207.185715 220.340851,206.402908 
z"/>
<path fill="#B8B8B8" opacity="1.000000" stroke="none" 
	d="
M549.945679,196.173920 
	C550.305359,197.376282 551.352966,199.067413 550.905945,199.696640 
	C548.941772,202.461166 546.777222,205.196259 544.193237,207.352341 
	C543.146362,208.225830 540.406067,208.238907 539.245544,207.451233 
	C538.247864,206.774048 538.401489,204.400726 538.408203,202.854156 
	C539.327087,203.621246 539.883728,204.311600 540.827759,205.160019 
	C545.280579,204.477142 547.557861,201.861176 548.639893,197.743622 
	C549.148438,197.083115 549.547058,196.628525 549.945679,196.173920 
z"/>
<path fill="#2B2B2B" opacity="1.000000" stroke="none" 
	d="
M379.263245,208.085846 
	C379.175018,207.548676 379.711456,206.894012 379.601532,206.756683 
	C376.128265,202.417694 377.133331,199.461716 382.671600,197.554749 
	C382.865784,200.039017 383.062622,202.556854 383.674896,205.049194 
	C384.090363,206.483475 384.090363,207.943268 384.090363,210.141769 
	C382.077850,209.278351 380.832214,208.743942 379.263245,208.085846 
z"/>
<path fill="#DBDBDB" opacity="1.000000" stroke="none" 
	d="
M288.924500,194.605225 
	C289.767303,194.590210 290.924194,194.690796 291.168304,195.215759 
	C291.709412,196.379608 291.792389,197.756439 292.078766,199.125641 
	C290.702606,201.683044 289.054504,204.745804 286.914581,208.722534 
	C284.612488,203.118927 287.538879,199.109131 288.924500,194.605225 
z"/>
<path fill="#AFAFAF" opacity="1.000000" stroke="none" 
	d="
M539.728699,196.805420 
	C541.324951,192.155029 542.921143,187.504623 544.517395,182.854218 
	C545.200623,183.063950 545.883850,183.273682 546.567078,183.483414 
	C545.496643,187.931915 544.426208,192.380417 543.552307,197.275848 
	C542.408752,197.416977 541.068726,197.111191 539.728699,196.805420 
z"/>
<path fill="#D0D0D0" opacity="1.000000" stroke="none" 
	d="
M476.249451,199.447388 
	C474.544952,202.411270 472.840485,205.375168 471.136017,208.339066 
	C470.500183,208.091995 469.864349,207.844940 469.228485,207.597885 
	C470.505554,203.191757 471.782593,198.785614 473.059631,194.379486 
	C473.736145,194.641174 474.412689,194.902863 474.848541,195.767670 
	C475.155060,197.396332 475.702271,198.421875 476.249451,199.447388 
z"/>
<path fill="#A7A7A7" opacity="1.000000" stroke="none" 
	d="
M260.286377,201.634155 
	C259.644867,200.763168 259.350830,199.684341 259.048584,198.264038 
	C260.899292,198.397400 262.758209,198.872238 264.661804,199.358521 
	C265.140594,200.907883 265.792023,203.015869 266.709351,205.984375 
	C266.798279,205.908234 265.877502,206.696503 265.004761,207.443634 
	C261.091736,207.135056 265.632294,200.887558 260.286377,201.634155 
z"/>
<path fill="#A7A7A7" opacity="1.000000" stroke="none" 
	d="
M554.808533,199.134003 
	C555.650391,198.125214 556.396484,197.458527 557.142578,196.791840 
	C557.449158,197.615402 558.180603,198.558456 557.988525,199.241791 
	C557.168457,202.157883 556.075623,204.997253 554.876953,208.457275 
	C551.491821,204.870544 554.293396,202.195633 554.808533,199.134003 
z"/>
<path fill="#AFAFAF" opacity="1.000000" stroke="none" 
	d="
M424.038757,197.831146 
	C423.190521,201.423935 422.261536,204.657837 421.058289,208.846405 
	C417.859833,204.409943 420.560577,201.450760 421.298187,198.446091 
	C421.423767,197.934647 423.033813,197.787643 424.038757,197.831146 
z"/>
<path fill="#DBDBDB" opacity="1.000000" stroke="none" 
	d="
M539.441650,197.035248 
	C541.068726,197.111191 542.408752,197.416977 543.885437,197.446472 
	C545.738892,196.767227 547.455627,196.364258 549.559082,196.067596 
	C549.547058,196.628525 549.148438,197.083115 548.326904,197.661331 
	C545.416199,200.190613 542.928284,202.596298 540.440369,205.001953 
	C539.883728,204.311600 539.327087,203.621246 538.631104,202.596634 
	C538.712708,200.596603 538.933655,198.930832 539.441650,197.035248 
z"/>
<path fill="#2B2B2B" opacity="1.000000" stroke="none" 
	d="
M304.446503,207.086990 
	C300.907745,203.877975 302.934265,198.977707 309.116608,196.994568 
	C307.708954,200.073776 306.571381,202.562210 305.757202,205.235413 
	C305.635223,205.983475 305.189850,206.546783 304.446503,207.086990 
z"/>
<path fill="#2B2B2B" opacity="1.000000" stroke="none" 
	d="
M560.818726,204.474426 
	C562.057800,203.348877 563.374634,202.273361 564.563416,201.071274 
	C565.944519,199.674744 567.213440,198.167221 569.191711,195.976227 
	C568.758240,202.174301 565.451660,205.421219 561.121582,204.613434 
	C560.802917,204.454880 560.839844,204.468475 560.818726,204.474426 
z"/>
<path fill="#D0D0D0" opacity="1.000000" stroke="none" 
	d="
M477.025604,196.116989 
	C478.109985,195.781815 479.194397,195.446655 480.614716,195.512909 
	C480.980927,196.317841 481.011200,196.721359 481.041473,197.124878 
	C479.999054,197.684143 478.956635,198.243378 477.547729,198.172211 
	C477.129395,197.066864 477.077484,196.591919 477.025604,196.116989 
z"/>
<path fill="#AFAFAF" opacity="1.000000" stroke="none" 
	d="
M476.720215,196.063797 
	C477.077484,196.591919 477.129395,197.066864 477.312988,197.876450 
	C477.444672,198.211105 477.320709,198.253143 476.995178,198.270737 
	C476.511108,198.612747 476.352600,198.937180 476.194092,199.261612 
	C476.194092,199.261612 476.266846,199.342026 476.258148,199.394714 
	C475.702271,198.421875 475.155060,197.396332 474.892822,196.152802 
	C475.590118,195.960068 476.002441,195.985336 476.720215,196.063797 
z"/>
<path fill="#AFAFAF" opacity="1.000000" stroke="none" 
	d="
M481.367767,197.070374 
	C481.011200,196.721359 480.980927,196.317841 480.943481,195.610428 
	C481.188873,195.876312 481.441467,196.446091 481.367767,197.070374 
z"/>
<path fill="#D0D0D0" opacity="1.000000" stroke="none" 
	d="
M476.552429,199.336334 
	C476.352600,198.937180 476.511108,198.612747 476.947662,198.225739 
	C477.120697,198.579132 477.015717,198.995087 476.552429,199.336334 
z"/>
<path fill="#E2D8B0" opacity="1.000000" stroke="none" 
	d="
M122.925797,125.865509 
	C124.978943,124.827438 126.740372,123.450867 128.521072,123.425476 
	C133.540756,123.353905 135.718567,121.662941 135.529953,116.793854 
	C131.399109,119.804436 127.430862,119.734879 123.640984,116.064056 
	C120.369087,118.502312 117.385590,122.726562 112.964218,118.481613 
	C115.676544,116.134827 118.008835,113.904083 120.586319,112.006363 
	C121.446297,111.373199 122.935768,111.605331 124.133942,111.419189 
	C127.324226,110.923546 130.926712,111.187088 133.612213,109.745682 
	C138.611084,107.062584 143.075500,103.383736 147.828018,100.073685 
	C150.237823,106.198715 148.210129,110.810379 142.260925,114.515556 
	C144.353867,114.624336 146.446808,114.733109 149.036499,114.867706 
	C148.919189,118.859138 148.164032,123.188606 143.243347,126.464371 
	C145.289612,126.194633 147.335876,125.924896 149.918610,125.584442 
	C149.065369,130.492020 147.043884,134.319092 140.917297,134.977783 
	C141.028519,135.382965 141.139740,135.788147 141.250977,136.193329 
	C143.025009,136.809479 144.799042,137.425629 147.923126,138.510666 
	C145.124146,141.372604 142.680038,143.871704 140.043243,146.567795 
	C141.059143,146.956879 142.431564,147.482513 144.007797,148.086212 
	C143.680756,148.723831 143.514755,149.407715 143.086304,149.816589 
	C141.690491,151.148651 129.884857,152.583923 128.023758,151.963394 
	C126.912041,151.592712 125.612114,151.676056 124.404114,151.727493 
	C121.877670,151.835052 119.356071,152.056580 115.815430,152.301697 
	C119.842720,150.196457 122.712677,148.567200 125.703400,147.202621 
	C126.753403,146.723511 128.121872,146.683380 129.306854,146.807190 
	C133.017319,147.194839 135.243561,145.784256 135.883255,142.778763 
	C132.892532,142.202454 130.258347,141.525467 127.583191,141.257401 
	C126.407570,141.139587 125.109505,141.754379 123.934700,142.210739 
	C120.570450,143.517639 117.303513,144.275146 114.040840,141.188446 
	C120.353752,139.490280 126.506027,138.248962 132.304886,136.067978 
	C134.564392,135.218185 136.027878,132.251923 137.329636,129.584000 
	C133.341339,132.132965 129.899445,133.312851 126.574654,128.981735 
	C122.358231,131.927338 118.232277,135.201859 113.141426,130.161407 
	C116.491074,128.745056 119.566978,127.444458 122.925797,125.865509 
M140.708923,134.380539 
	C140.708923,134.380539 140.567734,134.704758 140.567734,134.704758 
	C140.567734,134.704758 140.928223,134.619019 140.708923,134.380539 
z"/>
<path fill="#E4DAB1" opacity="1.000000" stroke="none" 
	d="
M149.991394,63.701778 
	C149.783936,64.431015 149.541611,64.735474 149.213623,65.213394 
	C146.470428,67.295059 143.812897,69.203255 140.575165,71.310333 
	C139.661469,71.680145 139.327942,71.851074 138.655716,71.984589 
	C136.835388,70.531021 135.352600,69.180077 133.509689,71.947426 
	C132.472458,72.662621 131.722366,73.295868 130.659561,74.018814 
	C129.889191,74.559746 129.431503,75.010963 128.692841,75.586349 
	C125.951515,78.940147 123.218086,82.008072 121.163467,85.477928 
	C120.326187,86.891930 120.961807,89.178078 121.005600,91.418365 
	C122.917480,96.649330 119.852211,99.044479 116.303185,101.194237 
	C115.922310,96.567497 117.206017,89.568100 114.775482,87.862923 
	C111.007927,85.219734 110.529007,81.499031 108.184494,78.614441 
	C108.013901,78.404549 108.096466,77.988892 108.016075,77.256638 
	C109.090332,77.201042 110.257675,76.812721 111.156624,77.146736 
	C117.522034,79.511879 122.065506,76.646484 126.111412,72.180641 
	C129.008804,68.982506 131.741898,65.616531 134.828308,62.613216 
	C139.160126,58.398045 144.500778,56.480652 151.056015,56.406704 
	C150.646988,58.962643 150.301773,61.119823 149.991394,63.701778 
z"/>
<path fill="#E0D6AF" opacity="1.000000" stroke="none" 
	d="
M148.263000,87.911743 
	C147.902756,92.710716 149.010147,98.361778 142.824051,100.336136 
	C139.760056,101.314034 136.340652,101.299118 133.068924,101.451637 
	C131.555756,101.522179 129.011124,99.067657 129.795532,103.268745 
	C129.809128,103.341545 127.838333,104.132713 126.920204,103.950447 
	C125.527550,103.673988 124.246185,102.836906 122.986526,102.269073 
	C116.057205,109.963478 116.057205,109.963478 112.889557,105.490150 
	C114.239273,105.185379 115.447289,104.912598 117.227539,104.242828 
	C120.566940,99.954811 126.349319,97.243172 122.924484,90.573265 
	C123.642937,89.700188 124.298210,89.159325 125.297653,88.750336 
	C126.766396,89.770958 127.890968,90.659714 129.028015,91.556168 
	C129.040466,91.563858 129.048645,91.526169 128.800308,91.760132 
	C128.601181,92.976212 128.264679,94.424026 128.776337,94.847778 
	C130.011002,95.870369 131.601685,96.513184 133.120422,97.133942 
	C139.204224,99.620613 143.470291,97.469223 145.546997,91.208229 
	C145.965073,89.947777 147.333008,89.002388 148.263000,87.911743 
z"/>
<path fill="#E0D6AF" opacity="1.000000" stroke="none" 
	d="
M164.183578,121.043152 
	C163.454376,120.863678 162.249451,120.889633 162.069519,120.472954 
	C160.255646,116.272659 158.609680,111.999840 156.714523,107.240082 
	C158.318024,107.446983 159.470123,107.595642 160.873093,107.776672 
	C161.545685,99.679260 158.507507,92.945084 154.277588,86.360550 
	C156.138351,87.152443 158.227219,88.000931 158.966354,89.510368 
	C161.266907,94.208389 163.055923,99.156891 165.043335,104.008247 
	C165.072357,108.696388 165.101379,113.384521 164.751801,118.652962 
	C164.309998,119.836563 164.246780,120.439857 164.183578,121.043152 
z"/>
<path fill="#61576A" opacity="1.000000" stroke="none" 
	d="
M148.497345,87.670563 
	C147.333008,89.002388 145.965073,89.947777 145.546997,91.208229 
	C143.470291,97.469223 139.204224,99.620613 133.120422,97.133942 
	C131.601685,96.513184 130.011002,95.870369 128.776337,94.847778 
	C128.264679,94.424026 128.601181,92.976212 128.922272,91.820030 
	C129.292572,91.645958 129.330963,91.915253 129.764191,91.945419 
	C130.486191,91.995850 130.774994,92.016113 131.078171,92.429764 
	C132.679443,96.393150 136.039627,95.679688 138.178101,94.619049 
	C140.259888,93.586525 141.957748,91.017487 142.930267,88.741188 
	C143.776779,86.759834 143.375839,84.245537 143.526138,81.966743 
	C147.785446,81.382286 148.871964,83.821289 148.497345,87.670563 
z"/>
<path fill="#D0B570" opacity="1.000000" stroke="none" 
	d="
M133.639435,157.097046 
	C134.575348,157.371368 135.113342,157.704910 135.651352,158.038437 
	C131.009933,161.284073 126.368515,164.529709 121.727104,167.775345 
	C121.397346,167.346985 121.067589,166.918610 120.737823,166.490234 
	C122.075935,164.970306 123.414047,163.450378 125.167519,161.458649 
	C122.734062,161.309647 120.799896,161.191208 117.777199,161.006119 
	C123.342194,157.970764 127.779427,155.385391 133.639435,157.097046 
z"/>
<path fill="#D0D0D0" opacity="1.000000" stroke="none" 
	d="
M93.296188,84.448288 
	C93.400635,82.429497 93.605125,80.792908 93.654602,80.396919 
	C97.960815,82.096718 101.855721,83.634163 106.978020,85.656097 
	C104.730324,86.926079 102.982071,88.460579 100.986313,88.920044 
	C97.543144,89.712730 94.852043,88.193459 93.296188,84.448288 
z"/>
<path fill="#CBB06F" opacity="1.000000" stroke="none" 
	d="
M115.742447,69.720001 
	C117.393089,68.473930 118.809639,67.515076 121.240349,65.869728 
	C117.283859,64.491112 114.493553,63.518848 111.703247,62.546585 
	C111.754524,62.074497 111.805801,61.602413 111.857079,61.130325 
	C116.748940,61.388054 121.640800,61.645782 126.705757,61.912632 
	C124.975029,68.874054 119.977577,72.162758 115.742447,69.720001 
z"/>
<path fill="#555269" opacity="1.000000" stroke="none" 
	d="
M165.371948,104.007080 
	C163.055923,99.156891 161.266907,94.208389 158.966354,89.510368 
	C158.227219,88.000931 156.138351,87.152443 154.292404,85.992950 
	C152.971390,85.525795 152.024963,85.067276 150.839386,84.492889 
	C152.165863,83.570740 153.043427,82.960663 154.046280,82.083374 
	C160.102890,84.359802 162.677444,89.654617 164.856873,95.155800 
	C165.873199,97.721123 166.359741,100.496338 167.050415,103.573318 
	C166.576447,103.982124 166.138504,103.994019 165.371948,104.007080 
M154.596664,84.508942 
	C154.596664,84.508942 154.488144,84.578644 154.596664,84.508942 
z"/>
<path fill="#D0C6A6" opacity="1.000000" stroke="none" 
	d="
M85.267792,61.757248 
	C83.445755,60.197361 81.922791,58.830975 80.399834,57.464584 
	C80.681725,56.866280 80.963615,56.267975 81.245506,55.669670 
	C85.875061,57.209370 90.504623,58.749069 96.110565,60.613491 
	C93.445114,62.646141 92.048042,63.711533 90.616005,64.803596 
	C88.940544,63.856930 87.253708,62.903835 85.267792,61.757248 
z"/>
<path fill="#F0E6B8" opacity="1.000000" stroke="none" 
	d="
M143.466095,81.631454 
	C143.375839,84.245537 143.776779,86.759834 142.930267,88.741188 
	C141.957748,91.017487 140.259888,93.586525 138.178101,94.619049 
	C136.039627,95.679688 132.679443,96.393150 131.402191,92.336029 
	C135.673431,92.280167 138.794434,91.272942 140.260162,86.840714 
	C140.597595,86.110802 140.682770,85.541412 140.854126,84.565948 
	C140.972763,82.777138 141.005234,81.394394 141.383575,80.013626 
	C142.190247,79.999031 142.651062,79.982475 143.111862,79.965919 
	C143.209930,80.409332 143.307983,80.852745 143.466095,81.631454 
z"/>
<path fill="#B79E6B" opacity="1.000000" stroke="none" 
	d="
M122.146606,211.981354 
	C120.727722,213.267807 119.520874,214.250671 117.512688,215.886139 
	C119.702209,209.467392 121.500946,204.194244 123.612190,198.004959 
	C125.495964,203.175751 124.400208,207.445404 122.146606,211.981354 
z"/>
<path fill="#C5AB6E" opacity="1.000000" stroke="none" 
	d="
M157.024597,129.856918 
	C156.993774,127.284401 156.993774,125.149269 156.993774,122.831810 
	C161.605530,127.643158 162.647736,133.552689 159.246109,140.015686 
	C158.357376,136.071854 157.706390,133.183075 157.024597,129.856918 
z"/>
<path fill="#B79E6B" opacity="1.000000" stroke="none" 
	d="
M133.942413,198.787659 
	C134.235947,196.961639 134.458817,195.519989 134.748108,193.648712 
	C138.489014,201.035431 136.263794,207.316956 129.654205,209.458527 
	C131.042450,206.072647 132.457108,202.622360 133.942413,198.787659 
z"/>
<path fill="#C5AB6E" opacity="1.000000" stroke="none" 
	d="
M90.541183,88.366882 
	C93.819611,90.620285 96.919037,92.541061 99.685829,94.255699 
	C95.148338,97.390884 89.695488,95.928467 88.059364,90.298477 
	C87.482178,88.312332 88.102074,87.702827 90.541183,88.366882 
z"/>
<path fill="#A28C67" opacity="1.000000" stroke="none" 
	d="
M153.868637,149.007812 
	C154.364487,147.774643 154.752243,146.892532 155.140015,146.010422 
	C155.645187,146.170395 156.150360,146.330368 156.655533,146.490341 
	C155.427063,150.626923 154.198608,154.763519 152.970139,158.900101 
	C152.232925,158.681900 151.495697,158.463699 150.758469,158.245499 
	C151.759171,155.283295 152.759857,152.321075 153.868637,149.007812 
z"/>
<path fill="#7F757A" opacity="1.000000" stroke="none" 
	d="
M122.861313,90.905479 
	C126.349319,97.243172 120.566940,99.954811 117.499695,103.991379 
	C116.816864,103.315407 116.434113,102.493881 116.177269,101.433304 
	C119.852211,99.044479 122.917480,96.649330 121.325439,91.364777 
	C121.998436,90.942001 122.429871,90.923737 122.861313,90.905479 
z"/>
<path fill="#C4BAA0" opacity="1.000000" stroke="none" 
	d="
M137.851578,169.264343 
	C138.318253,172.122787 138.511627,174.678192 138.705002,177.233612 
	C138.261826,177.251312 137.818634,177.269012 137.375443,177.286713 
	C136.262054,174.539490 135.148666,171.792252 133.666794,168.135788 
	C135.228119,168.465317 136.403198,168.713333 137.851578,169.264343 
z"/>
<path fill="#8F8570" opacity="1.000000" stroke="none" 
	d="
M116.930832,174.078232 
	C119.442154,174.078339 121.484451,174.078339 123.526741,174.078339 
	C123.535728,174.546707 123.544716,175.015060 123.553703,175.483429 
	C118.547119,175.483429 113.540535,175.483429 108.533951,175.483429 
	C108.501823,175.014999 108.469704,174.546555 108.437576,174.078125 
	C111.112320,174.078125 113.787064,174.078125 116.930832,174.078232 
z"/>
<path fill="#C4BAA0" opacity="1.000000" stroke="none" 
	d="
M128.066574,172.430893 
	C130.105530,168.891342 131.564636,170.867966 132.011810,172.898041 
	C132.407715,174.695404 131.639084,176.749298 131.384567,178.689941 
	C130.910477,178.692703 130.436386,178.695465 129.962296,178.698227 
	C129.328918,176.730011 128.695541,174.761795 128.066574,172.430893 
z"/>
<path fill="#B79E6B" opacity="1.000000" stroke="none" 
	d="
M94.413391,170.520447 
	C99.703178,172.323959 96.067749,175.199020 95.788254,178.401672 
	C92.260506,175.975784 92.381233,173.502594 94.413391,170.520447 
z"/>
<path fill="#61576A" opacity="1.000000" stroke="none" 
	d="
M143.356750,79.759323 
	C142.651062,79.982475 142.190247,79.999031 141.137115,79.875824 
	C140.030045,78.823769 139.515335,77.911476 138.989136,76.584419 
	C138.983246,74.787094 138.988846,73.404549 138.994431,72.021996 
	C139.327942,71.851074 139.661469,71.680145 140.272659,71.465530 
	C141.567444,74.132141 142.584534,76.842438 143.356750,79.759323 
z"/>
<path fill="#555269" opacity="1.000000" stroke="none" 
	d="
M164.460754,120.985748 
	C164.246780,120.439857 164.309998,119.836563 164.662170,119.111610 
	C164.880081,119.636086 164.809021,120.282211 164.460754,120.985748 
z"/>
<path fill="#090909" opacity="1.000000" stroke="none" 
	d="
M501.080170,84.203659 
	C501.157562,74.953026 504.702728,70.116997 510.918610,70.312073 
	C516.901062,70.499825 520.064270,75.158859 520.090881,83.855637 
	C520.126587,95.517342 520.169678,107.179085 520.171143,118.840813 
	C520.172119,126.670326 516.443909,131.482971 510.502441,131.431351 
	C504.548920,131.379623 501.099548,126.730728 501.085846,118.660530 
	C501.066620,107.331978 501.080292,96.003372 501.080170,84.203659 
z"/>
<path fill="#0C0C0C" opacity="1.000000" stroke="none" 
	d="
M560.761414,90.833778 
	C560.761414,84.248024 560.761414,78.144905 560.761414,71.277763 
	C567.196594,72.014557 573.645996,69.444054 578.269287,75.435272 
	C581.353577,79.432236 581.120483,87.228050 578.030090,91.959099 
	C573.763367,98.491005 567.342346,96.310898 560.995972,96.559807 
	C560.904724,94.519127 560.833069,92.917770 560.761414,90.833778 
z"/>
<path fill="#020202" opacity="1.000000" stroke="none" 
	d="
M366.777588,200.685760 
	C366.996429,200.575714 367.507996,200.763443 367.863647,201.237091 
	C367.495239,201.343201 367.282776,201.163361 366.777588,200.685760 
z"/>
<path fill="#020202" opacity="1.000000" stroke="none" 
	d="
M521.199768,202.233826 
	C521.248169,201.546616 521.559692,201.132782 521.972046,200.441833 
	C521.869629,200.945541 521.666260,201.726364 521.199768,202.233826 
z"/>
<path fill="#2B2B2B" opacity="1.000000" stroke="none" 
	d="
M236.277557,205.321716 
	C236.314407,201.148758 238.206802,198.517715 242.689682,196.172256 
	C242.298386,201.448486 240.983734,204.565857 236.277557,205.321716 
z"/>
<path fill="#AFAFAF" opacity="1.000000" stroke="none" 
	d="
M500.682739,198.691483 
	C502.280334,198.066650 503.863983,197.500931 505.447662,196.935211 
	C505.754272,197.105316 506.060883,197.275436 506.367493,197.445557 
	C505.193939,198.686615 504.063232,199.977753 502.772400,201.081665 
	C502.658905,201.178726 501.497223,200.050125 500.689209,199.143250 
	C500.556030,198.795700 500.668823,198.750595 500.682739,198.691483 
z"/>
<path fill="#2B2B2B" opacity="1.000000" stroke="none" 
	d="
M540.827759,205.160034 
	C542.928284,202.596298 545.416199,200.190613 548.217041,197.867249 
	C547.557861,201.861176 545.280579,204.477142 540.827759,205.160034 
z"/>
<path fill="#362D52" opacity="1.000000" stroke="none" 
	d="
M140.818573,134.499786 
	C140.928223,134.619019 140.567734,134.704758 140.567734,134.704758 
	C140.567734,134.704758 140.708923,134.380539 140.818573,134.499786 
z"/>
<path fill="#362D52" opacity="1.000000" stroke="none" 
	d="
M122.924484,90.573265 
	C122.429871,90.923737 121.998436,90.942001 121.247147,91.013840 
	C120.961807,89.178078 120.326187,86.891930 121.163467,85.477928 
	C123.218086,82.008072 125.951515,78.940147 128.789139,75.944061 
	C131.574265,77.124405 133.982101,78.071205 136.363480,79.035240 
	C136.337006,79.052475 136.281509,79.081924 135.952454,79.055511 
	C135.112335,79.739960 134.601273,80.450821 134.069931,81.375641 
	C134.049667,81.589607 133.886276,81.987175 133.589600,82.037125 
	C132.857208,82.680420 132.421494,83.273766 131.753082,83.912483 
	C131.520401,83.957855 131.052536,84.034912 130.797455,83.864792 
	C129.694229,83.797302 128.846100,83.899940 127.588028,84.019890 
	C126.725716,85.042534 126.273369,86.047859 125.621826,87.181335 
	C125.266243,87.745819 125.109863,88.182137 124.953476,88.618469 
	C124.298210,89.159325 123.642937,89.700188 122.924484,90.573265 
z"/>
<path fill="#483F5F" opacity="1.000000" stroke="none" 
	d="
M136.389954,79.018005 
	C133.982101,78.071205 131.574265,77.124405 129.070114,75.819885 
	C129.431503,75.010963 129.889191,74.559746 130.691223,74.322479 
	C131.897858,74.861877 132.760132,75.187309 133.622421,75.512749 
	C133.680557,74.296989 133.738693,73.081230 133.796829,71.865471 
	C135.352600,69.180077 136.835388,70.531021 138.655716,71.984589 
	C138.988846,73.404549 138.983246,74.787094 138.603455,76.595901 
	C137.612885,77.638054 136.996536,78.253952 136.392639,78.906235 
	C136.405121,78.942604 136.389954,79.018005 136.389954,79.018005 
z"/>
<path fill="#362D52" opacity="1.000000" stroke="none" 
	d="
M133.509689,71.947426 
	C133.738693,73.081230 133.680557,74.296989 133.622421,75.512749 
	C132.760132,75.187309 131.897858,74.861877 131.003906,74.232773 
	C131.722366,73.295868 132.472458,72.662621 133.509689,71.947426 
z"/>
<path fill="#D6D4DC" opacity="1.000000" stroke="none" 
	d="
M131.052536,84.034912 
	C131.052536,84.034912 131.520401,83.957855 132.104477,84.014496 
	C133.087784,83.376488 133.487030,82.681831 133.886276,81.987175 
	C133.886276,81.987175 134.049667,81.589607 134.404297,81.305557 
	C135.266449,80.374977 135.773987,79.728447 136.281509,79.081924 
	C136.281509,79.081924 136.337006,79.052475 136.363480,79.035240 
	C136.389954,79.018005 136.405121,78.942604 136.649719,79.057297 
	C137.339630,81.107719 137.784927,83.043457 138.022491,85.196373 
	C137.548157,85.944351 137.281586,86.475136 136.704895,87.162140 
	C134.759430,87.923706 133.010361,88.335381 131.529877,89.204559 
	C130.590286,89.756180 130.050217,90.988304 129.330963,91.915253 
	C129.330963,91.915253 129.292572,91.645958 129.170609,91.586060 
	C129.048645,91.526169 129.040466,91.563858 129.447876,91.278107 
	C128.510529,89.679298 127.165771,88.366241 125.821022,87.053185 
	C126.273369,86.047859 126.725716,85.042534 127.754478,84.303986 
	C129.238098,84.392143 130.145325,84.213531 131.052536,84.034912 
z"/>
<path fill="#483F5F" opacity="1.000000" stroke="none" 
	d="
M125.621826,87.181335 
	C127.165771,88.366241 128.510529,89.679298 129.435410,91.270416 
	C127.890968,90.659714 126.766396,89.770958 125.297653,88.750328 
	C125.109863,88.182137 125.266243,87.745819 125.621826,87.181335 
z"/>
<path fill="#362D52" opacity="1.000000" stroke="none" 
	d="
M129.764191,91.945419 
	C130.050217,90.988304 130.590286,89.756180 131.529877,89.204559 
	C133.010361,88.335381 134.759430,87.923706 137.079010,87.163086 
	C138.511459,87.005630 139.259674,87.003441 140.007904,87.001251 
	C138.794434,91.272942 135.673431,92.280167 131.387848,91.942642 
	C130.774994,92.016113 130.486191,91.995850 129.764191,91.945419 
z"/>
<path fill="#362D52" opacity="1.000000" stroke="none" 
	d="
M154.542404,84.543793 
	C154.488144,84.578644 154.596664,84.508942 154.542404,84.543793 
z"/>
<path fill="#362D52" opacity="1.000000" stroke="none" 
	d="
M138.230240,84.979187 
	C137.784927,83.043457 137.339630,81.107719 136.637253,79.020920 
	C136.996536,78.253952 137.612885,77.638054 138.614929,77.010666 
	C139.515335,77.911476 140.030045,78.823769 140.791229,79.873856 
	C141.005234,81.394394 140.972763,82.777138 140.536728,84.574234 
	C139.498856,84.985451 138.864548,84.982315 138.230240,84.979187 
z"/>
<path fill="#483F5F" opacity="1.000000" stroke="none" 
	d="
M138.022491,85.196373 
	C138.864548,84.982315 139.498856,84.985451 140.450562,84.980309 
	C140.682770,85.541412 140.597595,86.110802 140.260162,86.840714 
	C139.259674,87.003441 138.511459,87.005630 137.389114,87.006882 
	C137.281586,86.475136 137.548157,85.944351 138.022491,85.196373 
z"/>
<path fill="#483F5F" opacity="1.000000" stroke="none" 
	d="
M130.797455,83.864792 
	C130.145325,84.213531 129.238098,84.392143 128.164429,84.286667 
	C128.846100,83.899940 129.694229,83.797302 130.797455,83.864792 
z"/>
<path fill="#483F5F" opacity="1.000000" stroke="none" 
	d="
M135.952454,79.055511 
	C135.773987,79.728447 135.266449,80.374977 134.424561,81.091591 
	C134.601273,80.450821 135.112335,79.739960 135.952454,79.055511 
z"/>
<path fill="#483F5F" opacity="1.000000" stroke="none" 
	d="
M133.589600,82.037125 
	C133.487030,82.681831 133.087784,83.376488 132.337158,83.969131 
	C132.421494,83.273766 132.857208,82.680420 133.589600,82.037125 
z"/>
</svg>