<svg version="1.1" id="Layer_1" xmlns="http://www.w3.org/2000/svg" xmlns:xlink="http://www.w3.org/1999/xlink" x="0px" y="0px"
	 width="100%" viewBox="0 0 787 259" enable-background="new 0 0 787 259" xml:space="preserve">
<path fill="#131A28" opacity="1.000000" stroke="none" 
	d="
M497.000000,260.000000 
	C331.372772,260.000000 166.245560,260.000000 1.059172,260.000000 
	C1.059172,173.726776 1.059172,87.453484 1.059172,1.090101 
	C263.210571,1.090101 525.421204,1.090101 787.815918,1.090101 
	C787.815918,87.333023 787.815918,173.666473 787.815918,260.000000 
	C691.120056,260.000000 594.310059,260.000000 497.000000,260.000000 
M281.005585,205.016281 
	C281.005585,205.016281 281.079285,205.045029 281.737061,204.920578 
	C282.489655,202.946686 283.242218,200.972794 283.890717,198.252914 
	C283.927521,197.501862 283.964355,196.750793 284.409607,195.651199 
	C283.959900,195.091599 283.510223,194.531998 282.447418,193.626129 
	C277.518433,190.159897 274.691040,193.909668 272.026306,196.969772 
	C267.294525,202.403625 266.892578,206.039154 270.135742,210.754272 
	C273.172272,213.103012 275.397949,212.271851 277.000000,209.000000 
	C277.000000,209.000000 277.003235,209.002335 277.743683,209.054016 
	C278.846222,207.729614 279.948761,206.405197 281.005585,205.016281 
M305.009155,197.640533 
	C304.141724,197.202713 303.274323,196.764893 302.184357,195.732971 
	C301.098602,195.765762 300.012878,195.798553 298.088379,196.035126 
	C297.308655,196.049515 296.528961,196.063919 295.893372,195.292404 
	C294.302704,191.888931 291.978333,192.163376 289.376129,194.024612 
	C289.215302,194.139664 289.272095,194.558960 289.183655,195.111496 
	C290.148895,195.611511 291.184540,196.147995 291.952789,196.545944 
	C290.568542,200.810242 289.235443,204.917053 287.832794,209.569595 
	C288.610413,209.406723 289.388031,209.243835 290.720642,208.722458 
	C293.135254,205.776733 295.549866,202.830994 298.894714,199.923767 
	C299.205048,199.926147 299.515411,199.928528 299.551117,200.676971 
	C299.163116,202.201004 298.775116,203.725021 297.966156,205.685043 
	C298.093536,206.700775 298.220917,207.716522 298.348297,208.732254 
	C298.929169,208.507492 299.510010,208.282730 300.589478,207.681824 
	C301.471344,206.278412 302.353241,204.875000 303.892639,203.125854 
	C305.092651,202.357376 306.292633,201.588882 307.247772,201.543259 
	C307.244446,202.048477 307.241089,202.553696 306.880371,203.561142 
	C307.097260,204.944550 307.314148,206.327942 307.754608,208.464020 
	C310.472198,210.947815 312.313446,209.258667 314.666504,206.936096 
	C314.868896,206.083359 315.071289,205.230637 315.273682,204.377899 
	C314.337280,204.803635 313.400909,205.229355 311.702881,205.808792 
	C311.050262,204.518539 310.397614,203.228302 310.091919,201.431549 
	C309.834930,200.089203 309.577911,198.746857 308.908356,196.769104 
	C307.830322,197.001587 306.752289,197.234085 305.009155,197.640533 
M688.612183,193.542023 
	C687.939270,193.942581 687.266418,194.343140 685.741455,195.286606 
	C685.959900,195.840973 686.178406,196.395355 686.311279,196.837967 
	C686.311279,196.837967 686.173523,196.866730 686.295654,195.870102 
	C685.014526,195.722733 683.733337,195.575378 682.511047,195.434784 
	C682.583496,188.985336 688.016479,183.883698 687.054443,177.620422 
	C686.292236,177.424088 685.530029,177.227737 684.767761,177.031403 
	C682.603027,183.373642 680.438293,189.715881 677.928406,196.666611 
	C677.828552,197.591156 677.728699,198.515701 677.145508,199.895203 
	C677.043945,200.971771 676.942383,202.048340 676.473022,203.707535 
	C676.387451,204.153946 676.301880,204.600372 675.774658,205.511551 
	C675.597290,209.883163 677.337402,212.003067 682.510864,210.803162 
	C683.010864,210.542587 683.510803,210.282013 684.710388,210.029770 
	C686.590637,208.084610 688.470947,206.139465 690.869568,203.761841 
	C691.665405,202.315430 692.744507,200.952377 693.199646,199.405716 
	C694.230896,195.901230 693.275269,193.552109 688.612183,193.542023 
M658.974792,198.150986 
	C657.747559,192.800949 654.534302,196.069412 652.059021,196.794846 
	C650.266785,191.772171 648.718079,191.407623 643.963135,194.918259 
	C645.345764,195.588455 646.580994,196.187195 647.810425,196.785858 
	C647.769592,201.438354 642.070129,204.808289 644.525696,211.140900 
	C647.356079,207.791977 649.474792,205.096161 651.821045,202.615677 
	C652.599365,201.792862 653.963013,201.523682 654.877136,201.698776 
	C654.565674,204.048904 654.254211,206.399017 653.942749,208.749146 
	C654.405334,208.857208 654.867920,208.965271 655.330566,209.073334 
	C657.511414,206.195938 659.692261,203.318527 661.664062,200.716919 
	C662.919250,204.058929 663.993469,206.919250 665.067688,209.779556 
	C666.828552,208.781708 668.589355,207.783844 670.350220,206.785995 
	C670.189392,206.484894 670.028625,206.183792 669.867798,205.882690 
	C668.318420,205.782516 666.769043,205.682358 665.049133,205.571152 
	C665.049133,202.669357 665.049133,200.045929 665.049133,196.271622 
	C662.740356,197.306747 660.998474,198.087708 658.974792,198.150986 
M719.066162,208.081482 
	C721.629944,211.837021 723.139587,209.817993 723.934875,207.363098 
	C722.756958,205.159927 722.135864,203.075851 721.752502,200.948944 
	C721.581726,200.001633 722.277954,198.779343 721.904419,198.010406 
	C720.945923,196.037735 719.975220,193.646591 718.282898,192.617249 
	C717.299805,192.019348 714.470093,193.280121 713.256165,194.491180 
	C710.930664,196.811218 708.809082,199.499603 707.246948,202.383957 
	C704.640869,207.195496 705.563110,209.484329 710.450073,211.553421 
	C713.187622,210.210526 715.925110,208.867630 719.066162,208.081482 
M178.690155,174.971420 
	C200.065781,156.345596 208.779541,132.646072 205.440414,104.837242 
	C202.487183,80.242149 189.615356,61.418949 169.063446,47.050278 
	C169.559601,45.300312 170.047394,43.547928 170.553406,41.800816 
	C172.391159,35.455421 171.674149,34.271099 164.996155,35.170452 
	C159.637314,35.892151 154.420258,37.666702 148.473938,38.607719 
	C133.553894,34.350491 118.666466,34.114861 103.076157,38.907146 
	C97.292984,37.615974 91.541008,36.152050 85.714729,35.099506 
	C82.311737,34.484745 80.680153,35.941624 81.907471,39.685329 
	C82.780670,42.348831 83.305305,45.126606 83.318924,48.083633 
	C81.884293,49.160130 80.450523,50.237778 79.014900,51.312950 
	C39.655640,80.790184 35.705864,137.362625 70.631210,171.923325 
	C71.886490,173.165512 73.524506,174.020920 74.940338,175.826462 
	C75.103195,179.557327 77.065681,181.404480 80.748924,182.031754 
	C84.213127,182.621704 88.041702,183.595535 87.891212,188.151413 
	C87.532433,199.012985 92.780739,207.053146 100.872917,213.198669 
	C111.411316,221.201935 122.787018,227.519897 136.679153,221.852936 
	C141.413544,219.921661 146.246918,217.727982 150.262253,214.647018 
	C157.995667,208.713165 164.960617,201.721207 164.885971,191.032578 
	C164.846619,185.397202 167.122940,182.818298 172.319534,181.878418 
	C175.969070,181.218369 178.453506,179.321854 178.690155,174.971420 
M369.986053,157.041107 
	C373.744568,157.041107 377.503082,157.041107 381.096252,157.041107 
	C381.096252,120.936226 381.096252,85.596107 381.096252,50.393345 
	C375.088287,50.393345 369.682861,50.393345 364.344910,50.393345 
	C364.344910,69.832825 364.344910,88.874809 364.344910,109.044991 
	C363.235138,106.727089 362.506409,105.331573 361.885834,103.889534 
	C354.653961,87.084488 347.478455,70.254898 340.145203,53.494289 
	C339.534485,52.098450 337.978760,50.294769 336.706635,50.161221 
	C332.632812,49.733536 328.485840,50.002354 324.180267,50.002354 
	C324.180267,85.901917 324.180267,121.258850 324.180267,156.717560 
	C330.175659,156.717560 335.745789,156.717560 341.388489,156.717560 
	C341.388489,138.732315 341.388489,121.070168 341.388489,102.401207 
	C342.528778,104.590469 343.304657,105.961311 343.973511,107.382515 
	C351.127197,122.582611 358.220612,137.811417 365.469971,152.965622 
	C366.223907,154.541702 367.875336,155.688446 369.986053,157.041107 
M505.115509,103.500061 
	C505.115509,121.237633 505.115509,138.975204 505.115509,156.753815 
	C511.648224,156.753815 517.405762,156.753815 523.698364,156.753815 
	C523.698364,141.419601 523.698364,126.365181 523.698364,111.264160 
	C531.613831,111.264160 538.984009,111.264160 546.956299,111.264160 
	C546.956299,126.653320 546.956299,141.692612 546.956299,156.784637 
	C553.337280,156.784637 559.104614,156.784637 564.929443,156.784637 
	C564.929443,121.164146 564.929443,85.807106 564.929443,50.268913 
	C558.661438,50.268913 552.921387,50.268913 546.623657,50.268913 
	C546.623657,64.267181 546.623657,78.002480 546.623657,91.778519 
	C538.685852,91.778519 531.313965,91.778519 523.628357,91.778519 
	C523.628357,77.776749 523.628357,64.171310 523.628357,50.325394 
	C517.433655,50.325394 511.566528,50.325394 505.118469,50.325394 
	C505.118469,67.934563 505.118469,85.217300 505.115509,103.500061 
M585.371399,145.067886 
	C594.417664,157.101501 606.786987,161.544052 619.433289,157.301575 
	C632.061951,153.065002 640.270447,141.204025 640.298035,126.929825 
	C640.328613,111.112259 640.332825,95.293709 640.190125,79.477005 
	C640.032715,62.025154 626.825012,48.482483 610.223877,48.541729 
	C593.591309,48.601082 580.418457,62.084911 580.221069,79.497704 
	C580.041687,95.313889 579.648621,111.149963 580.267151,126.941330 
	C580.497864,132.833588 583.324890,138.624161 585.371399,145.067886 
M248.644958,135.673630 
	C252.483154,147.546661 260.119446,155.639359 272.592438,157.869492 
	C291.426544,161.236969 307.765717,146.993271 307.861542,127.217766 
	C307.978546,103.073914 307.719025,78.928185 307.602295,54.783367 
	C307.595245,53.323608 307.411774,51.864700 307.309296,50.389511 
	C301.070374,50.389511 295.197906,50.389511 289.082336,50.389511 
	C289.082336,52.596130 289.082520,54.413540 289.082306,56.230953 
	C289.079376,79.876518 289.140747,103.522369 289.035370,127.167473 
	C289.002625,134.512604 283.973938,139.826202 277.613678,139.798523 
	C271.482574,139.771835 266.678345,134.624664 266.235718,127.554008 
	C266.142242,126.060699 266.194855,124.557693 266.194733,123.059158 
	C266.192780,100.579216 266.193268,78.099266 266.193207,55.619320 
	C266.193207,53.861004 266.193207,52.102684 266.193207,50.318962 
	C259.743561,50.318962 254.006973,50.318962 248.078400,50.318962 
	C247.981934,51.924896 247.842056,53.226498 247.834671,54.528858 
	C247.700790,78.174034 247.546951,101.819244 247.504593,125.464630 
	C247.498962,128.606171 248.076904,131.748779 248.644958,135.673630 
M469.197418,121.426964 
	C473.013000,125.424141 472.799622,129.818665 470.241852,134.267609 
	C467.690125,138.706116 463.127319,140.862518 458.405853,139.831787 
	C453.287964,138.714508 450.350464,135.195770 449.443024,130.222900 
	C448.859131,127.023384 448.976410,123.695923 448.767426,120.226913 
	C442.655273,120.226913 436.895508,120.226913 430.689789,120.226913 
	C430.689789,123.691116 430.508606,126.999306 430.721130,130.282013 
	C431.646332,144.572830 442.579041,156.441284 456.632111,158.560928 
	C470.028595,160.581512 483.817841,152.250656 488.759796,139.150711 
	C494.060364,125.100136 489.649506,112.014145 476.504730,103.689110 
	C471.450531,100.488129 466.000427,97.918793 460.825653,94.898979 
	C458.109772,93.314079 455.324615,91.669846 453.054321,89.537514 
	C448.695038,85.443085 447.885742,77.997940 450.816467,72.910126 
	C453.399017,68.426750 458.367828,66.159508 463.103210,67.303764 
	C468.840851,68.690193 471.837799,73.180321 471.942169,80.650482 
	C471.992676,84.264374 471.950897,87.879539 471.950897,91.601768 
	C478.544891,91.601768 484.413330,91.601768 490.295746,91.601768 
	C490.295746,85.926575 490.800659,80.568947 490.196381,75.339493 
	C488.681183,62.226761 478.692352,51.737804 466.054932,49.292221 
	C453.826508,46.925781 441.236816,52.820244 434.607880,64.015587 
	C425.972443,78.599739 431.489319,98.650864 446.773346,107.940659 
	C454.020111,112.345299 461.364044,116.590034 469.197418,121.426964 
M707.893494,107.362228 
	C717.019775,96.248779 718.508362,83.556252 714.927856,70.168938 
	C712.331726,60.461948 705.901489,52.962929 696.015381,51.566193 
	C682.991699,49.726189 669.661255,50.057983 656.066772,49.437965 
	C656.066772,85.891472 656.066772,121.098770 656.066772,156.624237 
	C662.150330,156.624237 668.038818,156.624237 674.413452,156.624237 
	C674.413452,143.653931 674.413452,130.906662 674.413452,117.539192 
	C686.773804,118.022728 698.698914,118.029747 707.893494,107.362228 
M398.670532,139.498337 
	C398.670532,145.114716 398.670532,150.731094 398.670532,156.449799 
	C405.138123,156.449799 411.020416,156.449799 416.822968,156.449799 
	C416.822968,120.844162 416.822968,85.604805 416.822968,50.299660 
	C410.643097,50.299660 404.903381,50.299660 398.672394,50.299660 
	C398.672394,79.894470 398.672394,109.196724 398.670532,139.498337 
M456.534149,204.742371 
	C456.576965,212.320129 461.249939,210.141983 465.238007,208.881165 
	C466.306793,210.017685 467.233459,211.003036 468.513458,212.364151 
	C469.613770,208.395386 470.350403,205.039841 471.478333,201.821442 
	C473.568207,195.858124 475.975037,190.005676 478.054321,184.038910 
	C478.646881,182.338425 478.564636,180.402771 478.791840,178.574951 
	C478.077911,178.401108 477.363983,178.227280 476.650055,178.053452 
	C475.084778,181.936447 473.642395,185.876312 471.886353,189.671051 
	C471.284973,190.970718 469.911316,192.844009 468.867645,192.858917 
	C461.353271,192.966324 458.593628,197.953461 456.534149,204.742371 
M328.390930,205.970383 
	C332.266846,204.036362 336.270172,201.562714 334.938934,196.733566 
	C334.360413,194.634888 330.604797,193.412018 328.292175,191.791382 
	C328.058075,192.117966 327.824005,192.444565 327.589905,192.771164 
	C327.085388,191.569946 326.580902,190.368729 326.076385,189.167496 
	C325.562744,189.140182 325.049103,189.112885 324.535461,189.085571 
	C320.546692,200.047409 315.344910,210.646545 315.417603,222.863754 
	C317.434814,220.351730 318.780457,217.560425 319.337982,214.619690 
	C320.255035,209.782776 322.105316,206.266068 328.390930,205.970383 
M581.816101,197.116562 
	C580.958557,195.371521 580.493469,192.695877 579.140625,192.125427 
	C577.575684,191.465500 574.149658,191.988693 573.417908,193.168304 
	C570.880493,197.258835 568.622742,201.719666 567.444580,206.341934 
	C567.069214,207.814651 570.086487,211.451050 572.083740,211.945068 
	C575.663574,212.830566 578.784241,210.867538 579.845093,206.773193 
	C578.412048,206.648315 577.315613,207.196411 576.154480,207.467422 
	C574.530518,207.846451 572.858276,208.018890 571.206726,208.279724 
	C571.069763,206.500885 570.932861,204.722031 570.752136,202.374741 
	C576.556458,204.221313 579.756348,202.384201 581.816101,197.116562 
M371.533630,210.091080 
	C372.682281,209.221512 373.830933,208.351944 374.979584,207.482376 
	C374.367584,207.331833 373.755585,207.181305 373.143616,207.030762 
	C372.665100,205.100327 372.024811,203.192078 371.756012,201.232864 
	C371.512909,199.460709 372.067352,197.517746 371.578217,195.853424 
	C370.537201,192.311142 366.889069,190.773026 364.786835,193.282928 
	C361.581177,197.110168 359.129059,201.623688 356.779419,206.069092 
	C356.273102,207.027069 357.183807,209.783463 358.117676,210.201462 
	C359.441071,210.793839 361.626526,210.418045 363.014954,209.665375 
	C364.756073,208.721512 366.063354,206.977371 367.563873,205.573044 
	C368.863617,207.333984 369.825714,208.637451 371.533630,210.091080 
M419.490326,209.796951 
	C424.619995,212.304077 427.907257,210.927429 428.488068,206.587845 
	C426.179504,206.726089 423.738647,207.085129 421.379150,206.791245 
	C421.011871,206.745499 421.015717,203.719788 420.825592,201.852386 
	C422.906311,201.960266 424.532104,202.553772 425.451996,201.991821 
	C427.739136,200.594666 429.924652,198.856613 431.639954,196.824158 
	C432.054474,196.333008 430.577728,193.044464 429.815094,192.983307 
	C427.396423,192.789444 424.431427,192.785461 422.530182,194.020477 
	C417.118134,197.535965 415.980011,203.599411 419.490326,209.796951 
M254.356766,194.805054 
	C252.979919,197.622971 251.068649,200.322159 250.407242,203.299011 
	C249.937897,205.411469 250.489487,209.290054 251.771378,209.903961 
	C253.875473,210.911652 257.208252,210.543900 259.526520,209.572052 
	C261.744171,208.642395 263.329163,206.203476 265.192230,204.427933 
	C264.809998,204.038330 264.427795,203.648712 264.045563,203.259109 
	C260.862549,204.849594 257.679535,206.440094 254.072510,208.242462 
	C253.899384,201.078629 255.745728,197.578964 260.323608,195.393097 
	C260.618103,196.778244 260.907593,198.139816 261.197083,199.501404 
	C261.770782,199.596832 262.344482,199.692245 262.918182,199.787674 
	C263.321411,197.777435 264.654907,195.214676 263.877441,193.905670 
	C263.026611,192.473099 260.258148,191.746902 258.260803,191.601746 
	C257.186676,191.523666 255.977173,193.308594 254.356766,194.805054 
M485.119476,203.209976 
	C487.172180,201.765625 489.871094,200.713196 491.063507,198.747070 
	C491.942352,197.297958 491.602936,193.722519 490.443665,192.791702 
	C489.127563,191.734985 485.664642,191.702347 484.234772,192.739960 
	C479.564453,196.129135 477.305725,201.183563 477.542206,206.988968 
	C477.670593,210.141403 479.566803,212.201950 483.031738,212.207535 
	C486.782227,212.213608 489.536926,209.852570 489.790771,205.792404 
	C487.931549,206.788559 486.462646,207.844055 484.823914,208.358261 
	C483.749390,208.695450 481.651245,208.631027 481.379700,208.076508 
	C480.798492,206.889618 480.789124,205.167496 481.201630,203.873749 
	C481.368530,203.350281 483.249695,203.373398 485.119476,203.209976 
M634.046692,209.244781 
	C638.788452,210.783508 639.513794,210.443527 640.383850,206.045776 
	C638.788147,206.336838 637.276428,206.612579 634.915833,207.043137 
	C635.348328,204.425354 636.248657,202.284348 635.881042,200.389389 
	C635.388000,197.848450 634.372620,195.029861 632.619568,193.312469 
	C631.982788,192.688675 628.169556,194.438416 626.545898,195.917694 
	C624.649109,197.645844 623.102722,200.104187 622.263184,202.541565 
	C621.548279,204.616943 622.051270,207.111816 622.015564,209.421127 
	C624.299683,209.075882 626.915344,209.306290 628.779663,208.232269 
	C630.871948,207.026917 632.155334,206.299194 634.046692,209.244781 
M539.902161,201.176819 
	C540.532715,202.239517 541.508850,203.237732 541.721741,204.378403 
	C542.161804,206.735306 541.789551,209.492249 545.893799,209.277451 
	C545.387878,205.493484 545.859924,201.423874 544.231873,198.539673 
	C541.438721,193.591324 538.130920,199.355408 535.463318,199.392273 
	C534.841248,196.946426 534.298096,194.810989 533.755005,192.675568 
	C533.235962,192.763687 532.716980,192.851807 532.197937,192.939926 
	C530.622192,196.747314 528.848511,200.490753 527.585815,204.399277 
	C527.182312,205.648300 528.132935,207.334793 528.464050,208.821121 
	C529.539612,208.291580 530.707703,207.892365 531.672791,207.207230 
	C534.244507,205.381577 536.728760,203.432846 539.902161,201.176819 
M452.043915,201.986603 
	C451.671082,199.806366 451.298218,197.626114 450.925385,195.445862 
	C448.226959,196.011215 445.528564,196.576584 442.786835,197.151016 
	C442.311859,195.888290 441.731537,194.345596 441.151245,192.802917 
	C438.655182,196.512085 437.153778,200.123764 436.010956,203.845566 
	C435.707092,204.835068 436.503571,206.162460 436.794830,207.334702 
	C437.793518,206.959381 438.969666,206.804337 439.758667,206.168732 
	C442.459106,203.993271 445.023621,201.649063 448.152618,198.922531 
	C449.132111,203.638367 445.494843,208.070984 450.442444,211.214661 
	C450.996857,207.975342 451.441254,205.378693 452.043915,201.986603 
M561.810974,209.113647 
	C561.793640,208.790970 561.796936,208.464523 561.739197,208.149231 
	C561.729431,208.095490 561.449585,208.041458 561.310059,208.068314 
	C556.185608,209.054565 555.082214,207.939743 556.048767,203.145218 
	C557.058228,198.137817 558.351746,193.664673 565.033264,194.864914 
	C565.343262,194.920578 565.763672,194.361084 567.071716,193.393341 
	C564.425110,192.547684 562.520752,191.939163 560.494507,191.291733 
	C560.822510,190.435562 561.236816,189.832275 561.250122,189.220245 
	C561.278503,187.914673 561.099060,186.604599 561.004700,185.296402 
	C559.965454,186.148026 558.815979,186.897156 557.909424,187.872223 
	C555.911682,190.021164 554.036499,192.284058 552.575256,193.966293 
	C552.703918,196.411713 552.874573,198.628372 552.916992,200.847504 
	C552.942322,202.173462 552.459900,203.574341 552.747620,204.815994 
	C553.283813,207.130081 553.605835,210.246536 555.181641,211.320831 
	C556.370056,212.131042 559.374023,210.278214 561.810974,209.113647 
M609.496704,197.896225 
	C610.607117,196.921432 611.717529,195.946655 613.128296,194.708176 
	C613.662415,196.870224 613.986145,198.180923 614.441895,200.025925 
	C617.586487,198.027679 618.420776,195.818115 616.643860,193.156845 
	C614.814819,190.417480 611.920288,190.119995 609.863525,192.425430 
	C607.392761,195.195007 604.962402,198.415237 603.878296,201.868469 
	C603.092163,204.372665 604.523743,207.573090 604.966431,210.463074 
	C608.049622,209.891922 611.250305,209.648773 614.164307,208.605179 
	C615.532166,208.115326 616.347839,206.083511 617.413696,204.750488 
	C617.154724,204.399353 616.895752,204.048233 616.636780,203.697098 
	C613.549377,205.135086 610.462036,206.573059 607.374634,208.011032 
	C606.971375,207.592148 606.568054,207.173264 606.164795,206.754379 
	C607.128967,204.038483 608.093140,201.322586 609.496704,197.896225 
M593.597534,201.051758 
	C596.120178,199.339249 598.642822,197.626724 601.165466,195.914215 
	C601.020752,195.374008 600.876038,194.833817 600.731323,194.293610 
	C598.176941,194.754807 595.622559,195.216003 592.874695,195.712128 
	C592.583679,194.464615 592.215576,192.886505 591.794434,191.081100 
	C588.340454,193.507431 583.202332,206.794693 584.290955,209.721222 
	C584.483337,210.238403 585.318115,211.018326 585.563477,210.923050 
	C586.409058,210.594696 587.339844,210.085876 587.851685,209.369629 
	C589.671082,206.823517 591.330994,204.163406 593.597534,201.051758 
M342.078491,207.711456 
	C343.375305,200.933853 349.462891,198.780975 354.471954,195.586975 
	C354.246796,195.177704 354.021667,194.768417 353.796509,194.359146 
	C350.678833,195.415344 347.561157,196.471542 344.274109,197.585129 
	C344.824554,195.226105 345.255432,193.379517 345.686310,191.532928 
	C345.066193,191.354385 344.446075,191.175842 343.825958,190.997299 
	C340.789520,196.232880 338.711670,201.866425 338.126495,208.014160 
	C338.045471,208.865463 339.141327,209.828796 339.692352,210.740280 
	C340.427307,209.974762 341.162262,209.209244 342.078491,207.711456 
M407.623505,203.288177 
	C406.765198,202.155792 405.632904,201.136307 405.109467,199.865952 
	C404.205109,197.671066 403.678741,195.320465 402.993805,193.035187 
	C402.133942,193.287064 401.274078,193.538940 400.414215,193.790817 
	C401.639801,198.987640 402.865417,204.184448 404.327271,210.383041 
	C410.662720,205.629440 414.132599,201.073288 416.148804,195.506363 
	C415.646423,195.127197 415.144073,194.748047 414.641693,194.368896 
	C412.469299,197.157242 410.296936,199.945572 407.623505,203.288177 
M521.462708,205.247513 
	C521.837463,204.150558 522.437866,203.073563 522.536987,201.952225 
	C522.709778,199.998093 522.573608,198.016678 522.566956,196.046677 
	C521.406006,197.509247 519.991333,198.841263 519.153259,200.469940 
	C518.258484,202.208740 517.654602,204.194641 517.401917,206.134964 
	C517.207031,207.632278 517.750977,209.225800 517.966370,210.776535 
	C518.481140,210.797501 518.995850,210.818451 519.510620,210.839417 
	C520.089783,209.220612 520.668945,207.601807 521.462708,205.247513 
M698.589050,200.057281 
	C697.707642,203.554382 695.142761,207.003403 698.224670,210.668961 
	C699.879456,205.833496 703.615112,201.457535 702.305237,196.125885 
	C701.700867,195.950226 701.096436,195.774582 700.492065,195.598923 
	C699.924927,196.850586 699.357727,198.102234 698.589050,200.057281 
M373.944611,214.574402 
	C375.469025,214.378128 377.565247,214.740601 378.407990,213.878204 
	C380.705109,211.527527 381.451294,208.591583 379.324677,204.262039 
	C378.255829,207.038879 377.835663,208.620972 377.061646,210.005173 
	C376.266968,211.426208 375.126526,212.653839 373.944611,214.574402 
M491.463867,213.839340 
	C492.076508,214.460602 492.799988,215.693985 493.284271,215.606293 
	C497.163086,214.904037 498.909149,208.991135 496.391541,205.811859 
	C494.888489,208.260635 493.364990,210.742676 491.463867,213.839340 
z"/>
<path fill="#372D53" opacity="1.000000" stroke="none" 
	d="
M83.985504,47.853382 
	C83.305305,45.126606 82.780670,42.348831 81.907471,39.685329 
	C80.680153,35.941624 82.311737,34.484745 85.714729,35.099506 
	C91.541008,36.152050 97.292984,37.615974 103.647293,39.228981 
	C107.920952,43.021038 111.806198,44.091362 117.194855,43.139694 
	C123.433296,42.037949 130.182571,42.066414 136.414108,43.212898 
	C141.987900,44.238369 145.596115,42.473312 149.140289,38.974045 
	C154.420258,37.666702 159.637314,35.892151 164.996155,35.170452 
	C171.674149,34.271099 172.391159,35.455421 170.553406,41.800816 
	C170.047394,43.547928 169.559601,45.300312 168.746979,47.611603 
	C166.664429,50.339020 165.103424,52.725399 163.077072,54.611961 
	C160.855484,56.680302 161.234665,58.405628 162.011154,61.105453 
	C163.418716,65.999420 168.491302,65.857895 171.034927,69.177292 
	C169.455276,69.584755 167.936264,69.702095 165.203415,69.913193 
	C166.834686,71.319672 167.829239,72.177170 168.959808,73.353668 
	C174.927032,80.986443 178.361786,89.152611 178.456268,98.985855 
	C176.448166,98.151001 174.950317,97.528282 172.840607,96.651199 
	C175.654541,103.837570 178.142670,110.191895 180.947174,117.354240 
	C183.822647,107.992439 183.506226,99.516335 182.248688,90.883186 
	C183.003250,90.505287 183.500504,90.241676 184.125397,90.379021 
	C186.067108,103.188736 186.310059,115.821022 182.410568,127.618111 
	C178.168304,140.452148 171.939224,152.646988 166.294571,164.991623 
	C163.897568,170.233765 164.088898,171.039093 169.774719,171.122604 
	C173.159348,171.172318 176.563919,171.080109 178.009552,175.099838 
	C178.453506,179.321854 175.969070,181.218369 172.319534,181.878418 
	C167.122940,182.818298 164.846619,185.397202 164.885971,191.032578 
	C164.960617,201.721207 157.995667,208.713165 150.262253,214.647018 
	C146.246918,217.727982 141.413544,219.921661 136.679153,221.852936 
	C122.787018,227.519897 111.411316,221.201935 100.872917,213.198669 
	C92.780739,207.053146 87.532433,199.012985 87.891212,188.151413 
	C88.041702,183.595535 84.213127,182.621704 80.748924,182.031754 
	C77.065681,181.404480 75.103195,179.557327 75.054214,175.081207 
	C77.609932,173.268433 80.008507,172.081772 82.508362,171.173996 
	C84.262917,170.536850 86.155510,170.279816 87.986450,169.853027 
	C87.314697,168.060989 86.902679,166.112289 85.930870,164.501251 
	C76.553917,148.956299 69.175797,132.530182 67.517250,114.339607 
	C65.717224,94.597290 67.467766,75.853607 88.059669,64.934258 
	C90.089958,63.857639 91.811295,58.912693 91.052521,56.638569 
	C89.937355,53.296272 86.457787,50.742870 83.985504,47.853382 
M154.008499,59.114590 
	C154.009079,58.444901 154.009659,57.775208 154.641769,56.817623 
	C161.286621,53.283302 165.679855,48.109802 166.488907,39.644081 
	C161.565918,40.466209 156.467911,41.143501 152.511963,43.634495 
	C148.121246,46.399265 144.413391,50.521427 141.047775,54.582611 
	C134.660049,62.290527 127.869637,67.816223 117.132172,61.796677 
	C119.112305,69.979721 121.368721,73.222351 126.300728,75.180603 
	C126.187836,77.423645 126.071175,79.741653 125.924820,82.655441 
	C126.498711,83.157814 127.072594,83.660187 127.699188,84.915550 
	C127.554871,86.921181 127.410553,88.926819 126.798538,91.229553 
	C127.202988,92.156471 127.607437,93.083382 127.630531,94.589081 
	C126.416985,95.281158 125.203430,95.973236 123.989876,96.665321 
	C123.980209,97.129692 123.970543,97.594063 123.960869,98.058434 
	C125.484940,98.058434 127.992111,98.631882 128.379013,97.968575 
	C131.762161,92.168549 136.350403,91.670639 141.953445,94.134338 
	C142.557816,94.400070 143.380096,94.170158 143.663834,94.170158 
	C141.997284,92.272026 140.309204,90.349373 138.839783,88.179161 
	C138.839783,88.179161 139.059250,87.932304 139.807220,87.968552 
	C142.117172,88.874367 144.363174,90.028984 146.748367,90.642052 
	C156.071228,93.038315 163.596313,88.043701 163.727890,79.343964 
	C163.760880,77.162674 163.000885,74.969383 162.605331,72.781609 
	C162.343460,72.750832 162.081573,72.720055 161.819702,72.689278 
	C161.192108,75.454895 160.564514,78.220520 159.078949,80.965141 
	C158.508759,80.914658 157.938553,80.864182 157.612411,80.018837 
	C157.453491,74.989014 157.294571,69.959183 157.160980,64.187721 
	C156.114471,62.719875 155.067978,61.252026 154.008499,59.114590 
M159.340912,132.320709 
	C157.815979,131.605026 156.291031,130.889343 154.766098,130.173660 
	C161.917969,128.156708 164.030121,125.791840 163.923615,119.791115 
	C161.751465,119.596909 159.571442,119.401993 157.391403,119.207077 
	C162.788361,115.682320 164.582550,112.204575 164.087341,105.503700 
	C158.966873,107.831390 158.917419,107.824562 156.529846,104.460320 
	C162.901550,102.081703 165.871582,96.231148 163.679733,89.887772 
	C158.637985,94.717278 151.169983,95.156479 146.294647,100.700768 
	C144.482788,102.761230 139.544601,102.062401 136.036102,102.646004 
	C134.597107,102.885361 132.882126,102.778854 131.791153,103.542152 
	C128.913712,105.555367 126.309212,107.958710 123.587708,110.213615 
	C126.795929,114.029984 128.088028,113.839798 135.400833,107.776688 
	C139.908432,112.102020 144.684967,112.365555 149.506180,107.373955 
	C149.683594,114.780304 146.192337,116.933090 139.500290,115.848656 
	C133.435959,119.059547 128.765640,121.532349 124.217903,123.940254 
	C127.789635,128.334503 130.244736,128.199417 138.885574,122.481369 
	C141.825912,126.476746 145.468384,126.934380 149.546402,123.740387 
	C149.778534,128.867065 147.347931,131.329041 142.967834,130.940308 
	C141.732895,130.830704 140.338394,130.593628 139.256134,131.020767 
	C134.465607,132.911438 129.762177,135.022766 125.039734,137.048859 
	C128.009842,139.897247 131.832733,139.122772 135.844315,137.537964 
	C137.254166,136.980988 138.891312,136.501450 140.347778,136.666245 
	C143.198898,136.988800 145.995972,137.789062 149.268478,138.488419 
	C148.858810,141.072128 146.539795,143.385422 143.758881,142.691925 
	C137.076492,141.025528 133.951782,147.428284 128.483154,148.385056 
	C131.196899,148.822418 133.715637,148.425339 136.247375,148.145615 
	C137.474686,148.010010 139.138046,147.570572 139.897507,148.167526 
	C143.723007,151.174469 146.669342,149.903534 149.336929,146.388916 
	C153.243759,148.811523 156.316635,148.339661 158.605713,144.307404 
	C156.770462,143.556671 155.182724,142.907166 154.421494,142.595764 
	C157.042313,139.611969 159.367676,137.048721 161.519623,134.347351 
	C161.683624,134.141464 160.619293,132.957092 159.340912,132.320709 
M138.410950,46.920158 
	C132.730621,44.632374 127.016754,44.313221 120.176514,46.621391 
	C124.559715,47.840897 127.948906,48.783852 132.810806,50.136547 
	C129.429520,52.463982 127.360214,53.888344 125.240669,55.347286 
	C130.771225,57.947292 136.230133,54.764503 138.410950,46.920158 
M141.327103,160.726974 
	C142.783493,159.793579 144.262421,158.893158 145.689758,157.917297 
	C147.062088,156.979126 148.381042,155.962860 150.516037,154.401138 
	C142.537094,154.007645 135.738037,152.947556 130.177338,158.673080 
	C132.216675,159.254196 134.135483,159.800949 136.491333,160.472244 
	C134.860733,162.349594 133.616318,163.782303 132.371918,165.215012 
	C132.707153,165.672226 133.042389,166.129456 133.377625,166.586685 
	C135.888229,164.836761 138.398819,163.086838 141.327103,160.726974 
M106.870811,76.946220 
	C109.866165,76.094696 112.861519,75.243172 115.856873,74.391647 
	C115.814903,73.734352 115.772942,73.077057 115.730972,72.419762 
	C114.693275,72.192841 113.380783,71.450302 112.666801,71.830803 
	C109.983292,73.260910 107.786285,74.075638 106.603447,70.178719 
	C106.541069,69.973206 105.211800,70.152222 104.227104,70.152222 
	C103.849335,68.987656 103.338539,67.413025 102.707214,65.466820 
	C99.358246,70.668533 100.396950,73.664986 106.870811,76.946220 
M173.141830,121.436638 
	C173.909637,125.684715 174.677444,129.932785 175.634506,135.227966 
	C180.149063,128.805756 179.211288,122.318787 173.113052,114.007896 
	C173.113052,116.796333 173.113052,118.677979 173.141830,121.436638 
M108.147766,83.859612 
	C109.044250,83.158752 109.940735,82.457893 111.311195,81.386475 
	C107.470558,81.118225 104.203743,81.649132 101.720406,80.494690 
	C99.418938,79.424797 97.954964,76.553345 95.639267,73.927597 
	C94.448097,82.116638 99.756836,86.097862 108.147766,83.859612 
M144.788742,208.993073 
	C143.857071,210.407166 142.925400,211.821259 141.674286,213.720230 
	C149.624191,211.704117 152.349426,204.040451 148.679886,195.909470 
	C147.490463,200.068954 146.311981,204.190140 144.788742,208.993073 
M97.888344,42.838867 
	C94.440910,41.640461 90.993477,40.442059 87.546043,39.243652 
	C87.180496,40.019970 86.814941,40.796288 86.449387,41.572605 
	C90.133041,44.155785 93.816689,46.738964 98.629425,50.113918 
	C98.629425,46.812084 98.629425,44.980431 97.888344,42.838867 
M131.617111,213.937927 
	C130.621475,215.714432 129.625839,217.490921 128.307571,219.843063 
	C134.830093,217.849899 137.672516,210.480057 134.755585,203.378265 
	C133.687561,207.132965 132.820053,210.182800 131.617111,213.937927 
M170.174011,152.566772 
	C171.125427,149.022308 172.076828,145.477829 173.028229,141.933365 
	C172.392044,141.776138 171.755875,141.618912 171.119690,141.461685 
	C169.607834,146.066391 168.095963,150.671097 166.584091,155.275803 
	C167.031723,155.460052 167.479370,155.644302 167.927002,155.828537 
	C168.567337,154.966995 169.207672,154.105438 170.174011,152.566772 
M147.533783,169.789062 
	C148.778397,172.280136 150.023010,174.771210 151.254776,177.269745 
	C153.488052,173.623032 153.662735,170.575806 151.766281,168.346924 
	C149.932053,166.191223 148.551147,166.413300 147.533783,169.789062 
M120.087395,173.963348 
	C119.270073,174.208633 118.452744,174.453918 117.635422,174.699203 
	C117.688164,174.965790 117.740906,175.232391 117.793648,175.498993 
	C123.675812,175.498993 129.557983,175.498993 135.440155,175.498993 
	C135.449585,174.984772 135.459015,174.470566 135.468445,173.956345 
	C130.634430,173.956345 125.800407,173.956345 120.087395,173.963348 
M140.490570,172.291916 
	C141.237320,174.508652 141.984070,176.725403 142.730804,178.942139 
	C143.387299,178.854385 144.043793,178.766617 144.700287,178.678848 
	C144.700287,176.277985 145.266876,173.687180 144.543350,171.528854 
	C143.797318,169.303329 141.813080,168.570572 140.490570,172.291916 
M100.550598,174.197800 
	C101.254662,175.676941 101.958717,177.156097 102.662781,178.635239 
	C103.321548,178.487701 103.980324,178.340179 104.639091,178.192642 
	C104.309891,175.301117 103.980690,172.409607 103.651474,169.518082 
	C102.593803,170.839264 101.536140,172.160461 100.550598,174.197800 
M159.394409,195.236359 
	C159.467026,194.291626 159.539642,193.346909 159.612259,192.402176 
	C159.208252,192.333679 158.804230,192.265198 158.400208,192.196701 
	C157.005859,196.213272 155.611511,200.229843 153.872070,205.240479 
	C158.434677,202.773956 159.151016,199.559479 159.394409,195.236359 
M108.078712,123.370575 
	C111.566925,125.377953 114.071266,124.419357 115.881905,121.219482 
	C112.610062,120.771553 109.559776,120.353958 106.011292,119.868156 
	C106.504768,120.849442 107.022751,121.879456 108.078712,123.370575 
M105.547478,106.629372 
	C107.351509,108.021179 108.990044,109.887810 111.031212,110.599236 
	C112.013382,110.941566 113.755058,109.104790 115.285156,108.174301 
	C111.330544,107.291908 108.448364,106.648804 105.547478,106.629372 
M116.018265,135.835922 
	C116.585999,134.847046 117.153725,133.858170 117.681511,132.938873 
	C114.260582,133.258957 111.384880,133.528030 108.123734,133.833176 
	C110.169373,136.504486 112.272278,137.851242 116.018265,135.835922 
M79.418053,174.150986 
	C79.299324,174.654282 79.180595,175.157562 79.061859,175.660858 
	C82.777618,175.660858 86.493378,175.660858 90.209137,175.660858 
	C90.209190,175.106705 90.209236,174.552567 90.209290,173.998413 
	C86.879745,173.998413 83.550209,173.998413 79.418053,174.150986 
z"/>
<path fill="#FAFAFA" opacity="1.000000" stroke="none" 
	d="
M369.548218,157.037750 
	C367.875336,155.688446 366.223907,154.541702 365.469971,152.965622 
	C358.220612,137.811417 351.127197,122.582611 343.973511,107.382515 
	C343.304657,105.961311 342.528778,104.590469 341.388489,102.401207 
	C341.388489,121.070168 341.388489,138.732315 341.388489,156.717560 
	C335.745789,156.717560 330.175659,156.717560 324.180267,156.717560 
	C324.180267,121.258850 324.180267,85.901917 324.180267,50.002354 
	C328.485840,50.002354 332.632812,49.733536 336.706635,50.161221 
	C337.978760,50.294769 339.534485,52.098450 340.145203,53.494289 
	C347.478455,70.254898 354.653961,87.084488 361.885834,103.889534 
	C362.506409,105.331573 363.235138,106.727089 364.344910,109.044991 
	C364.344910,88.874809 364.344910,69.832825 364.344910,50.393345 
	C369.682861,50.393345 375.088287,50.393345 381.096252,50.393345 
	C381.096252,85.596107 381.096252,120.936226 381.096252,157.041107 
	C377.503082,157.041107 373.744568,157.041107 369.548218,157.037750 
z"/>
<path fill="#F9F9F9" opacity="1.000000" stroke="none" 
	d="
M505.117004,103.000053 
	C505.118469,85.217300 505.118469,67.934563 505.118469,50.325394 
	C511.566528,50.325394 517.433655,50.325394 523.628357,50.325394 
	C523.628357,64.171310 523.628357,77.776749 523.628357,91.778519 
	C531.313965,91.778519 538.685852,91.778519 546.623657,91.778519 
	C546.623657,78.002480 546.623657,64.267181 546.623657,50.268913 
	C552.921387,50.268913 558.661438,50.268913 564.929443,50.268913 
	C564.929443,85.807106 564.929443,121.164146 564.929443,156.784637 
	C559.104614,156.784637 553.337280,156.784637 546.956299,156.784637 
	C546.956299,141.692612 546.956299,126.653320 546.956299,111.264160 
	C538.984009,111.264160 531.613831,111.264160 523.698364,111.264160 
	C523.698364,126.365181 523.698364,141.419601 523.698364,156.753815 
	C517.405762,156.753815 511.648224,156.753815 505.115509,156.753815 
	C505.115509,138.975204 505.115509,121.237633 505.117004,103.000053 
z"/>
<path fill="#F9F9FA" opacity="1.000000" stroke="none" 
	d="
M585.169739,144.764496 
	C583.324890,138.624161 580.497864,132.833588 580.267151,126.941330 
	C579.648621,111.149963 580.041687,95.313889 580.221069,79.497704 
	C580.418457,62.084911 593.591309,48.601082 610.223877,48.541729 
	C626.825012,48.482483 640.032715,62.025154 640.190125,79.477005 
	C640.332825,95.293709 640.328613,111.112259 640.298035,126.929825 
	C640.270447,141.204025 632.061951,153.065002 619.433289,157.301575 
	C606.786987,161.544052 594.417664,157.101501 585.169739,144.764496 
M599.130920,130.719864 
	C601.704102,137.687286 606.158386,140.862854 612.034058,139.918808 
	C617.282043,139.075592 621.692749,133.862595 621.728882,127.607582 
	C621.823181,111.301628 621.797668,94.991447 621.508545,78.688477 
	C621.384644,71.697830 616.563049,67.059883 610.351685,67.024094 
	C603.959106,66.987259 598.931580,71.848740 598.872986,78.950470 
	C598.733093,95.918968 598.924683,112.890205 599.130920,130.719864 
z"/>
<path fill="#FAFAFA" opacity="1.000000" stroke="none" 
	d="
M248.514771,135.282257 
	C248.076904,131.748779 247.498962,128.606171 247.504593,125.464630 
	C247.546951,101.819244 247.700790,78.174034 247.834671,54.528858 
	C247.842056,53.226498 247.981934,51.924896 248.078400,50.318962 
	C254.006973,50.318962 259.743561,50.318962 266.193207,50.318962 
	C266.193207,52.102684 266.193207,53.861004 266.193207,55.619320 
	C266.193268,78.099266 266.192780,100.579216 266.194733,123.059158 
	C266.194855,124.557693 266.142242,126.060699 266.235718,127.554008 
	C266.678345,134.624664 271.482574,139.771835 277.613678,139.798523 
	C283.973938,139.826202 289.002625,134.512604 289.035370,127.167473 
	C289.140747,103.522369 289.079376,79.876518 289.082306,56.230953 
	C289.082520,54.413540 289.082336,52.596130 289.082336,50.389511 
	C295.197906,50.389511 301.070374,50.389511 307.309296,50.389511 
	C307.411774,51.864700 307.595245,53.323608 307.602295,54.783367 
	C307.719025,78.928185 307.978546,103.073914 307.861542,127.217766 
	C307.765717,146.993271 291.426544,161.236969 272.592438,157.869492 
	C260.119446,155.639359 252.483154,147.546661 248.514771,135.282257 
z"/>
<path fill="#F9F9FA" opacity="1.000000" stroke="none" 
	d="
M468.930695,121.167091 
	C461.364044,116.590034 454.020111,112.345299 446.773346,107.940659 
	C431.489319,98.650864 425.972443,78.599739 434.607880,64.015587 
	C441.236816,52.820244 453.826508,46.925781 466.054932,49.292221 
	C478.692352,51.737804 488.681183,62.226761 490.196381,75.339493 
	C490.800659,80.568947 490.295746,85.926575 490.295746,91.601768 
	C484.413330,91.601768 478.544891,91.601768 471.950897,91.601768 
	C471.950897,87.879539 471.992676,84.264374 471.942169,80.650482 
	C471.837799,73.180321 468.840851,68.690193 463.103210,67.303764 
	C458.367828,66.159508 453.399017,68.426750 450.816467,72.910126 
	C447.885742,77.997940 448.695038,85.443085 453.054321,89.537514 
	C455.324615,91.669846 458.109772,93.314079 460.825653,94.898979 
	C466.000427,97.918793 471.450531,100.488129 476.504730,103.689110 
	C489.649506,112.014145 494.060364,125.100136 488.759796,139.150711 
	C483.817841,152.250656 470.028595,160.581512 456.632111,158.560928 
	C442.579041,156.441284 431.646332,144.572830 430.721130,130.282013 
	C430.508606,126.999306 430.689789,123.691116 430.689789,120.226913 
	C436.895508,120.226913 442.655273,120.226913 448.767426,120.226913 
	C448.976410,123.695923 448.859131,127.023384 449.443024,130.222900 
	C450.350464,135.195770 453.287964,138.714508 458.405853,139.831787 
	C463.127319,140.862518 467.690125,138.706116 470.241852,134.267609 
	C472.799622,129.818665 473.013000,125.424141 468.930695,121.167091 
z"/>
<path fill="#FAFAFB" opacity="1.000000" stroke="none" 
	d="
M707.656311,107.628029 
	C698.698914,118.029747 686.773804,118.022728 674.413452,117.539192 
	C674.413452,130.906662 674.413452,143.653931 674.413452,156.624237 
	C668.038818,156.624237 662.150330,156.624237 656.066772,156.624237 
	C656.066772,121.098770 656.066772,85.891472 656.066772,49.437965 
	C669.661255,50.057983 682.991699,49.726189 696.015381,51.566193 
	C705.901489,52.962929 712.331726,60.461948 714.927856,70.168938 
	C718.508362,83.556252 717.019775,96.248779 707.656311,107.628029 
M674.369263,70.007332 
	C674.369263,79.560379 674.369263,89.113419 674.369263,98.928261 
	C677.889709,98.928261 680.698975,98.937172 683.508118,98.926529 
	C690.881958,98.898598 695.082397,96.006241 697.098999,89.062706 
	C698.925781,82.772858 699.430298,76.188065 694.148071,71.403000 
	C688.459106,66.249489 681.371765,67.531113 674.369263,70.007332 
z"/>
<path fill="#73CBC5" opacity="1.000000" stroke="none" 
	d="
M178.349854,175.035629 
	C176.563919,171.080109 173.159348,171.172318 169.774719,171.122604 
	C164.088898,171.039093 163.897568,170.233765 166.294571,164.991623 
	C171.939224,152.646988 178.168304,140.452148 182.410568,127.618111 
	C186.310059,115.821022 186.067108,103.188736 184.153442,89.997025 
	C181.711136,81.178291 178.714447,73.559418 171.095566,68.887154 
	C168.491302,65.857895 163.418716,65.999420 162.011154,61.105453 
	C161.234665,58.405628 160.855484,56.680302 163.077072,54.611961 
	C165.103424,52.725399 166.664429,50.339020 168.724335,47.990593 
	C189.615356,61.418949 202.487183,80.242149 205.440414,104.837242 
	C208.779541,132.646072 200.065781,156.345596 178.349854,175.035629 
z"/>
<path fill="#74CBC5" opacity="1.000000" stroke="none" 
	d="
M83.652214,47.968506 
	C86.457787,50.742870 89.937355,53.296272 91.052521,56.638569 
	C91.811295,58.912693 90.089958,63.857639 88.059669,64.934258 
	C67.467766,75.853607 65.717224,94.597290 67.517250,114.339607 
	C69.175797,132.530182 76.553917,148.956299 85.930870,164.501251 
	C86.902679,166.112289 87.314697,168.060989 87.986450,169.853027 
	C86.155510,170.279816 84.262917,170.536850 82.508362,171.173996 
	C80.008507,172.081772 77.609932,173.268433 75.076111,174.696259 
	C73.524506,174.020920 71.886490,173.165512 70.631210,171.923325 
	C35.705864,137.362625 39.655640,80.790184 79.014900,51.312950 
	C80.450523,50.237778 81.884293,49.160130 83.652214,47.968506 
z"/>
<path fill="#FDFDFD" opacity="1.000000" stroke="none" 
	d="
M398.671448,138.998657 
	C398.672394,109.196724 398.672394,79.894470 398.672394,50.299660 
	C404.903381,50.299660 410.643097,50.299660 416.822968,50.299660 
	C416.822968,85.604805 416.822968,120.844162 416.822968,156.449799 
	C411.020416,156.449799 405.138123,156.449799 398.670532,156.449799 
	C398.670532,150.731094 398.670532,145.114716 398.671448,138.998657 
z"/>
<path fill="#6DBEBA" opacity="1.000000" stroke="none" 
	d="
M148.807114,38.790878 
	C145.596115,42.473312 141.987900,44.238369 136.414108,43.212898 
	C130.182571,42.066414 123.433296,42.037949 117.194855,43.139694 
	C111.806198,44.091362 107.920952,43.021038 104.019363,39.260284 
	C118.666466,34.114861 133.553894,34.350491 148.807114,38.790878 
z"/>
<path fill="#D0D1D4" opacity="1.000000" stroke="none" 
	d="
M456.599548,204.367233 
	C458.593628,197.953461 461.353271,192.966324 468.867645,192.858917 
	C469.911316,192.844009 471.284973,190.970718 471.886353,189.671051 
	C473.642395,185.876312 475.084778,181.936447 476.650055,178.053452 
	C477.363983,178.227280 478.077911,178.401108 478.791840,178.574951 
	C478.564636,180.402771 478.646881,182.338425 478.054321,184.038910 
	C475.975037,190.005676 473.568207,195.858124 471.478333,201.821442 
	C470.350403,205.039841 469.613770,208.395386 468.513458,212.364151 
	C467.233459,211.003036 466.306793,210.017685 465.238007,208.881165 
	C461.249939,210.141983 456.576965,212.320129 456.599548,204.367233 
M459.622101,205.483582 
	C461.871216,205.925613 464.120361,206.367661 466.536621,206.842545 
	C467.472961,203.111969 468.283630,199.882050 469.266571,195.965790 
	C463.180786,196.841995 461.429108,200.747345 459.622101,205.483582 
z"/>
<path fill="#D5D6D9" opacity="1.000000" stroke="none" 
	d="
M328.031128,206.098175 
	C322.105316,206.266068 320.255035,209.782776 319.337982,214.619690 
	C318.780457,217.560425 317.434814,220.351730 315.417603,222.863754 
	C315.344910,210.646545 320.546692,200.047409 324.535461,189.085571 
	C325.049103,189.112885 325.562744,189.140182 326.076385,189.167496 
	C326.580902,190.368729 327.085388,191.569946 327.589905,192.771164 
	C327.824005,192.444565 328.058075,192.117966 328.292175,191.791382 
	C330.604797,193.412018 334.360413,194.634888 334.938934,196.733566 
	C336.270172,201.562714 332.266846,204.036362 328.031128,206.098175 
M331.472321,196.917068 
	C326.097687,196.108383 324.025543,197.785461 323.257141,203.902328 
	C327.284058,203.168930 330.501648,201.726151 331.472321,196.917068 
z"/>
<path fill="#C5C6CA" opacity="1.000000" stroke="none" 
	d="
M581.688843,197.476349 
	C579.756348,202.384201 576.556458,204.221313 570.752136,202.374741 
	C570.932861,204.722031 571.069763,206.500885 571.206726,208.279724 
	C572.858276,208.018890 574.530518,207.846451 576.154480,207.467422 
	C577.315613,207.196411 578.412048,206.648315 579.845093,206.773193 
	C578.784241,210.867538 575.663574,212.830566 572.083740,211.945068 
	C570.086487,211.451050 567.069214,207.814651 567.444580,206.341934 
	C568.622742,201.719666 570.880493,197.258835 573.417908,193.168304 
	C574.149658,191.988693 577.575684,191.465500 579.140625,192.125427 
	C580.493469,192.695877 580.958557,195.371521 581.688843,197.476349 
z"/>
<path fill="#D3D5D7" opacity="1.000000" stroke="none" 
	d="
M371.160706,210.016006 
	C369.825714,208.637451 368.863617,207.333984 367.563873,205.573044 
	C366.063354,206.977371 364.756073,208.721512 363.014954,209.665375 
	C361.626526,210.418045 359.441071,210.793839 358.117676,210.201462 
	C357.183807,209.783463 356.273102,207.027069 356.779419,206.069092 
	C359.129059,201.623688 361.581177,197.110168 364.786835,193.282928 
	C366.889069,190.773026 370.537201,192.311142 371.578217,195.853424 
	C372.067352,197.517746 371.512909,199.460709 371.756012,201.232864 
	C372.024811,203.192078 372.665100,205.100327 373.143616,207.030762 
	C373.755585,207.181305 374.367584,207.331833 374.979584,207.482376 
	C373.830933,208.351944 372.682281,209.221512 371.160706,210.016006 
M363.081238,199.629791 
	C361.829834,202.066284 360.578430,204.502777 358.700287,208.159576 
	C366.241760,204.557831 369.282196,199.784027 365.840118,194.080719 
	C365.072479,195.729004 364.304840,197.377274 363.081238,199.629791 
z"/>
<path fill="#C9CACE" opacity="1.000000" stroke="none" 
	d="
M419.237488,209.533783 
	C415.980011,203.599411 417.118134,197.535965 422.530182,194.020477 
	C424.431427,192.785461 427.396423,192.789444 429.815094,192.983307 
	C430.577728,193.044464 432.054474,196.333008 431.639954,196.824158 
	C429.924652,198.856613 427.739136,200.594666 425.451996,201.991821 
	C424.532104,202.553772 422.906311,201.960266 420.825592,201.852386 
	C421.015717,203.719788 421.011871,206.745499 421.379150,206.791245 
	C423.738647,207.085129 426.179504,206.726089 428.488068,206.587845 
	C427.907257,210.927429 424.619995,212.304077 419.237488,209.533783 
z"/>
<path fill="#CBCCCF" opacity="1.000000" stroke="none" 
	d="
M254.592773,194.528992 
	C255.977173,193.308594 257.186676,191.523666 258.260803,191.601746 
	C260.258148,191.746902 263.026611,192.473099 263.877441,193.905670 
	C264.654907,195.214676 263.321411,197.777435 262.918182,199.787674 
	C262.344482,199.692245 261.770782,199.596832 261.197083,199.501404 
	C260.907593,198.139816 260.618103,196.778244 260.323608,195.393097 
	C255.745728,197.578964 253.899384,201.078629 254.072510,208.242462 
	C257.679535,206.440094 260.862549,204.849594 264.045563,203.259109 
	C264.427795,203.648712 264.809998,204.038330 265.192230,204.427933 
	C263.329163,206.203476 261.744171,208.642395 259.526520,209.572052 
	C257.208252,210.543900 253.875473,210.911652 251.771378,209.903961 
	C250.489487,209.290054 249.937897,205.411469 250.407242,203.299011 
	C251.068649,200.322159 252.979919,197.622971 254.592773,194.528992 
z"/>
<path fill="#CCCED1" opacity="1.000000" stroke="none" 
	d="
M484.735138,203.178879 
	C483.249695,203.373398 481.368530,203.350281 481.201630,203.873749 
	C480.789124,205.167496 480.798492,206.889618 481.379700,208.076508 
	C481.651245,208.631027 483.749390,208.695450 484.823914,208.358261 
	C486.462646,207.844055 487.931549,206.788559 489.790771,205.792404 
	C489.536926,209.852570 486.782227,212.213608 483.031738,212.207535 
	C479.566803,212.201950 477.670593,210.141403 477.542206,206.988968 
	C477.305725,201.183563 479.564453,196.129135 484.234772,192.739960 
	C485.664642,191.702347 489.127563,191.734985 490.443665,192.791702 
	C491.602936,193.722519 491.942352,197.297958 491.063507,198.747070 
	C489.871094,200.713196 487.172180,201.765625 484.735138,203.178879 
M488.890015,196.557938 
	C488.258423,195.921692 487.626862,195.285431 486.995270,194.649185 
	C485.880493,195.787613 484.698029,196.873611 483.729218,198.125046 
	C483.595154,198.298248 484.517365,199.289200 484.950562,199.901566 
	C486.184875,199.018829 487.419189,198.136093 488.890015,196.557938 
z"/>
<path fill="#CBCCCF" opacity="1.000000" stroke="none" 
	d="
M633.786072,208.997467 
	C632.155334,206.299194 630.871948,207.026917 628.779663,208.232269 
	C626.915344,209.306290 624.299683,209.075882 622.015564,209.421127 
	C622.051270,207.111816 621.548279,204.616943 622.263184,202.541565 
	C623.102722,200.104187 624.649109,197.645844 626.545898,195.917694 
	C628.169556,194.438416 631.982788,192.688675 632.619568,193.312469 
	C634.372620,195.029861 635.388000,197.848450 635.881042,200.389389 
	C636.248657,202.284348 635.348328,204.425354 634.915833,207.043137 
	C637.276428,206.612579 638.788147,206.336838 640.383850,206.045776 
	C639.513794,210.443527 638.788452,210.783508 633.786072,208.997467 
M632.697998,196.975449 
	C629.039307,196.669678 625.157532,201.239700 624.560669,206.851532 
	C628.567993,204.703018 632.043030,202.428818 632.697998,196.975449 
z"/>
<path fill="#D0D1D4" opacity="1.000000" stroke="none" 
	d="
M539.574951,201.354919 
	C536.728760,203.432846 534.244507,205.381577 531.672791,207.207230 
	C530.707703,207.892365 529.539612,208.291580 528.464050,208.821121 
	C528.132935,207.334793 527.182312,205.648300 527.585815,204.399277 
	C528.848511,200.490753 530.622192,196.747314 532.197937,192.939926 
	C532.716980,192.851807 533.235962,192.763687 533.755005,192.675568 
	C534.298096,194.810989 534.841248,196.946426 535.463318,199.392273 
	C538.130920,199.355408 541.438721,193.591324 544.231873,198.539673 
	C545.859924,201.423874 545.387878,205.493484 545.893799,209.277451 
	C541.789551,209.492249 542.161804,206.735306 541.721741,204.378403 
	C541.508850,203.237732 540.532715,202.239517 539.574951,201.354919 
z"/>
<path fill="#D3D5D7" opacity="1.000000" stroke="none" 
	d="
M451.964783,202.384323 
	C451.441254,205.378693 450.996857,207.975342 450.442444,211.214661 
	C445.494843,208.070984 449.132111,203.638367 448.152618,198.922531 
	C445.023621,201.649063 442.459106,203.993271 439.758667,206.168732 
	C438.969666,206.804337 437.793518,206.959381 436.794830,207.334702 
	C436.503571,206.162460 435.707092,204.835068 436.010956,203.845566 
	C437.153778,200.123764 438.655182,196.512085 441.151245,192.802917 
	C441.731537,194.345596 442.311859,195.888290 442.786835,197.151016 
	C445.528564,196.576584 448.226959,196.011215 450.925385,195.445862 
	C451.298218,197.626114 451.671082,199.806366 451.964783,202.384323 
z"/>
<path fill="#D9DADD" opacity="1.000000" stroke="none" 
	d="
M561.690430,209.362183 
	C559.374023,210.278214 556.370056,212.131042 555.181641,211.320831 
	C553.605835,210.246536 553.283813,207.130081 552.747620,204.815994 
	C552.459900,203.574341 552.942322,202.173462 552.916992,200.847504 
	C552.874573,198.628372 552.703918,196.411713 552.575256,193.966293 
	C554.036499,192.284058 555.911682,190.021164 557.909424,187.872223 
	C558.815979,186.897156 559.965454,186.148026 561.004700,185.296387 
	C561.099060,186.604599 561.278503,187.914673 561.250122,189.220245 
	C561.236816,189.832275 560.822510,190.435562 560.494507,191.291733 
	C562.520752,191.939163 564.425110,192.547684 567.071716,193.393341 
	C565.763672,194.361084 565.343262,194.920578 565.033264,194.864914 
	C558.351746,193.664673 557.058228,198.137817 556.048767,203.145218 
	C555.082214,207.939743 556.185608,209.054565 561.310059,208.068314 
	C561.449585,208.041458 561.729431,208.095490 561.739197,208.149231 
	C561.796936,208.464523 561.793640,208.790970 561.690430,209.362183 
z"/>
<path fill="#D0D1D4" opacity="1.000000" stroke="none" 
	d="
M609.276978,198.251465 
	C608.093140,201.322586 607.128967,204.038483 606.164795,206.754379 
	C606.568054,207.173264 606.971375,207.592148 607.374634,208.011032 
	C610.462036,206.573059 613.549377,205.135086 616.636780,203.697098 
	C616.895752,204.048233 617.154724,204.399353 617.413696,204.750488 
	C616.347839,206.083511 615.532166,208.115326 614.164307,208.605179 
	C611.250305,209.648773 608.049622,209.891922 604.966431,210.463074 
	C604.523743,207.573090 603.092163,204.372665 603.878296,201.868469 
	C604.962402,198.415237 607.392761,195.195007 609.863525,192.425430 
	C611.920288,190.119995 614.814819,190.417480 616.643860,193.156845 
	C618.420776,195.818115 617.586487,198.027679 614.441895,200.025925 
	C613.986145,198.180923 613.662415,196.870224 613.128296,194.708176 
	C611.717529,195.946655 610.607117,196.921432 609.276978,198.251465 
z"/>
<path fill="#D6D8DA" opacity="1.000000" stroke="none" 
	d="
M710.021912,211.092377 
	C705.563110,209.484329 704.640869,207.195496 707.246948,202.383957 
	C708.809082,199.499603 710.930664,196.811218 713.256165,194.491180 
	C714.470093,193.280121 717.299805,192.019348 718.282898,192.617249 
	C719.975220,193.646591 720.945923,196.037735 721.904419,198.010406 
	C722.277954,198.779343 721.581726,200.001633 721.752502,200.948944 
	C722.135864,203.075851 722.756958,205.159927 723.934875,207.363098 
	C723.139587,209.817993 721.629944,211.837021 718.650146,207.487701 
	C714.568726,205.871017 713.904602,204.366623 716.876038,201.435455 
	C718.063538,200.264084 718.249451,198.077454 718.891296,196.352951 
	C718.114197,195.962784 717.337097,195.572601 716.559937,195.182434 
	C713.880310,198.986496 711.200623,202.790558 708.520996,206.594620 
	C708.939880,206.934631 709.358765,207.274643 709.777649,207.614655 
	C711.174683,207.190689 712.571655,206.766708 713.968689,206.342743 
	C714.150635,206.636246 714.332581,206.929764 714.514526,207.223267 
	C713.016968,208.512970 711.519409,209.802673 710.021912,211.092377 
z"/>
<path fill="#CBCCCF" opacity="1.000000" stroke="none" 
	d="
M593.324402,201.299103 
	C591.330994,204.163406 589.671082,206.823517 587.851685,209.369629 
	C587.339844,210.085876 586.409058,210.594696 585.563477,210.923050 
	C585.318115,211.018326 584.483337,210.238403 584.290955,209.721222 
	C583.202332,206.794693 588.340454,193.507431 591.794434,191.081100 
	C592.215576,192.886505 592.583679,194.464615 592.874695,195.712128 
	C595.622559,195.216003 598.176941,194.754807 600.731323,194.293610 
	C600.876038,194.833817 601.020752,195.374008 601.165466,195.914215 
	C598.642822,197.626724 596.120178,199.339249 593.324402,201.299103 
M592.000000,196.499985 
	C592.200012,196.633163 592.400085,196.766327 592.600037,196.899506 
	C592.566711,196.599670 592.533325,196.299835 592.000000,196.499985 
z"/>
<path fill="#DDDEE0" opacity="1.000000" stroke="none" 
	d="
M655.059021,201.001389 
	C653.963013,201.523682 652.599365,201.792862 651.821045,202.615677 
	C649.474792,205.096161 647.356079,207.791977 644.525696,211.140900 
	C642.070129,204.808289 647.769592,201.438354 647.813354,196.785889 
	C646.580994,196.187195 645.345764,195.588455 643.963135,194.918259 
	C648.718079,191.407623 650.266785,191.772171 652.059021,196.794846 
	C654.534302,196.069412 657.747559,192.800949 658.777100,198.582153 
	C657.406006,199.676010 656.232483,200.338715 655.059021,201.001389 
z"/>
<path fill="#DDDEE0" opacity="1.000000" stroke="none" 
	d="
M341.987854,208.077606 
	C341.162262,209.209244 340.427307,209.974762 339.692383,210.740265 
	C339.141327,209.828796 338.045471,208.865463 338.126495,208.014160 
	C338.711670,201.866425 340.789520,196.232880 343.825958,190.997299 
	C344.446075,191.175842 345.066193,191.354385 345.686310,191.532928 
	C345.255432,193.379517 344.824554,195.226105 344.274109,197.585129 
	C347.561157,196.471542 350.678833,195.415344 353.796509,194.359146 
	C354.021667,194.768417 354.246796,195.177704 354.471954,195.586975 
	C349.462891,198.780975 343.375305,200.933853 341.987854,208.077606 
z"/>
<path fill="#E5E5E7" opacity="1.000000" stroke="none" 
	d="
M303.235107,203.471588 
	C302.353241,204.875000 301.471344,206.278412 300.031433,207.591003 
	C299.111328,206.749786 298.749207,205.999420 298.387146,205.249039 
	C298.775116,203.725021 299.163116,202.201004 299.911560,200.232452 
	C300.182465,199.310303 300.092865,198.832642 300.003296,198.354980 
	C299.323669,198.865067 298.644073,199.375153 297.964478,199.885254 
	C295.549866,202.830994 293.135254,205.776733 290.066528,208.875412 
	C288.909027,209.026871 288.405701,209.025375 287.902344,209.023865 
	C289.235443,204.917053 290.568542,200.810242 291.952789,196.545944 
	C291.184540,196.147995 290.148895,195.611511 289.183655,195.111496 
	C289.272095,194.558960 289.215302,194.139664 289.376129,194.024612 
	C291.978333,192.163376 294.302704,191.888931 295.620972,195.911682 
	C296.650665,198.625687 296.972626,198.562744 298.927124,195.831345 
	C300.012878,195.798553 301.098602,195.765762 302.188049,196.478210 
	C302.539520,199.306168 302.887329,201.388870 303.235107,203.471588 
z"/>
<path fill="#C9CACE" opacity="1.000000" stroke="none" 
	d="
M407.874023,203.011047 
	C410.296936,199.945572 412.469299,197.157242 414.641693,194.368896 
	C415.144073,194.748047 415.646423,195.127197 416.148804,195.506363 
	C414.132599,201.073288 410.662720,205.629440 404.327271,210.383041 
	C402.865417,204.184448 401.639801,198.987640 400.414215,193.790817 
	C401.274078,193.538940 402.133942,193.287064 402.993805,193.035187 
	C403.678741,195.320465 404.205109,197.671066 405.109467,199.865952 
	C405.632904,201.136307 406.765198,202.155792 407.874023,203.011047 
z"/>
<path fill="#DDDEE0" opacity="1.000000" stroke="none" 
	d="
M269.981720,210.042145 
	C266.892578,206.039154 267.294525,202.403625 272.026306,196.969772 
	C274.691040,193.909668 277.518433,190.159897 282.779419,194.085938 
	C283.408020,195.030411 283.704590,195.515076 284.001160,195.999741 
	C283.964355,196.750793 283.927521,197.501862 283.712524,198.884918 
	C282.715973,201.359634 281.897614,203.202332 281.079285,205.045029 
	C281.079285,205.045029 281.005585,205.016281 280.719788,205.138000 
	C279.290436,206.507248 278.146820,207.754791 277.003235,209.002335 
	C277.003235,209.002335 277.000000,209.000000 276.609924,209.013641 
	C276.080566,208.183990 275.554413,207.139542 275.869934,206.532745 
	C277.129578,204.110306 278.786224,201.891006 279.996948,199.448349 
	C280.382507,198.670517 279.840485,197.432922 279.722900,196.405716 
	C278.663910,196.584167 277.135620,196.379501 276.624664,197.005356 
	C273.984344,200.239410 270.537750,203.201889 271.731049,208.211334 
	C271.837311,208.657394 270.596771,209.424271 269.981720,210.042145 
z"/>
<path fill="#C9CACE" opacity="1.000000" stroke="none" 
	d="
M678.273560,196.058136 
	C680.438293,189.715881 682.603027,183.373642 684.767761,177.031403 
	C685.530029,177.227737 686.292236,177.424088 687.054443,177.620422 
	C688.016479,183.883698 682.583496,188.985336 682.511047,195.434784 
	C683.733337,195.575378 685.014526,195.722733 686.421387,196.481903 
	C686.705017,197.398575 686.653442,197.661865 685.917236,197.892700 
	C683.052673,197.287247 680.663086,196.672699 678.273560,196.058136 
z"/>
<path fill="#E1E2E4" opacity="1.000000" stroke="none" 
	d="
M654.968079,201.350098 
	C656.232483,200.338715 657.406006,199.676010 658.918030,198.940994 
	C660.998474,198.087708 662.740356,197.306747 665.049133,196.271622 
	C665.049133,200.045929 665.049133,202.669357 665.049133,205.571152 
	C666.769043,205.682358 668.318420,205.782516 669.867798,205.882690 
	C670.028625,206.183792 670.189392,206.484894 670.350220,206.785995 
	C668.589355,207.783844 666.828552,208.781708 665.067688,209.779572 
	C663.993469,206.919250 662.919250,204.058929 661.664062,200.716919 
	C659.692261,203.318527 657.511414,206.195938 655.330566,209.073334 
	C654.867920,208.965271 654.405334,208.857208 653.942749,208.749146 
	C654.254211,206.399017 654.565674,204.048904 654.968079,201.350098 
z"/>
<path fill="#353B48" opacity="1.000000" stroke="none" 
	d="
M270.058716,210.398209 
	C270.596771,209.424271 271.837311,208.657394 271.731049,208.211334 
	C270.537750,203.201889 273.984344,200.239410 276.624664,197.005356 
	C277.135620,196.379501 278.663910,196.584167 279.722900,196.405716 
	C279.840485,197.432922 280.382507,198.670517 279.996948,199.448349 
	C278.786224,201.891006 277.129578,204.110306 275.869934,206.532745 
	C275.554413,207.139542 276.080566,208.183990 276.610962,209.015320 
	C275.397949,212.271851 273.172272,213.103012 270.058716,210.398209 
z"/>
<path fill="#353B48" opacity="1.000000" stroke="none" 
	d="
M710.235962,211.322906 
	C711.519409,209.802673 713.016968,208.512970 714.514526,207.223267 
	C714.332581,206.929764 714.150635,206.636246 713.968689,206.342743 
	C712.571655,206.766708 711.174683,207.190689 709.777649,207.614655 
	C709.358765,207.274643 708.939880,206.934631 708.520996,206.594620 
	C711.200623,202.790558 713.880310,198.986496 716.559937,195.182434 
	C717.337097,195.572601 718.114197,195.962784 718.891296,196.352951 
	C718.249451,198.077454 718.063538,200.264084 716.876038,201.435455 
	C713.904602,204.366623 714.568726,205.871017 718.448425,207.209320 
	C715.925110,208.867630 713.187622,210.210526 710.235962,211.322906 
z"/>
<path fill="#BFC1C5" opacity="1.000000" stroke="none" 
	d="
M521.355408,205.615265 
	C520.668945,207.601807 520.089783,209.220612 519.510620,210.839417 
	C518.995850,210.818451 518.481140,210.797501 517.966370,210.776535 
	C517.750977,209.225800 517.207031,207.632278 517.401917,206.134964 
	C517.654602,204.194641 518.258484,202.208740 519.153259,200.469940 
	C519.991333,198.841263 521.406006,197.509247 522.567017,196.046692 
	C522.573608,198.016678 522.709778,199.998093 522.536987,201.952225 
	C522.437866,203.073563 521.837463,204.150558 521.355408,205.615265 
z"/>
<path fill="#C5C6CA" opacity="1.000000" stroke="none" 
	d="
M698.689819,199.705597 
	C699.357727,198.102234 699.924927,196.850586 700.492065,195.598923 
	C701.096436,195.774582 701.700867,195.950226 702.305237,196.125885 
	C703.615112,201.457535 699.879456,205.833496 698.224670,210.668961 
	C695.142761,207.003403 697.707642,203.554382 698.689819,199.705597 
z"/>
<path fill="#F0F1F2" opacity="1.000000" stroke="none" 
	d="
M678.100952,196.362366 
	C680.663086,196.672699 683.052673,197.287247 685.634949,198.213501 
	C683.398560,201.345520 680.969421,204.165863 678.540283,206.986206 
	C678.879822,207.396500 679.219360,207.806778 679.558899,208.217056 
	C681.023560,207.715836 682.488281,207.214600 684.001953,207.125351 
	C684.037598,208.365372 684.024170,209.193390 684.010742,210.021439 
	C683.510803,210.282013 683.010864,210.542587 681.966187,210.566177 
	C679.686401,208.568390 677.951355,206.807587 676.216309,205.046799 
	C676.301880,204.600372 676.387451,204.153946 676.929810,203.213852 
	C677.467285,201.626862 677.548096,200.533539 677.628845,199.440231 
	C677.728699,198.515701 677.828552,197.591156 678.100952,196.362366 
z"/>
<path fill="#353B48" opacity="1.000000" stroke="none" 
	d="
M683.952942,206.713348 
	C682.488281,207.214600 681.023560,207.715836 679.558899,208.217056 
	C679.219360,207.806778 678.879822,207.396500 678.540283,206.986206 
	C680.969421,204.165863 683.398560,201.345520 686.109985,198.204376 
	C686.653442,197.661865 686.705017,197.398575 686.360291,196.980225 
	C686.173523,196.866730 686.311279,196.837967 686.810242,197.049316 
	C688.229675,197.161514 689.150146,197.062347 691.344055,196.826035 
	C689.654419,199.717407 688.460510,201.760513 686.998718,203.881989 
	C685.804871,204.878036 684.878906,205.795685 683.952942,206.713348 
z"/>
<path fill="#AFB1B6" opacity="1.000000" stroke="none" 
	d="
M374.041016,214.270264 
	C375.126526,212.653839 376.266968,211.426208 377.061646,210.005173 
	C377.835663,208.620972 378.255829,207.038879 379.324677,204.262039 
	C381.451294,208.591583 380.705109,211.527527 378.407990,213.878204 
	C377.565247,214.740601 375.469025,214.378128 374.041016,214.270264 
z"/>
<path fill="#AFB1B6" opacity="1.000000" stroke="none" 
	d="
M491.652679,213.532028 
	C493.364990,210.742676 494.888489,208.260635 496.391541,205.811859 
	C498.909149,208.991135 497.163086,214.904037 493.284271,215.606293 
	C492.799988,215.693985 492.076508,214.460602 491.652679,213.532028 
z"/>
<path fill="#F0F1F2" opacity="1.000000" stroke="none" 
	d="
M687.266602,203.803619 
	C688.460510,201.760513 689.654419,199.717407 691.344055,196.826035 
	C689.150146,197.062347 688.229675,197.161514 686.853027,197.105194 
	C686.178406,196.395355 685.959900,195.840973 686.525879,195.076141 
	C687.891296,194.495651 688.472290,194.125595 689.053223,193.755554 
	C693.275269,193.552109 694.230896,195.901230 693.199646,199.405716 
	C692.744507,200.952377 691.665405,202.315430 690.094238,203.930161 
	C688.634766,204.000198 687.950684,203.901901 687.266602,203.803619 
z"/>
<path fill="#E5E5E7" opacity="1.000000" stroke="none" 
	d="
M309.744995,201.938049 
	C310.397614,203.228302 311.050262,204.518539 312.391205,205.934601 
	C313.407776,206.419922 313.736023,206.779449 314.064270,207.138977 
	C312.313446,209.258667 310.472198,210.947815 307.775208,207.694702 
	C307.609772,205.636551 307.423737,204.347733 307.237732,203.058914 
	C307.241089,202.553696 307.244446,202.048477 307.509888,200.923813 
	C307.072723,199.358429 306.373505,198.412506 305.674255,197.466568 
	C306.752289,197.234085 307.830322,197.001587 309.027039,197.476379 
	C309.345490,199.435120 309.545227,200.686584 309.744995,201.938049 
z"/>
<path fill="#C9CACE" opacity="1.000000" stroke="none" 
	d="
M686.998718,203.881989 
	C687.950684,203.901901 688.634766,204.000198 689.835022,204.146393 
	C688.470947,206.139465 686.590637,208.084610 684.360596,210.025604 
	C684.024170,209.193390 684.037598,208.365372 684.001953,207.125336 
	C684.878906,205.795685 685.804871,204.878036 686.998718,203.881989 
z"/>
<path fill="#C9CACE" opacity="1.000000" stroke="none" 
	d="
M305.341705,197.553558 
	C306.373505,198.412506 307.072723,199.358429 307.632294,200.562378 
	C306.292633,201.588882 305.092651,202.357376 303.563873,203.298721 
	C302.887329,201.388870 302.539520,199.306168 302.299316,196.775269 
	C303.274323,196.764893 304.141724,197.202713 305.341705,197.553558 
z"/>
<path fill="#C9CACE" opacity="1.000000" stroke="none" 
	d="
M675.995483,205.279175 
	C677.951355,206.807587 679.686401,208.568390 681.680664,210.545486 
	C677.337402,212.003067 675.597290,209.883163 675.995483,205.279175 
z"/>
<path fill="#353B48" opacity="1.000000" stroke="none" 
	d="
M281.408173,204.982803 
	C281.897614,203.202332 282.715973,201.359634 283.764526,199.257904 
	C283.242218,200.972794 282.489655,202.946686 281.408173,204.982803 
z"/>
<path fill="#353B48" opacity="1.000000" stroke="none" 
	d="
M277.373474,209.028168 
	C278.146820,207.754791 279.290436,206.507248 280.742676,205.170258 
	C279.948761,206.405197 278.846222,207.729614 277.373474,209.028168 
z"/>
<path fill="#C9CACE" opacity="1.000000" stroke="none" 
	d="
M309.918457,201.684799 
	C309.545227,200.686584 309.345490,199.435120 309.233307,197.794083 
	C309.577911,198.746857 309.834930,200.089203 309.918457,201.684799 
z"/>
<path fill="#C9CACE" opacity="1.000000" stroke="none" 
	d="
M314.365387,207.037537 
	C313.736023,206.779449 313.407776,206.419922 312.772034,205.857742 
	C313.400909,205.229355 314.337280,204.803635 315.273682,204.377899 
	C315.071289,205.230637 314.868896,206.083359 314.365387,207.037537 
z"/>
<path fill="#C9CACE" opacity="1.000000" stroke="none" 
	d="
M307.059052,203.310028 
	C307.423737,204.347733 307.609772,205.636551 307.663391,207.318359 
	C307.314148,206.327942 307.097260,204.944550 307.059052,203.310028 
z"/>
<path fill="#C9CACE" opacity="1.000000" stroke="none" 
	d="
M298.507751,195.933228 
	C296.972626,198.562744 296.650665,198.625687 295.548889,196.304626 
	C296.528961,196.063919 297.308655,196.049515 298.507751,195.933228 
z"/>
<path fill="#C9CACE" opacity="1.000000" stroke="none" 
	d="
M298.176636,205.467041 
	C298.749207,205.999420 299.111328,206.749786 299.782166,207.779068 
	C299.510010,208.282730 298.929169,208.507492 298.348297,208.732254 
	C298.220917,207.716522 298.093536,206.700775 298.176636,205.467041 
z"/>
<path fill="#C9CACE" opacity="1.000000" stroke="none" 
	d="
M677.387207,199.667725 
	C677.548096,200.533539 677.467285,201.626862 677.113647,202.922546 
	C676.942383,202.048340 677.043945,200.971771 677.387207,199.667725 
z"/>
<path fill="#C9CACE" opacity="1.000000" stroke="none" 
	d="
M298.429596,199.904510 
	C298.644073,199.375153 299.323669,198.865067 300.003296,198.354980 
	C300.092865,198.832642 300.182465,199.310303 300.048889,199.859436 
	C299.515411,199.928528 299.205048,199.926147 298.429596,199.904510 
z"/>
<path fill="#C9CACE" opacity="1.000000" stroke="none" 
	d="
M287.867554,209.296738 
	C288.405701,209.025375 288.909027,209.026871 289.789001,209.054657 
	C289.388031,209.243835 288.610413,209.406723 287.867554,209.296738 
z"/>
<path fill="#353B48" opacity="1.000000" stroke="none" 
	d="
M284.205383,195.825470 
	C283.704590,195.515076 283.408020,195.030411 283.085999,194.259064 
	C283.510223,194.531998 283.959900,195.091599 284.205383,195.825470 
z"/>
<path fill="#C9CACE" opacity="1.000000" stroke="none" 
	d="
M688.832703,193.648773 
	C688.472290,194.125595 687.891296,194.495651 686.951904,194.804688 
	C687.266418,194.343140 687.939270,193.942581 688.832703,193.648773 
z"/>
<path fill="#E2D8B0" opacity="1.000000" stroke="none" 
	d="
M159.733429,132.274139 
	C160.619293,132.957092 161.683624,134.141464 161.519623,134.347351 
	C159.367676,137.048721 157.042313,139.611969 154.421494,142.595764 
	C155.182724,142.907166 156.770462,143.556671 158.605713,144.307404 
	C156.316635,148.339661 153.243759,148.811523 149.336929,146.388916 
	C146.669342,149.903534 143.723007,151.174469 139.897507,148.167526 
	C139.138046,147.570572 137.474686,148.010010 136.247375,148.145615 
	C133.715637,148.425339 131.196899,148.822418 128.483154,148.385056 
	C133.951782,147.428284 137.076492,141.025528 143.758881,142.691925 
	C146.539795,143.385422 148.858810,141.072128 149.268478,138.488419 
	C145.995972,137.789062 143.198898,136.988800 140.347778,136.666245 
	C138.891312,136.501450 137.254166,136.980988 135.844315,137.537964 
	C131.832733,139.122772 128.009842,139.897247 125.039734,137.048859 
	C129.762177,135.022766 134.465607,132.911438 139.256134,131.020767 
	C140.338394,130.593628 141.732895,130.830704 142.967834,130.940308 
	C147.347931,131.329041 149.778534,128.867065 149.546402,123.740387 
	C145.468384,126.934380 141.825912,126.476746 138.885574,122.481369 
	C130.244736,128.199417 127.789635,128.334503 124.217903,123.940254 
	C128.765640,121.532349 133.435959,119.059547 139.500290,115.848656 
	C146.192337,116.933090 149.683594,114.780304 149.506180,107.373955 
	C144.684967,112.365555 139.908432,112.102020 135.400833,107.776688 
	C128.088028,113.839798 126.795929,114.029984 123.587708,110.213615 
	C126.309212,107.958710 128.913712,105.555367 131.791153,103.542152 
	C132.882126,102.778854 134.597107,102.885361 136.036102,102.646004 
	C139.544601,102.062401 144.482788,102.761230 146.294647,100.700768 
	C151.169983,95.156479 158.637985,94.717278 163.679733,89.887772 
	C165.871582,96.231148 162.901550,102.081703 156.529846,104.460320 
	C158.917419,107.824562 158.966873,107.831390 164.087341,105.503700 
	C164.582550,112.204575 162.788361,115.682320 157.391403,119.207077 
	C159.571442,119.401993 161.751465,119.596909 163.923615,119.791115 
	C164.030121,125.791840 161.917969,128.156708 154.766098,130.173660 
	C156.291031,130.889343 157.815979,131.605026 159.733429,132.274139 
M149.513382,136.220261 
	C149.394318,136.328079 149.190369,136.428436 149.180069,136.545807 
	C149.169754,136.663101 149.353195,136.797409 149.451706,136.924255 
	C149.570786,136.816452 149.689865,136.708649 149.513382,136.220261 
z"/>
<path fill="#E4DAB1" opacity="1.000000" stroke="none" 
	d="
M125.954514,82.059654 
	C126.071175,79.741653 126.187836,77.423645 126.300728,75.180603 
	C121.368721,73.222351 119.112305,69.979721 117.132172,61.796677 
	C127.869637,67.816223 134.660049,62.290527 141.047775,54.582611 
	C144.413391,50.521427 148.121246,46.399265 152.511963,43.634495 
	C156.467911,41.143501 161.565918,40.466209 166.488907,39.644081 
	C165.679855,48.109802 161.286621,53.283302 153.945847,56.903770 
	C149.042664,55.203403 145.773849,57.258938 143.127136,60.026463 
	C139.486893,63.832882 136.356949,68.121803 132.863998,72.076469 
	C130.402786,74.862991 130.824463,77.397408 132.999756,80.414246 
	C133.608765,85.621010 131.022049,88.608749 127.266235,90.932449 
	C127.410553,88.926819 127.554871,86.921181 127.785446,84.214340 
	C127.232643,83.028641 126.593575,82.544151 125.954514,82.059654 
z"/>
<path fill="#DCD2AD" opacity="1.000000" stroke="none" 
	d="
M159.936920,80.986137 
	C160.564514,78.220520 161.192108,75.454895 161.819702,72.689278 
	C162.081573,72.720055 162.343460,72.750832 162.605331,72.781609 
	C163.000885,74.969383 163.760880,77.162674 163.727890,79.343964 
	C163.596313,88.043701 156.071228,93.038315 146.748367,90.642052 
	C144.363174,90.028984 142.117172,88.874367 139.342926,87.731628 
	C138.619675,87.560753 138.360687,87.626816 138.101715,87.692871 
	C138.274857,87.937485 138.447983,88.182106 138.621124,88.426727 
	C140.309204,90.349373 141.997284,92.272026 143.663834,94.170158 
	C143.380096,94.170158 142.557816,94.400070 141.953445,94.134338 
	C136.350403,91.670639 131.762161,92.168549 128.379013,97.968575 
	C127.992111,98.631882 125.484940,98.058434 123.960869,98.058434 
	C123.970543,97.594063 123.980209,97.129692 123.989876,96.665321 
	C125.203430,95.973236 126.416985,95.281158 128.128082,94.162079 
	C130.401978,91.630127 132.698914,89.762764 133.800186,87.349716 
	C134.792130,85.176201 134.473648,82.404633 134.772690,79.523972 
	C136.100647,76.407303 137.598038,76.848244 139.934723,78.235741 
	C143.600403,80.412376 147.785706,81.455864 151.649353,78.703087 
	C155.281189,76.115463 155.809814,72.123497 155.389374,67.962585 
	C155.289261,66.972015 155.115616,65.988876 155.335785,64.990410 
	C156.175735,64.962128 156.655685,64.945740 157.135635,64.929359 
	C157.294571,69.959183 157.453491,74.989014 157.201324,80.579208 
	C152.518112,82.469398 148.245972,83.799210 144.482391,84.970711 
	C151.279648,88.983353 156.927444,87.734581 159.936920,80.986137 
z"/>
<path fill="#433A5C" opacity="1.000000" stroke="none" 
	d="
M154.975800,65.002312 
	C155.115616,65.988876 155.289261,66.972015 155.389374,67.962585 
	C155.809814,72.123497 155.281189,76.115463 151.649353,78.703087 
	C147.785706,81.455864 143.600403,80.412376 139.934723,78.235741 
	C137.598038,76.848244 136.100647,76.407303 134.481735,79.525963 
	C133.764526,79.935707 133.377808,79.970604 132.991104,80.005493 
	C130.824463,77.397408 130.402786,74.862991 132.863998,72.076469 
	C136.356949,68.121803 139.486893,63.832882 143.127136,60.026463 
	C145.773849,57.258938 149.042664,55.203403 153.630081,57.047722 
	C154.009659,57.775208 154.009079,58.444901 153.635803,59.518299 
	C151.625427,60.356934 149.987747,60.791859 147.794724,61.374275 
	C150.632080,62.807770 152.803955,63.905041 154.975800,65.002312 
M139.208740,71.378662 
	C138.741196,72.219978 137.669556,73.343155 137.908325,73.854912 
	C139.082184,76.370796 145.292191,77.689644 148.146744,76.149200 
	C151.651535,74.257881 152.835052,71.243935 151.820267,67.470444 
	C151.718704,67.092850 150.262024,67.079689 148.745041,66.938240 
	C145.762375,68.386818 142.779709,69.835396 139.208740,71.378662 
z"/>
<path fill="#DBD1AC" opacity="1.000000" stroke="none" 
	d="
M181.991364,90.997475 
	C183.506226,99.516335 183.822647,107.992439 180.947174,117.354240 
	C178.142670,110.191895 175.654541,103.837570 172.840607,96.651199 
	C174.950317,97.528282 176.448166,98.151001 178.456268,98.985855 
	C178.361786,89.152611 174.927032,80.986443 169.145615,73.055260 
	C170.808258,73.527924 173.018295,74.260513 173.924225,75.773804 
	C176.870102,80.694603 179.338913,85.901009 181.991364,90.997475 
z"/>
<path fill="#C7AC6E" opacity="1.000000" stroke="none" 
	d="
M138.676941,47.204258 
	C136.230133,54.764503 130.771225,57.947292 125.240669,55.347286 
	C127.360214,53.888344 129.429520,52.463982 132.810806,50.136547 
	C127.948906,48.783852 124.559715,47.840897 120.176514,46.621391 
	C127.016754,44.313221 132.730621,44.632374 138.676941,47.204258 
z"/>
<path fill="#CAB06F" opacity="1.000000" stroke="none" 
	d="
M141.118256,161.031952 
	C138.398819,163.086838 135.888229,164.836761 133.377625,166.586685 
	C133.042389,166.129456 132.707153,165.672226 132.371918,165.215012 
	C133.616318,163.782303 134.860733,162.349594 136.491333,160.472244 
	C134.135483,159.800949 132.216675,159.254196 130.177338,158.673080 
	C135.738037,152.947556 142.537094,154.007645 150.516037,154.401138 
	C148.381042,155.962860 147.062088,156.979126 145.689758,157.917297 
	C144.262421,158.893158 142.783493,159.793579 141.118256,161.031952 
z"/>
<path fill="#53526A" opacity="1.000000" stroke="none" 
	d="
M182.248688,90.883186 
	C179.338913,85.901009 176.870102,80.694603 173.924225,75.773804 
	C173.018295,74.260513 170.808258,73.527924 169.009583,72.736259 
	C167.829239,72.177170 166.834686,71.319672 165.203415,69.913193 
	C167.936264,69.702095 169.455276,69.584755 171.034927,69.177292 
	C178.714447,73.559418 181.711136,81.178291 184.025818,89.596069 
	C183.500504,90.241676 183.003250,90.505287 182.248688,90.883186 
z"/>
<path fill="#D6D8DA" opacity="1.000000" stroke="none" 
	d="
M106.486282,76.868263 
	C100.396950,73.664986 99.358246,70.668533 102.707214,65.466820 
	C103.338539,67.413025 103.849335,68.987656 104.227104,70.152222 
	C105.211800,70.152222 106.541069,69.973206 106.603447,70.178719 
	C107.786285,74.075638 109.983292,73.260910 112.666801,71.830803 
	C113.380783,71.450302 114.693275,72.192841 115.730972,72.419762 
	C115.772942,73.077057 115.814903,73.734352 115.856873,74.391647 
	C112.861519,75.243172 109.866165,76.094696 106.486282,76.868263 
z"/>
<path fill="#C2A86D" opacity="1.000000" stroke="none" 
	d="
M173.127441,120.998131 
	C173.113052,118.677979 173.113052,116.796333 173.113052,114.007896 
	C179.211288,122.318787 180.149063,128.805756 175.634506,135.227966 
	C174.677444,129.932785 173.909637,125.684715 173.127441,120.998131 
z"/>
<path fill="#C7AC6E" opacity="1.000000" stroke="none" 
	d="
M107.777344,83.986938 
	C99.756836,86.097862 94.448097,82.116638 95.639267,73.927597 
	C97.954964,76.553345 99.418938,79.424797 101.720406,80.494690 
	C104.203743,81.649132 107.470558,81.118225 111.311195,81.386475 
	C109.940735,82.457893 109.044250,83.158752 107.777344,83.986938 
z"/>
<path fill="#B69D6B" opacity="1.000000" stroke="none" 
	d="
M144.961121,208.652191 
	C146.311981,204.190140 147.490463,200.068954 148.679886,195.909470 
	C152.349426,204.040451 149.624191,211.704117 141.674286,213.720230 
	C142.925400,211.821259 143.857071,210.407166 144.961121,208.652191 
z"/>
<path fill="#DCD2AD" opacity="1.000000" stroke="none" 
	d="
M98.258881,42.993820 
	C98.629425,44.980431 98.629425,46.812084 98.629425,50.113918 
	C93.816689,46.738964 90.133041,44.155785 86.449387,41.572605 
	C86.814941,40.796288 87.180496,40.019970 87.546043,39.243652 
	C90.993477,40.442059 94.440910,41.640461 98.258881,42.993820 
z"/>
<path fill="#4F4560" opacity="1.000000" stroke="none" 
	d="
M159.507935,80.975639 
	C156.927444,87.734581 151.279648,88.983353 144.482391,84.970711 
	C148.245972,83.799210 152.518112,82.469398 157.079315,80.976646 
	C157.938553,80.864182 158.508759,80.914658 159.507935,80.975639 
z"/>
<path fill="#C2A86D" opacity="1.000000" stroke="none" 
	d="
M131.784821,213.585266 
	C132.820053,210.182800 133.687561,207.132965 134.755585,203.378265 
	C137.672516,210.480057 134.830093,217.849899 128.307571,219.843063 
	C129.625839,217.490921 130.621475,215.714432 131.784821,213.585266 
z"/>
<path fill="#A99268" opacity="1.000000" stroke="none" 
	d="
M170.011017,152.905334 
	C169.207672,154.105438 168.567337,154.966995 167.927002,155.828537 
	C167.479370,155.644302 167.031723,155.460052 166.584091,155.275803 
	C168.095963,150.671097 169.607834,146.066391 171.119690,141.461685 
	C171.755875,141.618912 172.392044,141.776138 173.028229,141.933365 
	C172.076828,145.477829 171.125427,149.022308 170.011017,152.905334 
z"/>
<path fill="#BDB29C" opacity="1.000000" stroke="none" 
	d="
M147.337677,169.439850 
	C148.551147,166.413300 149.932053,166.191223 151.766281,168.346924 
	C153.662735,170.575806 153.488052,173.623032 151.261200,177.266022 
	C150.023010,174.771210 148.778397,172.280136 147.337677,169.439850 
z"/>
<path fill="#7A6F77" opacity="1.000000" stroke="none" 
	d="
M132.999756,80.414246 
	C133.377808,79.970604 133.764526,79.935707 134.442184,79.898827 
	C134.473648,82.404633 134.792130,85.176201 133.800186,87.349716 
	C132.698914,89.762764 130.401978,91.630127 128.318756,93.872696 
	C127.607437,93.083382 127.202988,92.156471 127.032394,91.081001 
	C131.022049,88.608749 133.608765,85.621010 132.999756,80.414246 
z"/>
<path fill="#897F6D" opacity="1.000000" stroke="none" 
	d="
M120.526886,173.959839 
	C125.800407,173.956345 130.634430,173.956345 135.468445,173.956345 
	C135.459015,174.470566 135.449585,174.984772 135.440155,175.498993 
	C129.557983,175.498993 123.675812,175.498993 117.793648,175.498993 
	C117.740906,175.232391 117.688164,174.965790 117.635422,174.699203 
	C118.452744,174.453918 119.270073,174.208633 120.526886,173.959839 
z"/>
<path fill="#CAC0A3" opacity="1.000000" stroke="none" 
	d="
M140.466568,171.919220 
	C141.813080,168.570572 143.797318,169.303329 144.543350,171.528854 
	C145.266876,173.687180 144.700287,176.277985 144.700287,178.678848 
	C144.043793,178.766617 143.387299,178.854385 142.730804,178.942139 
	C141.984070,176.725403 141.237320,174.508652 140.466568,171.919220 
z"/>
<path fill="#C2A86D" opacity="1.000000" stroke="none" 
	d="
M100.514534,173.839722 
	C101.536140,172.160461 102.593803,170.839264 103.651482,169.518082 
	C103.980690,172.409607 104.309891,175.301117 104.639091,178.192642 
	C103.980324,178.340179 103.321548,178.487701 102.662781,178.635239 
	C101.958717,177.156097 101.254662,175.676941 100.514534,173.839722 
z"/>
<path fill="#A99268" opacity="1.000000" stroke="none" 
	d="
M159.291412,195.612671 
	C159.151016,199.559479 158.434677,202.773956 153.872070,205.240479 
	C155.611511,200.229843 157.005859,196.213272 158.400208,192.196701 
	C158.804230,192.265198 159.208252,192.333679 159.612259,192.402176 
	C159.539642,193.346909 159.467026,194.291626 159.291412,195.612671 
z"/>
<path fill="#A99268" opacity="1.000000" stroke="none" 
	d="
M107.809723,123.140022 
	C107.022751,121.879456 106.504768,120.849442 106.011292,119.868156 
	C109.559776,120.353958 112.610062,120.771553 115.881905,121.219482 
	C114.071266,124.419357 111.566925,125.377953 107.809723,123.140022 
z"/>
<path fill="#B69D6B" opacity="1.000000" stroke="none" 
	d="
M105.556831,106.317535 
	C108.448364,106.648804 111.330544,107.291908 115.285156,108.174301 
	C113.755058,109.104790 112.013382,110.941566 111.031212,110.599236 
	C108.990044,109.887810 107.351509,108.021179 105.556831,106.317535 
z"/>
<path fill="#BDB29C" opacity="1.000000" stroke="none" 
	d="
M155.335800,64.990410 
	C152.803955,63.905041 150.632080,62.807770 147.794724,61.374275 
	C149.987747,60.791859 151.625427,60.356934 153.642273,59.853096 
	C155.067978,61.252026 156.114471,62.719875 157.148315,64.558540 
	C156.655685,64.945740 156.175735,64.962128 155.335800,64.990410 
z"/>
<path fill="#A99268" opacity="1.000000" stroke="none" 
	d="
M115.716187,136.033264 
	C112.272278,137.851242 110.169373,136.504486 108.123734,133.833176 
	C111.384880,133.528030 114.260582,133.258957 117.681511,132.938873 
	C117.153725,133.858170 116.585999,134.847046 115.716187,136.033264 
z"/>
<path fill="#897F6D" opacity="1.000000" stroke="none" 
	d="
M79.819359,174.074707 
	C83.550209,173.998413 86.879745,173.998413 90.209290,173.998413 
	C90.209236,174.552567 90.209190,175.106705 90.209137,175.660858 
	C86.493378,175.660858 82.777618,175.660858 79.061859,175.660858 
	C79.180595,175.157562 79.299324,174.654282 79.819359,174.074707 
z"/>
<path fill="#7A6F77" opacity="1.000000" stroke="none" 
	d="
M125.939667,82.357544 
	C126.593575,82.544151 127.232643,83.028641 127.759094,83.837845 
	C127.072594,83.660187 126.498711,83.157814 125.939667,82.357544 
z"/>
<path fill="#181E2D" opacity="1.000000" stroke="none" 
	d="
M599.056641,130.290100 
	C598.924683,112.890205 598.733093,95.918968 598.872986,78.950470 
	C598.931580,71.848740 603.959106,66.987259 610.351685,67.024094 
	C616.563049,67.059883 621.384644,71.697830 621.508545,78.688477 
	C621.797668,94.991447 621.823181,111.301628 621.728882,127.607582 
	C621.692749,133.862595 617.282043,139.075592 612.034058,139.918808 
	C606.158386,140.862854 601.704102,137.687286 599.056641,130.290100 
z"/>
<path fill="#1B2130" opacity="1.000000" stroke="none" 
	d="
M674.459961,69.560745 
	C681.371765,67.531113 688.459106,66.249489 694.148071,71.403000 
	C699.430298,76.188065 698.925781,82.772858 697.098999,89.062706 
	C695.082397,96.006241 690.881958,98.898598 683.508118,98.926529 
	C680.698975,98.937172 677.889709,98.928261 674.369263,98.928261 
	C674.369263,89.113419 674.369263,79.560379 674.459961,69.560745 
z"/>
<path fill="#353B48" opacity="1.000000" stroke="none" 
	d="
M459.670624,205.089935 
	C461.429108,200.747345 463.180786,196.841995 469.266571,195.965790 
	C468.283630,199.882050 467.472961,203.111969 466.536621,206.842545 
	C464.120361,206.367661 461.871216,205.925613 459.670624,205.089935 
z"/>
<path fill="#353B48" opacity="1.000000" stroke="none" 
	d="
M331.635437,197.234970 
	C330.501648,201.726151 327.284058,203.168930 323.257141,203.902328 
	C324.025543,197.785461 326.097687,196.108383 331.635437,197.234970 
z"/>
<path fill="#353B48" opacity="1.000000" stroke="none" 
	d="
M363.309204,199.327667 
	C364.304840,197.377274 365.072479,195.729004 365.840118,194.080719 
	C369.282196,199.784027 366.241760,204.557831 358.700287,208.159576 
	C360.578430,204.502777 361.829834,202.066284 363.309204,199.327667 
z"/>
<path fill="#414753" opacity="1.000000" stroke="none" 
	d="
M488.771759,196.905640 
	C487.419189,198.136093 486.184875,199.018829 484.950562,199.901566 
	C484.517365,199.289200 483.595154,198.298248 483.729218,198.125046 
	C484.698029,196.873611 485.880493,195.787613 486.995270,194.649185 
	C487.626862,195.285431 488.258423,195.921692 488.771759,196.905640 
z"/>
<path fill="#414753" opacity="1.000000" stroke="none" 
	d="
M632.779053,197.323120 
	C632.043030,202.428818 628.567993,204.703018 624.560669,206.851532 
	C625.157532,201.239700 629.039307,196.669678 632.779053,197.323120 
z"/>
<path fill="#131A28" opacity="1.000000" stroke="none" 
	d="
M592.250000,196.250000 
	C592.533325,196.299835 592.566711,196.599670 592.600098,196.899506 
	C592.400085,196.766327 592.200012,196.633163 592.250000,196.250000 
z"/>
<path fill="#372D53" opacity="1.000000" stroke="none" 
	d="
M149.661163,136.410553 
	C149.689865,136.708649 149.570786,136.816452 149.451706,136.924255 
	C149.353195,136.797409 149.169754,136.663101 149.180069,136.545807 
	C149.190369,136.428436 149.394318,136.328079 149.661163,136.410553 
z"/>
<path fill="#372D53" opacity="1.000000" stroke="none" 
	d="
M138.730453,88.302940 
	C138.447983,88.182106 138.274857,87.937485 138.101715,87.692871 
	C138.360687,87.626816 138.619675,87.560753 138.968948,87.713501 
	C139.059250,87.932304 138.839783,88.179161 138.730453,88.302940 
z"/>
<path fill="#D5D6D9" opacity="1.000000" stroke="none" 
	d="
M149.434265,66.897392 
	C150.262024,67.079689 151.718704,67.092850 151.820267,67.470444 
	C152.835052,71.243935 151.651535,74.257881 148.146744,76.149200 
	C145.292191,77.689644 139.082184,76.370796 137.908325,73.854912 
	C137.669556,73.343155 138.741196,72.219978 139.748932,71.609032 
	C146.189606,74.549683 149.098495,72.977722 149.434265,66.897392 
z"/>
<path fill="#506C8C" opacity="1.000000" stroke="none" 
	d="
M149.089661,66.917816 
	C149.098495,72.977722 146.189606,74.549683 140.043091,71.561691 
	C142.779709,69.835396 145.762375,68.386818 149.089661,66.917816 
z"/>
</svg>