<svg version="1.1" id="Layer_1" xmlns="http://www.w3.org/2000/svg" xmlns:xlink="http://www.w3.org/1999/xlink" x="0px" y="0px"
	 width="100%" viewBox="0 0 553 391" enable-background="new 0 0 553 391" xml:space="preserve">
<path fill="#111827" opacity="1.000000" stroke="none" 
	d="
M347.000000,392.000000 
	C231.333328,392.000000 116.166664,392.000000 1.000000,392.000000 
	C1.000000,261.666656 1.000000,131.333328 1.000000,1.000000 
	C185.333328,1.000000 369.666656,1.000000 554.000000,1.000000 
	C554.000000,131.333328 554.000000,261.666656 554.000000,392.000000 
	C485.166656,392.000000 416.333344,392.000000 347.000000,392.000000 
M196.469833,43.163742 
	C190.377365,47.803726 183.873276,51.995850 178.258881,57.155983 
	C140.306168,92.037933 123.616325,135.256821 129.636993,186.500565 
	C133.995071,223.593582 151.125671,254.399216 179.142929,279.941223 
	C181.991074,289.215118 183.812088,290.905884 191.123734,291.033478 
	C192.771164,291.062225 194.419296,291.050568 196.189438,291.711823 
	C198.792343,293.229370 201.395248,294.746887 203.940079,297.165344 
	C202.297256,318.032196 209.812912,335.359283 226.014343,348.045959 
	C234.916473,355.016846 245.479874,359.969269 255.588226,365.271271 
	C268.822266,372.212738 282.417267,371.876740 295.963654,365.800903 
	C298.391449,364.711945 300.898743,363.796661 303.306488,362.667145 
	C320.869904,354.427856 336.019989,343.588837 344.401978,325.202087 
	C348.605560,315.981049 349.364838,306.319336 349.755096,296.243561 
	C352.074188,294.532806 354.393280,292.822021 357.650269,291.121246 
	C369.754333,290.817505 372.242554,288.931213 373.661041,279.172485 
	C375.371552,277.619934 377.164215,276.148071 378.780579,274.502991 
	C420.903687,231.630859 434.308868,181.053421 417.430054,123.431877 
	C407.272980,88.757286 385.658356,61.962364 355.056274,41.892059 
	C356.757965,36.367821 358.689667,30.901262 360.093597,25.302357 
	C361.374664,20.193459 360.325500,18.566521 355.016663,19.246389 
	C345.029175,20.525431 335.154419,22.694567 325.242218,24.544178 
	C323.142944,24.935900 321.084106,25.544491 318.246429,25.965382 
	C289.885712,17.615395 261.548828,17.964804 232.439804,26.032524 
	C230.209976,25.388941 228.012665,24.581833 225.744568,24.130722 
	C216.990768,22.389656 208.271759,20.255817 199.428146,19.253349 
	C192.397842,18.456430 191.179749,20.503984 192.919876,27.414829 
	C194.206726,32.525459 195.636032,37.600216 196.469833,43.163742 
z"/>
<path fill="#352B52" opacity="1.000000" stroke="none" 
	d="
M373.008728,279.478241 
	C372.242554,288.931213 369.754333,290.817505 356.760681,291.147156 
	C348.117584,291.051697 348.117584,291.051697 349.040649,296.427307 
	C349.364838,306.319336 348.605560,315.981049 344.401978,325.202087 
	C336.019989,343.588837 320.869904,354.427856 303.306488,362.667145 
	C300.898743,363.796661 298.391449,364.711945 295.963654,365.800903 
	C282.417267,371.876740 268.822266,372.212738 255.588226,365.271271 
	C245.479874,359.969269 234.916473,355.016846 226.014343,348.045959 
	C209.812912,335.359283 202.297256,318.032196 204.008575,296.348755 
	C204.772476,292.513550 204.008453,290.739044 200.472214,291.077698 
	C199.017807,291.216919 197.536301,291.072815 196.067108,291.057556 
	C194.419296,291.050568 192.771164,291.062225 191.123734,291.033478 
	C183.812088,290.905884 181.991074,289.215118 179.392609,279.447174 
	C183.005844,272.985229 188.282013,271.201050 194.789291,271.868896 
	C196.930237,272.088623 199.115723,271.966278 201.276276,271.882599 
	C205.140640,271.732910 206.785980,269.097168 205.110001,265.513519 
	C204.200043,263.567810 202.845993,261.832520 201.726135,259.981812 
	C187.246201,236.052032 175.743484,210.852631 169.667862,183.426056 
	C164.326660,159.314941 163.355545,135.243835 171.930573,111.573189 
	C177.000717,97.577469 184.861923,85.267838 198.426193,78.447716 
	C205.011414,75.136665 209.284119,71.178955 211.786057,64.472511 
	C212.726425,61.951874 212.939438,60.501842 211.009415,58.379375 
	C207.331451,54.334705 204.153015,49.839993 200.639313,45.639069 
	C199.656616,44.464176 198.226669,43.663368 197.001892,42.690956 
	C195.636032,37.600216 194.206726,32.525459 192.919876,27.414829 
	C191.179749,20.503984 192.397842,18.456430 199.428146,19.253349 
	C208.271759,20.255817 216.990768,22.389656 225.744568,24.130722 
	C228.012665,24.581833 230.209976,25.388941 232.966690,26.402611 
	C236.359680,28.710102 239.416565,30.421490 242.045181,32.640247 
	C245.591293,35.633434 249.154343,35.872143 253.567047,34.765743 
	C268.350037,31.059187 283.386169,30.764301 298.092438,34.594574 
	C307.800568,37.123066 312.916565,31.001484 319.006653,26.053164 
	C321.084106,25.544491 323.142944,24.935900 325.242218,24.544178 
	C335.154419,22.694567 345.029175,20.525431 355.016663,19.246389 
	C360.325500,18.566521 361.374664,20.193459 360.093597,25.302357 
	C358.689667,30.901262 356.757965,36.367821 354.679810,42.334023 
	C349.801208,48.301411 345.217804,53.764481 340.880493,59.416416 
	C340.193665,60.311459 340.214996,62.192101 340.611786,63.382877 
	C341.394714,65.732765 342.533936,67.997696 343.784027,70.147621 
	C344.806580,71.906136 345.866943,74.323196 347.488129,74.946754 
	C362.107452,80.569901 371.505829,91.397850 377.915833,105.110054 
	C386.105377,122.628922 387.950195,141.233688 386.323120,160.273392 
	C383.946808,188.079941 374.948059,213.909271 362.332031,238.575821 
	C357.937836,247.167206 353.025421,255.492844 348.383301,263.958313 
	C345.510986,269.196320 346.976562,271.839325 352.732788,271.897736 
	C354.730835,271.918030 356.744995,272.064941 358.724548,271.873108 
	C365.207581,271.244781 370.146912,273.373810 373.008728,279.478241 
M274.605011,108.330452 
	C274.758148,108.679398 274.911285,109.028343 275.064453,109.377281 
	C275.511322,109.031830 275.958191,108.686378 276.971466,108.257675 
	C277.539642,108.198517 278.107788,108.139359 278.779327,108.931068 
	C278.625000,110.913826 278.470642,112.896591 277.872375,115.168625 
	C277.914276,116.112289 277.956146,117.055954 278.050385,118.902115 
	C277.831726,121.001465 277.613068,123.100815 277.286133,125.812241 
	C278.113708,126.399643 278.941284,126.987045 279.446594,128.280548 
	C278.504150,129.544418 277.561676,130.808304 276.303070,132.496170 
	C272.643585,128.270676 269.337311,124.453033 266.031036,120.635391 
	C265.502350,121.036407 264.973663,121.437424 264.444977,121.838432 
	C268.165955,127.817017 271.886932,133.795593 276.287231,140.865662 
	C281.985199,134.656799 286.660492,129.562271 291.021851,124.809845 
	C297.457275,126.519966 303.819336,128.210602 310.181427,129.901230 
	C310.337219,129.371246 310.493042,128.841263 310.648865,128.311279 
	C308.040100,126.586365 305.276337,125.051239 302.866577,123.082687 
	C300.498047,121.147812 298.488983,118.772903 296.322174,116.591080 
	C296.672302,116.209625 297.022430,115.828171 297.372559,115.446716 
	C298.796509,116.173729 300.162933,117.059822 301.654724,117.599068 
	C306.955536,119.515175 312.172028,122.013763 317.653290,123.007797 
	C328.588989,124.990990 338.696198,120.339386 342.873596,111.921577 
	C347.690094,102.215935 345.610535,92.642006 342.671326,84.254089 
	C341.651276,90.405739 341.216797,97.611786 339.138153,104.307426 
	C336.940674,111.385887 331.093567,115.359009 323.569702,115.647263 
	C315.845154,115.943192 309.045441,112.782982 302.822571,108.469856 
	C302.021881,107.914886 301.960358,106.293480 301.417603,104.778633 
	C307.286774,107.034515 312.073334,108.874283 317.296967,111.214676 
	C319.571228,110.973076 321.845490,110.731476 324.790619,110.187042 
	C331.562012,108.033875 335.093689,103.175041 336.085846,96.359306 
	C337.604584,85.926483 334.368530,76.301025 330.709473,66.799217 
	C330.381073,65.946457 328.936890,64.767426 328.281982,64.918121 
	C323.780060,65.954025 319.350372,67.303833 314.897430,68.552620 
	C314.992249,69.049973 315.087067,69.547333 315.181885,70.044685 
	C316.041901,70.301224 316.949677,70.883194 317.754639,70.764992 
	C328.162048,69.236832 328.962982,69.628235 329.985962,80.111420 
	C330.363007,83.975426 330.043365,88.152702 328.949219,91.865166 
	C326.486847,100.219673 319.774017,104.236626 311.290924,102.620026 
	C307.777222,101.950439 304.260345,100.539230 301.129517,98.780540 
	C295.051819,95.366470 295.164520,95.165863 290.321716,100.642593 
	C294.392029,107.223801 293.530487,111.615601 286.061401,119.988060 
	C285.193298,119.963028 284.325195,119.937996 283.784363,119.280716 
	C287.917969,113.606873 292.674042,108.029366 287.289886,100.595100 
	C284.523529,96.775436 284.526215,93.774475 287.087891,89.137199 
	C294.688049,75.378960 305.550964,65.254410 318.596405,57.096302 
	C320.322571,56.016846 322.368835,55.449268 324.266846,54.644627 
	C324.409058,54.883347 324.551270,55.122063 324.693481,55.360783 
	C322.986481,57.614994 321.279449,59.869205 319.316071,62.461979 
	C335.869843,59.551468 352.555664,41.393730 351.128113,28.153646 
	C350.361023,28.086504 349.552063,27.957830 348.742432,27.953413 
	C333.916840,27.872530 322.082947,34.390167 312.226013,44.894562 
	C305.846924,51.692669 300.146484,59.152084 293.532745,65.699852 
	C283.149963,75.979134 272.564728,76.375389 260.844788,67.716492 
	C259.092773,66.422081 257.368011,65.090775 255.275940,63.508205 
	C255.076080,64.729965 254.783829,65.304314 254.956253,65.639908 
	C259.033295,73.574768 262.956573,81.603111 267.454620,89.294670 
	C268.327881,90.787964 271.477081,90.950294 274.309845,91.886551 
	C274.806793,91.942497 275.303772,91.998451 275.976044,92.965698 
	C275.930969,97.631691 275.885864,102.297691 275.931213,107.001160 
	C275.931213,107.001160 275.961182,106.907944 275.322418,106.795280 
	C275.185150,107.201302 275.047882,107.607315 274.605011,108.330452 
M241.269455,48.086655 
	C241.387283,48.250515 241.505127,48.414371 241.688263,48.669033 
	C241.401169,48.377934 241.192627,48.166481 241.134659,47.248810 
	C239.085251,44.841892 237.035843,42.434971 234.571259,39.483006 
	C224.924072,32.321522 214.752136,26.742725 201.162491,28.382458 
	C207.526352,37.796696 216.920898,41.400520 226.796555,46.854042 
	C225.561432,43.152874 224.759811,40.750736 223.476151,36.904076 
	C227.712646,39.151443 230.659592,40.714733 233.962509,42.864559 
	C236.318665,44.542122 238.674820,46.219688 241.269455,48.086655 
M247.229034,86.339676 
	C247.764755,85.482063 248.300476,84.624451 249.075333,83.384048 
	C240.344666,85.152359 240.344666,85.152359 236.886612,77.681984 
	C235.758118,80.003860 234.849457,81.873466 233.406448,83.064674 
	C233.030502,80.490356 232.654572,77.916046 232.178467,74.655838 
	C227.009323,80.938644 227.982437,89.483673 233.601501,93.915489 
	C240.178268,99.102707 250.703094,97.141151 256.393188,89.545189 
	C254.484818,86.675247 252.571701,84.404869 249.264069,88.201157 
	C248.793549,88.741196 247.773163,88.802132 246.989380,88.345932 
	C246.940704,87.855858 246.892029,87.365776 247.229034,86.339676 
M303.773499,86.376350 
	C303.121277,86.625435 302.469086,86.874519 301.210236,86.900284 
	C299.453491,87.564163 297.696716,88.228035 295.939972,88.891914 
	C295.927521,89.703972 295.915070,90.516029 295.902618,91.328087 
	C300.348907,93.173203 304.650726,95.957253 309.271515,96.668167 
	C318.921570,98.152863 326.740784,87.705338 323.396515,78.526993 
	C322.450989,75.932060 321.206329,73.723106 318.710693,78.275223 
	C318.838226,79.520210 318.965759,80.765198 319.032562,82.864571 
	C318.222595,83.309662 317.412628,83.754753 316.422333,83.282715 
	C316.280670,81.449516 316.139008,79.616318 315.997375,77.783127 
	C312.461578,84.989174 312.466492,84.965424 305.290009,83.478973 
	C304.667633,83.350060 303.923096,83.810654 303.235321,83.997406 
	C303.600372,84.644623 303.965393,85.291840 303.773499,86.376350 
M321.988861,148.979218 
	C321.988861,148.979218 321.945465,148.916840 322.511505,149.623322 
	C321.721832,163.365356 312.371124,174.385330 297.629028,168.016266 
	C297.385773,167.911179 297.002838,168.129440 296.401611,168.256943 
	C291.463989,179.064224 281.013641,180.505539 270.331879,182.967148 
	C272.769714,185.516632 275.291199,188.232925 278.244476,188.836441 
	C286.678925,190.560104 293.242188,186.470703 297.608887,181.452148 
	C302.359863,183.749741 306.618805,187.536728 310.562958,187.233185 
	C314.543762,186.926849 318.212250,182.562973 321.865875,180.079819 
	C321.868195,180.103668 321.952667,180.598145 321.959381,181.093689 
	C322.110687,192.286880 314.528778,198.439865 303.710144,196.162399 
	C302.460388,195.899307 300.625580,196.822235 299.518860,197.743866 
	C294.232025,202.146393 288.251160,204.865616 281.422302,205.479721 
	C278.234833,205.766357 275.000214,205.528748 271.786987,205.528748 
	C281.461792,215.700363 290.829010,211.015427 299.868866,205.584335 
	C309.035034,212.811462 309.239105,212.801620 320.632660,204.849121 
	C320.338623,213.369629 314.838135,220.678040 308.067505,218.773941 
	C300.753662,216.717072 296.894806,220.592041 291.804535,223.358185 
	C288.924103,224.923477 285.610535,225.699585 282.476410,226.786102 
	C281.215515,227.223251 279.912842,227.539932 277.573486,228.216965 
	C284.079529,231.927612 289.608978,230.863358 294.812347,228.751694 
	C297.924988,227.488510 299.867279,227.191208 302.672882,229.643326 
	C307.596405,233.946426 312.886658,232.984207 316.970367,227.864517 
	C317.659454,227.000565 318.394958,226.173584 319.089813,225.352234 
	C327.100128,231.005676 334.425385,228.824768 336.097931,220.269928 
	C331.997131,220.547104 327.397736,221.609207 326.009949,215.744720 
	C337.631714,212.631287 342.028778,207.977676 341.762482,199.378723 
	C330.630920,199.104691 329.497742,198.490570 328.557465,192.222260 
	C339.240662,194.597549 350.193024,183.505829 348.152313,172.378128 
	C339.153992,178.132660 335.157715,178.024323 332.515167,172.534637 
	C335.138306,171.677246 338.605988,171.583466 340.291748,169.802795 
	C345.910645,163.867538 346.762085,156.146027 347.628326,147.577835 
	C339.818451,153.284103 337.333496,154.298126 334.438965,152.131393 
	C332.644257,150.787964 331.620911,148.414078 330.037415,146.204147 
	C333.435486,146.204147 335.778778,146.827545 337.564209,146.093689 
	C344.429352,143.271973 349.499207,127.170891 345.816620,120.149651 
	C343.941620,121.841980 342.374329,124.118881 340.228668,125.022446 
	C334.969177,127.237267 328.935333,127.984039 324.164368,130.885651 
	C319.230377,133.886398 315.925446,139.562775 310.994598,142.572449 
	C303.897217,146.904541 295.978729,145.705551 288.344940,142.344955 
	C284.052582,150.201019 278.283600,155.810913 268.865387,157.621506 
	C271.148407,159.881714 273.466675,162.386551 276.147461,162.866486 
	C283.816071,164.239426 288.208038,158.873596 292.129578,153.205627 
	C293.354279,154.296249 294.195435,155.094513 295.087067,155.831650 
	C302.961365,162.341385 311.836975,161.422409 318.293274,153.458160 
	C319.509491,151.957901 320.788879,150.508850 321.988861,148.979218 
M374.940552,110.531822 
	C370.834869,103.934227 367.047913,97.105438 362.496613,90.831078 
	C360.012146,87.406044 355.863892,85.728172 350.499725,84.540932 
	C366.615509,103.779076 376.213257,128.089066 372.617188,140.049164 
	C368.987946,136.466690 365.479187,133.003174 361.970459,129.539658 
	C361.745789,129.686035 361.521088,129.832428 361.296417,129.978821 
	C366.573212,143.663589 371.850006,157.348358 377.126831,171.033142 
	C383.428955,150.633774 382.586975,130.794724 374.940552,110.531822 
M294.595978,252.856384 
	C292.194305,255.711395 289.792664,258.566437 287.766693,260.974823 
	C293.670532,262.290253 299.258392,259.622711 303.776672,252.086182 
	C305.428772,249.330475 307.139465,247.711243 310.551849,247.296890 
	C315.370087,246.711853 319.020386,244.122650 320.459381,238.201950 
	C313.058350,241.765884 306.279755,242.566711 301.301575,238.374664 
	C294.330872,241.812531 288.390228,244.742371 282.313965,247.739105 
	C286.341187,251.523010 291.248322,249.302429 296.201355,249.211746 
	C295.709595,250.476227 295.366577,251.358276 294.595978,252.856384 
M270.334686,39.696186 
	C269.351685,39.916401 268.368683,40.136616 267.385681,40.356831 
	C267.386230,40.631989 267.386780,40.907146 267.387329,41.182304 
	C273.860840,42.992390 280.334351,44.802479 286.807892,46.612564 
	C286.891815,47.372627 286.975739,48.132687 287.059692,48.892750 
	C282.371887,51.643089 277.684113,54.393425 273.054718,57.109516 
	C280.767059,62.811733 294.157257,56.147507 300.142151,41.636509 
	C290.619507,37.874516 280.960693,36.924698 270.334686,39.696186 
M242.675308,109.306732 
	C245.181015,107.624306 247.686722,105.941887 250.192429,104.259468 
	C250.030807,103.728951 249.869186,103.198433 249.707581,102.667915 
	C241.649536,104.565987 233.307007,108.332268 226.269867,101.169235 
	C219.959167,94.745628 220.991760,86.145958 219.945786,78.033852 
	C218.759323,82.810066 217.911133,87.552040 217.931000,92.290390 
	C217.995789,107.747696 227.381607,114.404427 242.675308,109.306732 
M363.184235,170.033478 
	C363.016052,186.930054 365.754761,200.104584 370.309357,203.473801 
	C377.142853,189.399811 369.319611,177.880737 363.755341,165.894989 
	C363.575806,166.998825 363.396271,168.102646 363.184235,170.033478 
M280.749817,362.986908 
	C285.956665,361.524689 289.222443,357.918335 291.305817,353.158661 
	C295.595886,343.357574 294.862701,333.353271 292.367523,323.290375 
	C291.801575,324.528900 291.547455,325.793152 291.477264,327.067505 
	C290.817047,339.051514 288.496826,350.458344 280.488831,360.011810 
	C279.951813,360.652496 280.176666,361.931824 280.749817,362.986908 
M318.570038,316.974945 
	C317.167328,316.659607 317.098907,316.651794 316.903168,318.367920 
	C315.517975,330.512085 313.348755,342.355347 303.771088,351.669434 
	C310.457581,351.799622 317.929535,345.579498 318.733948,338.370850 
	C319.495850,331.542969 318.762085,324.548218 318.570038,316.974945 
M265.737396,280.831207 
	C273.880951,280.829437 282.025665,280.898407 290.167145,280.767242 
	C291.829376,280.740479 293.479523,279.962280 296.130188,279.270966 
	C290.580933,275.962860 261.913757,276.353607 258.327362,279.806824 
	C260.941742,280.219513 262.874634,280.524628 265.737396,280.831207 
M322.358734,284.117279 
	C323.276947,282.180237 324.454895,280.321045 325.063385,278.291138 
	C326.716949,272.774872 324.911377,266.771790 320.680756,264.698608 
	C319.064453,263.906555 316.776123,264.485809 314.794037,264.440155 
	C315.269592,266.165466 315.216766,268.418884 316.317078,269.519806 
	C320.017883,273.222717 321.713837,277.360016 320.935394,282.566437 
	C320.844879,283.171936 321.615601,283.906189 322.358734,284.117279 
M357.155457,236.730499 
	C361.303345,226.867493 362.388428,220.492096 360.707367,213.952805 
	C357.166718,224.342667 353.841919,234.099167 350.517090,243.855667 
	C351.237732,244.167892 351.958374,244.480118 352.678986,244.792328 
	C354.075317,242.336899 355.471619,239.881470 357.155457,236.730499 
M236.689713,274.347198 
	C235.845520,272.374268 235.196426,270.266205 233.999252,268.537811 
	C233.747498,268.174347 231.073578,268.799774 230.215805,269.664215 
	C226.509399,273.399353 228.754517,283.276001 233.790039,285.710907 
	C234.711090,282.175385 235.626709,278.660767 236.689713,274.347198 
M331.652893,332.231445 
	C337.548920,324.503265 339.038879,315.818146 337.876221,305.428009 
	C334.270294,315.619293 331.046082,324.731781 327.587982,334.505280 
	C328.981506,333.796051 330.044678,333.254944 331.652893,332.231445 
M308.836823,285.165100 
	C311.783936,280.949341 311.996490,276.377014 309.643402,272.028107 
	C308.837280,270.538208 306.364655,269.949951 304.653442,268.949738 
	C304.035156,270.798889 302.687195,272.758392 302.946686,274.474823 
	C303.531708,278.344452 304.884644,282.102448 306.061981,285.863037 
	C306.113098,286.026337 307.524628,285.763733 308.836823,285.165100 
M254.512253,182.244446 
	C255.317688,180.825043 256.123138,179.405624 256.896729,178.042297 
	C250.250931,179.898346 243.681091,181.571884 238.526382,172.622101 
	C239.068985,183.442413 245.926193,187.020355 254.512253,182.244446 
M249.979340,153.939713 
	C245.012192,154.801743 241.130508,153.013504 237.503250,149.372528 
	C237.939667,151.880142 238.451202,154.936951 240.199402,156.048126 
	C242.876358,157.749619 246.420242,158.887619 249.569107,158.828323 
	C252.931824,158.765045 255.037689,155.973984 256.138580,151.802948 
	C253.775864,152.664566 252.274963,153.211914 249.979340,153.939713 
M354.526550,280.828308 
	C358.635101,280.228241 363.215424,282.196472 366.856232,278.198364 
	C359.554504,277.275024 352.293976,277.243042 345.035736,277.356659 
	C344.612885,277.363251 343.796112,278.633484 343.905121,279.162781 
	C344.027466,279.757050 344.963989,280.557343 345.598419,280.607452 
	C348.243713,280.816162 350.908600,280.776489 354.526550,280.828308 
M193.722748,280.829163 
	C199.056259,280.226135 204.715805,282.193420 210.319138,279.301666 
	C206.244064,276.042389 189.692535,276.175659 185.666565,279.931641 
	C188.586517,280.298340 190.695877,280.563263 193.722748,280.829163 
M258.140137,200.034805 
	C252.917633,204.630188 247.606552,204.115891 241.796844,198.831848 
	C243.748657,205.367081 246.886246,208.223328 251.035934,208.082230 
	C255.302109,207.937180 258.090942,205.573563 259.593048,201.707794 
	C259.779449,201.228073 259.051178,200.392914 258.140137,200.034805 
M329.780487,244.115265 
	C327.512268,246.122559 325.244049,248.129837 322.855774,250.243393 
	C328.399384,251.810730 333.854980,249.549484 335.490936,245.058197 
	C336.525726,242.217346 336.003418,239.918640 332.518097,238.915192 
	C331.681671,240.582321 330.946381,242.047913 329.780487,244.115265 
M336.571594,271.347137 
	C336.410248,270.874207 336.393036,270.184540 336.063110,269.965149 
	C334.479126,268.911896 332.810638,267.985718 331.172119,267.014435 
	C331.053436,268.788574 330.457581,270.698334 330.915344,272.308594 
	C331.869354,275.664520 333.380585,278.862030 334.662842,282.124634 
	C335.056976,282.143677 335.451141,282.162750 335.845276,282.181793 
	C336.140381,278.833557 336.435486,275.485291 336.571594,271.347137 
M259.155487,232.768448 
	C261.192596,231.028671 263.229736,229.288879 265.266876,227.549088 
	C264.947632,227.012909 264.628387,226.476730 264.309143,225.940552 
	C258.983063,229.497757 253.570679,230.940964 247.624802,226.250656 
	C249.667770,232.674133 251.994781,233.945511 259.155487,232.768448 
M242.653412,282.366150 
	C243.563858,283.650208 244.474304,284.934265 245.716690,286.686462 
	C246.610931,282.794464 247.646469,279.953979 247.780762,277.071564 
	C247.859985,275.370728 246.511581,273.603363 245.805237,271.865967 
	C244.570633,273.324829 242.853806,274.608856 242.242889,276.293823 
	C241.680862,277.843994 242.308655,279.825500 242.653412,282.366150 
M223.185928,274.041626 
	C222.468597,272.460602 221.751282,270.879578 221.033981,269.298584 
	C219.715546,270.556061 217.460709,271.686951 217.270111,273.096893 
	C216.850266,276.202789 217.472031,279.449524 217.668732,282.638763 
	C218.275192,282.665375 218.881653,282.691986 219.488113,282.718628 
	C220.667648,280.065857 221.847183,277.413116 223.185928,274.041626 
M209.227600,148.899094 
	C213.925873,154.127243 218.201340,154.762527 220.481628,151.365952 
	C216.794968,149.375275 213.056686,147.356735 209.163574,145.254578 
	C209.093155,146.262817 209.026169,147.222122 209.227600,148.899094 
M224.645874,126.595047 
	C223.538742,130.235672 225.495758,132.355804 228.552216,133.344391 
	C231.583664,134.324890 234.209091,133.433289 235.214279,131.286896 
	C231.677933,129.592545 228.496780,128.068375 224.645874,126.595047 
M220.926758,176.859009 
	C218.743347,176.859009 216.559937,176.859009 214.187729,176.859009 
	C215.055573,180.188431 217.553986,181.014557 220.537170,180.782074 
	C223.498779,180.551285 224.768875,178.957764 225.307831,175.075455 
	C223.987076,175.624039 222.822754,176.107651 220.926758,176.859009 
M218.408051,202.306366 
	C220.906479,203.029694 223.455429,204.416260 225.884659,204.231216 
	C227.376373,204.117584 228.684875,201.598679 230.619522,199.597168 
	C225.492004,200.436295 221.841949,201.033646 218.408051,202.306366 
M228.885010,227.127716 
	C234.647949,228.382202 236.497940,227.124191 236.820984,222.322571 
	C233.993942,223.117889 231.008682,223.938110 228.059967,224.873596 
	C227.962509,224.904526 228.236267,226.105530 228.885010,227.127716 
M245.341080,51.859352 
	C245.060791,51.752235 244.780518,51.645119 244.500229,51.538006 
	C244.509262,51.516392 244.518311,51.494781 244.527344,51.473167 
	C244.864929,51.613487 245.202530,51.753811 245.341080,51.859352 
z"/>
<path fill="#75CDC7" opacity="1.000000" stroke="none" 
	d="
M373.334900,279.325378 
	C370.146912,273.373810 365.207581,271.244781 358.724548,271.873108 
	C356.744995,272.064941 354.730835,271.918030 352.732788,271.897736 
	C346.976562,271.839325 345.510986,269.196320 348.383301,263.958313 
	C353.025421,255.492844 357.937836,247.167206 362.332031,238.575821 
	C374.948059,213.909271 383.946808,188.079941 386.323120,160.273392 
	C387.950195,141.233688 386.105377,122.628922 377.915833,105.110054 
	C371.505829,91.397850 362.107452,80.569901 347.488129,74.946754 
	C345.866943,74.323196 344.806580,71.906136 343.784027,70.147621 
	C342.533936,67.997696 341.394714,65.732765 340.611786,63.382877 
	C340.214996,62.192101 340.193665,60.311459 340.880493,59.416416 
	C345.217804,53.764481 349.801208,48.301411 354.655701,42.703007 
	C385.658356,61.962364 407.272980,88.757286 417.430054,123.431877 
	C434.308868,181.053421 420.903687,231.630859 378.780579,274.502991 
	C377.164215,276.148071 375.371552,277.619934 373.334900,279.325378 
z"/>
<path fill="#74CDC6" opacity="1.000000" stroke="none" 
	d="
M196.735870,42.927349 
	C198.226669,43.663368 199.656616,44.464176 200.639313,45.639069 
	C204.153015,49.839993 207.331451,54.334705 211.009415,58.379375 
	C212.939438,60.501842 212.726425,61.951874 211.786057,64.472511 
	C209.284119,71.178955 205.011414,75.136665 198.426193,78.447716 
	C184.861923,85.267838 177.000717,97.577469 171.930573,111.573189 
	C163.355545,135.243835 164.326660,159.314941 169.667862,183.426056 
	C175.743484,210.852631 187.246201,236.052032 201.726135,259.981812 
	C202.845993,261.832520 204.200043,263.567810 205.110001,265.513519 
	C206.785980,269.097168 205.140640,271.732910 201.276276,271.882599 
	C199.115723,271.966278 196.930237,272.088623 194.789291,271.868896 
	C188.282013,271.201050 183.005844,272.985229 179.321976,279.091614 
	C151.125671,254.399216 133.995071,223.593582 129.636993,186.500565 
	C123.616325,135.256821 140.306168,92.037933 178.258881,57.155983 
	C183.873276,51.995850 190.377365,47.803726 196.735870,42.927349 
z"/>
<path fill="#72C8C2" opacity="1.000000" stroke="none" 
	d="
M318.626526,26.009274 
	C312.916565,31.001484 307.800568,37.123066 298.092438,34.594574 
	C283.386169,30.764301 268.350037,31.059187 253.567047,34.765743 
	C249.154343,35.872143 245.591293,35.633434 242.045181,32.640247 
	C239.416565,30.421490 236.359680,28.710102 233.363556,26.485481 
	C261.548828,17.964804 289.885712,17.615395 318.626526,26.009274 
z"/>
<path fill="#66AEAE" opacity="1.000000" stroke="none" 
	d="
M349.397888,296.335449 
	C348.117584,291.051697 348.117584,291.051697 356.291748,291.142181 
	C354.393280,292.822021 352.074188,294.532806 349.397888,296.335449 
z"/>
<path fill="#64A9AB" opacity="1.000000" stroke="none" 
	d="
M196.128265,291.384705 
	C197.536301,291.072815 199.017807,291.216919 200.472214,291.077698 
	C204.008453,290.739044 204.772476,292.513550 204.037598,295.898315 
	C201.395248,294.746887 198.792343,293.229370 196.128265,291.384705 
z"/>
<path fill="#E8DEB4" opacity="1.000000" stroke="none" 
	d="
M322.039124,149.036163 
	C320.788879,150.508850 319.509491,151.957901 318.293274,153.458160 
	C311.836975,161.422409 302.961365,162.341385 295.087067,155.831650 
	C294.195435,155.094513 293.354279,154.296249 292.129578,153.205627 
	C288.208038,158.873596 283.816071,164.239426 276.147461,162.866486 
	C273.466675,162.386551 271.148407,159.881714 268.865387,157.621506 
	C278.283600,155.810913 284.052582,150.201019 288.344940,142.344955 
	C295.978729,145.705551 303.897217,146.904541 310.994598,142.572449 
	C315.925446,139.562775 319.230377,133.886398 324.164368,130.885651 
	C328.935333,127.984039 334.969177,127.237267 340.228668,125.022446 
	C342.374329,124.118881 343.941620,121.841980 345.816620,120.149651 
	C349.499207,127.170891 344.429352,143.271973 337.564209,146.093689 
	C335.778778,146.827545 333.435486,146.204147 330.037415,146.204147 
	C331.620911,148.414078 332.644257,150.787964 334.438965,152.131393 
	C337.333496,154.298126 339.818451,153.284103 347.628326,147.577835 
	C346.762085,156.146027 345.910645,163.867538 340.291748,169.802795 
	C338.605988,171.583466 335.138306,171.677246 332.515167,172.534637 
	C335.157715,178.024323 339.153992,178.132660 348.152313,172.378128 
	C350.193024,183.505829 339.240662,194.597549 328.557465,192.222260 
	C329.497742,198.490570 330.630920,199.104691 341.762482,199.378723 
	C342.028778,207.977676 337.631714,212.631287 326.009949,215.744720 
	C327.397736,221.609207 331.997131,220.547104 336.097931,220.269928 
	C334.425385,228.824768 327.100128,231.005676 319.089813,225.352234 
	C318.394958,226.173584 317.659454,227.000565 316.970367,227.864517 
	C312.886658,232.984207 307.596405,233.946426 302.672882,229.643326 
	C299.867279,227.191208 297.924988,227.488510 294.812347,228.751694 
	C289.608978,230.863358 284.079529,231.927612 277.573486,228.216965 
	C279.912842,227.539932 281.215515,227.223251 282.476410,226.786102 
	C285.610535,225.699585 288.924103,224.923477 291.804535,223.358185 
	C296.894806,220.592041 300.753662,216.717072 308.067505,218.773941 
	C314.838135,220.678040 320.338623,213.369629 320.632660,204.849121 
	C309.239105,212.801620 309.035034,212.811462 299.868866,205.584335 
	C290.829010,211.015427 281.461792,215.700363 271.786987,205.528748 
	C275.000214,205.528748 278.234833,205.766357 281.422302,205.479721 
	C288.251160,204.865616 294.232025,202.146393 299.518860,197.743866 
	C300.625580,196.822235 302.460388,195.899307 303.710144,196.162399 
	C314.528778,198.439865 322.110687,192.286880 321.959381,181.093689 
	C321.952667,180.598145 321.868195,180.103668 321.865875,180.079819 
	C318.212250,182.562973 314.543762,186.926849 310.562958,187.233185 
	C306.618805,187.536728 302.359863,183.749741 297.608887,181.452148 
	C293.242188,186.470703 286.678925,190.560104 278.244476,188.836441 
	C275.291199,188.232925 272.769714,185.516632 270.331879,182.967148 
	C281.013641,180.505539 291.463989,179.064224 296.401611,168.256943 
	C297.002838,168.129440 297.385773,167.911179 297.629028,168.016266 
	C312.371124,174.385330 321.721832,163.365356 322.414551,149.393250 
	C322.344879,148.917191 322.372192,148.671219 322.399506,148.425232 
	C322.279358,148.628876 322.159241,148.832520 322.039124,149.036163 
z"/>
<path fill="#EAE0B4" opacity="1.000000" stroke="none" 
	d="
M273.576447,91.726562 
	C271.477081,90.950294 268.327881,90.787964 267.454620,89.294670 
	C262.956573,81.603111 259.033295,73.574768 254.956253,65.639908 
	C254.783829,65.304314 255.076080,64.729965 255.275940,63.508205 
	C257.368011,65.090775 259.092773,66.422081 260.844788,67.716492 
	C272.564728,76.375389 283.149963,75.979134 293.532745,65.699852 
	C300.146484,59.152084 305.846924,51.692669 312.226013,44.894562 
	C322.082947,34.390167 333.916840,27.872530 348.742432,27.953413 
	C349.552063,27.957830 350.361023,28.086504 351.128113,28.153646 
	C352.555664,41.393730 335.869843,59.551468 319.316071,62.461979 
	C321.279449,59.869205 322.986481,57.614994 324.693481,55.360783 
	C324.551270,55.122063 324.409058,54.883347 324.266846,54.644627 
	C322.368835,55.449268 320.322571,56.016846 318.596405,57.096302 
	C305.550964,65.254410 294.688049,75.378960 287.087891,89.137199 
	C284.526215,93.774475 284.523529,96.775436 287.289886,100.595100 
	C292.674042,108.029366 287.917969,113.606873 283.378906,119.692657 
	C282.559967,120.826599 282.146484,121.548592 281.445312,122.434692 
	C280.467224,123.474663 279.776733,124.350540 278.663300,125.220802 
	C277.958374,125.210182 277.676392,125.205177 277.394409,125.200165 
	C277.613068,123.100815 277.831726,121.001465 278.194519,118.170677 
	C278.331238,116.585945 278.323761,115.732643 278.316284,114.879349 
	C278.470642,112.896591 278.625000,110.913826 278.802002,108.213501 
	C277.830048,107.318520 276.835388,107.141098 275.840759,106.963684 
	C275.885864,102.297691 275.930969,97.631691 275.954315,92.227036 
	C275.147217,91.567772 274.361816,91.647171 273.576447,91.726562 
z"/>
<path fill="#E1D7B0" opacity="1.000000" stroke="none" 
	d="
M286.930542,119.963997 
	C293.530487,111.615601 294.392029,107.223801 290.321716,100.642593 
	C295.164520,95.165863 295.051819,95.366470 301.129517,98.780540 
	C304.260345,100.539230 307.777222,101.950439 311.290924,102.620026 
	C319.774017,104.236626 326.486847,100.219673 328.949219,91.865166 
	C330.043365,88.152702 330.363007,83.975426 329.985962,80.111420 
	C328.962982,69.628235 328.162048,69.236832 317.754639,70.764992 
	C316.949677,70.883194 316.041901,70.301224 315.181885,70.044685 
	C315.087067,69.547333 314.992249,69.049973 314.897430,68.552620 
	C319.350372,67.303833 323.780060,65.954025 328.281982,64.918121 
	C328.936890,64.767426 330.381073,65.946457 330.709473,66.799217 
	C334.368530,76.301025 337.604584,85.926483 336.085846,96.359306 
	C335.093689,103.175041 331.562012,108.033875 324.003113,110.280602 
	C321.097046,110.487465 318.978485,110.600761 316.859894,110.714058 
	C312.073334,108.874283 307.286774,107.034515 301.417603,104.778633 
	C301.960358,106.293480 302.021881,107.914886 302.822571,108.469856 
	C309.045441,112.782982 315.845154,115.943192 323.569702,115.647263 
	C331.093567,115.359009 336.940674,111.385887 339.138153,104.307426 
	C341.216797,97.611786 341.651276,90.405739 342.671326,84.254089 
	C345.610535,92.642006 347.690094,102.215935 342.873596,111.921577 
	C338.696198,120.339386 328.588989,124.990990 317.653290,123.007797 
	C312.172028,122.013763 306.955536,119.515175 301.654724,117.599068 
	C300.162933,117.059822 298.796509,116.173729 297.372559,115.446716 
	C297.022430,115.828171 296.672302,116.209625 296.322174,116.591080 
	C298.488983,118.772903 300.498047,121.147812 302.866577,123.082687 
	C305.276337,125.051239 308.040100,126.586365 310.648865,128.311279 
	C310.493042,128.841263 310.337219,129.371246 310.181427,129.901230 
	C303.819336,128.210602 297.457275,126.519966 291.021851,124.809845 
	C286.660492,129.562271 281.985199,134.656799 276.287231,140.865662 
	C271.886932,133.795593 268.165955,127.817017 264.444977,121.838432 
	C264.973663,121.437424 265.502350,121.036407 266.031036,120.635391 
	C269.337311,124.453033 272.643585,128.270676 276.303070,132.496170 
	C277.561676,130.808304 278.504150,129.544418 279.583374,127.901115 
	C279.720154,127.521683 279.646057,127.519775 279.939087,127.512520 
	C281.134155,126.635712 282.036194,125.766159 283.231873,124.761368 
	C284.660492,123.072083 285.795532,121.518044 286.930542,119.963997 
z"/>
<path fill="#E3D9B1" opacity="1.000000" stroke="none" 
	d="
M375.084534,110.886589 
	C382.586975,130.794724 383.428955,150.633774 377.126831,171.033142 
	C371.850006,157.348358 366.573212,143.663589 361.296417,129.978821 
	C361.521088,129.832428 361.745789,129.686035 361.970459,129.539658 
	C365.479187,133.003174 368.987946,136.466690 372.617188,140.049164 
	C376.213257,128.089066 366.615509,103.779076 350.499725,84.540932 
	C355.863892,85.728172 360.012146,87.406044 362.496613,90.831078 
	C367.047913,97.105438 370.834869,103.934227 375.084534,110.886589 
z"/>
<path fill="#D8BC72" opacity="1.000000" stroke="none" 
	d="
M294.809753,252.548340 
	C295.366577,251.358276 295.709595,250.476227 296.201355,249.211746 
	C291.248322,249.302429 286.341187,251.523010 282.313965,247.739105 
	C288.390228,244.742371 294.330872,241.812531 301.301575,238.374664 
	C306.279755,242.566711 313.058350,241.765884 320.459381,238.201950 
	C319.020386,244.122650 315.370087,246.711853 310.551849,247.296890 
	C307.139465,247.711243 305.428772,249.330475 303.776672,252.086182 
	C299.258392,259.622711 293.670532,262.290253 287.766693,260.974823 
	C289.792664,258.566437 292.194305,255.711395 294.809753,252.548340 
z"/>
<path fill="#D7BB72" opacity="1.000000" stroke="none" 
	d="
M270.658081,39.465714 
	C280.960693,36.924698 290.619507,37.874516 300.142151,41.636509 
	C294.157257,56.147507 280.767059,62.811733 273.054718,57.109516 
	C277.684113,54.393425 282.371887,51.643089 287.059692,48.892750 
	C286.975739,48.132687 286.891815,47.372627 286.807892,46.612564 
	C280.334351,44.802479 273.860840,42.992390 267.387329,41.182304 
	C267.386780,40.907146 267.386230,40.631989 267.385681,40.356831 
	C268.368683,40.136616 269.351685,39.916401 270.658081,39.465714 
z"/>
<path fill="#E3D9B1" opacity="1.000000" stroke="none" 
	d="
M233.606537,42.278023 
	C230.659592,40.714733 227.712646,39.151443 223.476151,36.904076 
	C224.759811,40.750736 225.561432,43.152874 226.796555,46.854042 
	C216.920898,41.400520 207.526352,37.796696 201.162491,28.382458 
	C214.752136,26.742725 224.924072,32.321522 234.687683,40.082222 
	C234.404938,41.213634 234.005737,41.745831 233.606537,42.278023 
z"/>
<path fill="#D0B570" opacity="1.000000" stroke="none" 
	d="
M242.329285,109.467133 
	C227.381607,114.404427 217.995789,107.747696 217.931000,92.290390 
	C217.911133,87.552040 218.759323,82.810066 219.945786,78.033852 
	C220.991760,86.145958 219.959167,94.745628 226.269867,101.169235 
	C233.307007,108.332268 241.649536,104.565987 249.707581,102.667915 
	C249.869186,103.198433 250.030807,103.728951 250.192429,104.259468 
	C247.686722,105.941887 245.181015,107.624306 242.329285,109.467133 
z"/>
<path fill="#D5B971" opacity="1.000000" stroke="none" 
	d="
M363.200500,169.619965 
	C363.396271,168.102646 363.575806,166.998825 363.755341,165.894989 
	C369.319611,177.880737 377.142853,189.399811 370.309357,203.473801 
	C365.754761,200.104584 363.016052,186.930054 363.200500,169.619965 
z"/>
<path fill="#EAE9EE" opacity="1.000000" stroke="none" 
	d="
M316.602661,84.199860 
	C317.412628,83.754753 318.222595,83.309662 319.269775,82.135376 
	C319.375916,80.227600 319.244873,79.049011 319.113831,77.870422 
	C321.206329,73.723106 322.450989,75.932060 323.396515,78.526993 
	C326.740784,87.705338 318.921570,98.152863 309.271515,96.668167 
	C304.650726,95.957253 300.348907,93.173203 295.902618,91.328087 
	C295.915070,90.516029 295.927521,89.703972 295.939972,88.891914 
	C297.696716,88.228035 299.453491,87.564163 301.735077,87.305801 
	C308.304321,91.187195 313.321106,91.287117 316.376099,87.718643 
	C316.922394,87.080505 316.426697,85.550301 316.494446,84.413109 
	C316.576813,84.394218 316.602661,84.199860 316.602661,84.199860 
z"/>
<path fill="#EAE9EE" opacity="1.000000" stroke="none" 
	d="
M247.007263,89.084816 
	C247.773163,88.802132 248.793549,88.741196 249.264069,88.201157 
	C252.571701,84.404869 254.484818,86.675247 256.393188,89.545189 
	C250.703094,97.141151 240.178268,99.102707 233.601501,93.915489 
	C227.982437,89.483673 227.009323,80.938644 232.178467,74.655838 
	C232.654572,77.916046 233.030502,80.490356 233.604980,83.580154 
	C234.019028,84.408211 234.234543,84.720795 234.576813,85.389496 
	C238.666824,90.671646 241.191742,91.356911 247.007263,89.084816 
z"/>
<path fill="#D2B771" opacity="1.000000" stroke="none" 
	d="
M280.398499,362.950500 
	C280.176666,361.931824 279.951813,360.652496 280.488831,360.011810 
	C288.496826,350.458344 290.817047,339.051514 291.477264,327.067505 
	C291.547455,325.793152 291.801575,324.528900 292.367523,323.290375 
	C294.862701,333.353271 295.595886,343.357574 291.305817,353.158661 
	C289.222443,357.918335 285.956665,361.524689 280.398499,362.950500 
z"/>
<path fill="#D1B670" opacity="1.000000" stroke="none" 
	d="
M318.628052,317.300903 
	C318.762085,324.548218 319.495850,331.542969 318.733948,338.370850 
	C317.929535,345.579498 310.457581,351.799622 303.771088,351.669434 
	C313.348755,342.355347 315.517975,330.512085 316.903168,318.367920 
	C317.098907,316.651794 317.167328,316.659607 318.628052,317.300903 
z"/>
<path fill="#9A9073" opacity="1.000000" stroke="none" 
	d="
M265.272461,280.830475 
	C262.874634,280.524628 260.941742,280.219513 258.327362,279.806824 
	C261.913757,276.353607 290.580933,275.962860 296.130188,279.270966 
	C293.479523,279.962280 291.829376,280.740479 290.167145,280.767242 
	C282.025665,280.898407 273.880951,280.829437 265.272461,280.830475 
z"/>
<path fill="#DAD0AC" opacity="1.000000" stroke="none" 
	d="
M322.172913,284.348999 
	C321.615601,283.906189 320.844879,283.171936 320.935394,282.566437 
	C321.713837,277.360016 320.017883,273.222717 316.317078,269.519806 
	C315.216766,268.418884 315.269592,266.165466 314.794037,264.440155 
	C316.776123,264.485809 319.064453,263.906555 320.680756,264.698608 
	C324.911377,266.771790 326.716949,272.774872 325.063385,278.291138 
	C324.454895,280.321045 323.276947,282.180237 322.172913,284.348999 
z"/>
<path fill="#C3A96D" opacity="1.000000" stroke="none" 
	d="
M357.011688,237.078278 
	C355.471619,239.881470 354.075317,242.336899 352.678986,244.792328 
	C351.958374,244.480118 351.237732,244.167892 350.517090,243.855667 
	C353.841919,234.099167 357.166718,224.342667 360.707367,213.952805 
	C362.388428,220.492096 361.303345,226.867493 357.011688,237.078278 
z"/>
<path fill="#D5B971" opacity="1.000000" stroke="none" 
	d="
M236.616013,274.746674 
	C235.626709,278.660767 234.711090,282.175385 233.790039,285.710907 
	C228.754517,283.276001 226.509399,273.399353 230.215805,269.664215 
	C231.073578,268.799774 233.747498,268.174347 233.999252,268.537811 
	C235.196426,270.266205 235.845520,272.374268 236.616013,274.746674 
z"/>
<path fill="#CCB16F" opacity="1.000000" stroke="none" 
	d="
M331.380371,332.472656 
	C330.044678,333.254944 328.981506,333.796051 327.587982,334.505280 
	C331.046082,324.731781 334.270294,315.619293 337.876221,305.428009 
	C339.038879,315.818146 337.548920,324.503265 331.380371,332.472656 
z"/>
<path fill="#E1D7B0" opacity="1.000000" stroke="none" 
	d="
M308.569641,285.432312 
	C307.524628,285.763733 306.113098,286.026337 306.061981,285.863037 
	C304.884644,282.102448 303.531708,278.344452 302.946686,274.474823 
	C302.687195,272.758392 304.035156,270.798889 304.653442,268.949738 
	C306.364655,269.949951 308.837280,270.538208 309.643402,272.028107 
	C311.996490,276.377014 311.783936,280.949341 308.569641,285.432312 
z"/>
<path fill="#CDB270" opacity="1.000000" stroke="none" 
	d="
M254.242493,182.478134 
	C245.926193,187.020355 239.068985,183.442413 238.526382,172.622101 
	C243.681091,181.571884 250.250931,179.898346 256.896729,178.042297 
	C256.123138,179.405624 255.317688,180.825043 254.242493,182.478134 
z"/>
<path fill="#C9AF6F" opacity="1.000000" stroke="none" 
	d="
M250.376709,153.849487 
	C252.274963,153.211914 253.775864,152.664566 256.138580,151.802948 
	C255.037689,155.973984 252.931824,158.765045 249.569107,158.828323 
	C246.420242,158.887619 242.876358,157.749619 240.199402,156.048126 
	C238.451202,154.936951 237.939667,151.880142 237.503250,149.372528 
	C241.130508,153.013504 245.012192,154.801743 250.376709,153.849487 
z"/>
<path fill="#9A9073" opacity="1.000000" stroke="none" 
	d="
M354.046417,280.828094 
	C350.908600,280.776489 348.243713,280.816162 345.598419,280.607452 
	C344.963989,280.557343 344.027466,279.757050 343.905121,279.162781 
	C343.796112,278.633484 344.612885,277.363251 345.035736,277.356659 
	C352.293976,277.243042 359.554504,277.275024 366.856232,278.198364 
	C363.215424,282.196472 358.635101,280.228241 354.046417,280.828094 
z"/>
<path fill="#9A9073" opacity="1.000000" stroke="none" 
	d="
M193.263992,280.828674 
	C190.695877,280.563263 188.586517,280.298340 185.666565,279.931641 
	C189.692535,276.175659 206.244064,276.042389 210.319138,279.301666 
	C204.715805,282.193420 199.056259,280.226135 193.263992,280.828674 
z"/>
<path fill="#C3A96D" opacity="1.000000" stroke="none" 
	d="
M258.443420,199.878632 
	C259.051178,200.392914 259.779449,201.228073 259.593048,201.707794 
	C258.090942,205.573563 255.302109,207.937180 251.035934,208.082230 
	C246.886246,208.223328 243.748657,205.367081 241.796844,198.831848 
	C247.606552,204.115891 252.917633,204.630188 258.443420,199.878632 
z"/>
<path fill="#CEB370" opacity="1.000000" stroke="none" 
	d="
M329.995789,243.814392 
	C330.946381,242.047913 331.681671,240.582321 332.518097,238.915192 
	C336.003418,239.918640 336.525726,242.217346 335.490936,245.058197 
	C333.854980,249.549484 328.399384,251.810730 322.855774,250.243393 
	C325.244049,248.129837 327.512268,246.122559 329.995789,243.814392 
z"/>
<path fill="#D4CAA8" opacity="1.000000" stroke="none" 
	d="
M336.651093,271.742065 
	C336.435486,275.485291 336.140381,278.833557 335.845276,282.181793 
	C335.451141,282.162750 335.056976,282.143677 334.662842,282.124634 
	C333.380585,278.862030 331.869354,275.664520 330.915344,272.308594 
	C330.457581,270.698334 331.053436,268.788574 331.172119,267.014435 
	C332.810638,267.985718 334.479126,268.911896 336.063110,269.965149 
	C336.393036,270.184540 336.410248,270.874207 336.651093,271.742065 
z"/>
<path fill="#BBA26C" opacity="1.000000" stroke="none" 
	d="
M258.805725,232.890350 
	C251.994781,233.945511 249.667770,232.674133 247.624802,226.250656 
	C253.570679,230.940964 258.983063,229.497757 264.309143,225.940552 
	C264.628387,226.476730 264.947632,227.012909 265.266876,227.549088 
	C263.229736,229.288879 261.192596,231.028671 258.805725,232.890350 
z"/>
<path fill="#D1B570" opacity="1.000000" stroke="none" 
	d="
M242.532837,281.991577 
	C242.308655,279.825500 241.680862,277.843994 242.242889,276.293823 
	C242.853806,274.608856 244.570633,273.324829 245.805237,271.865967 
	C246.511581,273.603363 247.859985,275.370728 247.780762,277.071564 
	C247.646469,279.953979 246.610931,282.794464 245.716690,286.686462 
	C244.474304,284.934265 243.563858,283.650208 242.532837,281.991577 
z"/>
<path fill="#D0B570" opacity="1.000000" stroke="none" 
	d="
M223.106323,274.401001 
	C221.847183,277.413116 220.667648,280.065857 219.488113,282.718628 
	C218.881653,282.691986 218.275192,282.665375 217.668732,282.638763 
	C217.472031,279.449524 216.850266,276.202789 217.270111,273.096893 
	C217.460709,271.686951 219.715546,270.556061 221.033966,269.298584 
	C221.751282,270.879578 222.468597,272.460602 223.106323,274.401001 
z"/>
<path fill="#4B98B4" opacity="1.000000" stroke="none" 
	d="
M316.512512,83.741287 
	C316.602661,84.199860 316.576813,84.394218 316.131836,84.595078 
	C312.221344,88.355598 308.427948,88.657906 304.330414,85.939056 
	C303.965393,85.291840 303.600372,84.644623 303.235321,83.997406 
	C303.923096,83.810654 304.667633,83.350060 305.290009,83.478973 
	C312.466492,84.965424 312.461578,84.989174 315.997375,77.783127 
	C316.139008,79.616318 316.280670,81.449516 316.512512,83.741287 
z"/>
<path fill="#4A96B2" opacity="1.000000" stroke="none" 
	d="
M234.450043,85.033379 
	C234.234543,84.720795 234.019028,84.408211 233.872147,83.919357 
	C234.849457,81.873466 235.758118,80.003860 236.886612,77.681984 
	C240.344666,85.152359 240.344666,85.152359 249.075333,83.384048 
	C248.300476,84.624451 247.764755,85.482063 246.682068,86.707382 
	C243.543686,86.695732 240.946533,86.351143 238.363297,85.922539 
	C237.045975,85.703972 235.753662,85.334595 234.450043,85.033379 
z"/>
<path fill="#B79E6B" opacity="1.000000" stroke="none" 
	d="
M209.093384,148.540253 
	C209.026169,147.222122 209.093155,146.262817 209.163574,145.254578 
	C213.056686,147.356735 216.794968,149.375275 220.481628,151.365952 
	C218.201340,154.762527 213.925873,154.127243 209.093384,148.540253 
z"/>
<path fill="#B09869" opacity="1.000000" stroke="none" 
	d="
M224.980759,126.569626 
	C228.496780,128.068375 231.677933,129.592545 235.214279,131.286896 
	C234.209091,133.433289 231.583664,134.324890 228.552216,133.344391 
	C225.495758,132.355804 223.538742,130.235672 224.980759,126.569626 
z"/>
<path fill="#A58E67" opacity="1.000000" stroke="none" 
	d="
M221.292603,176.725128 
	C222.822754,176.107651 223.987076,175.624039 225.307831,175.075455 
	C224.768875,178.957764 223.498779,180.551285 220.537170,180.782074 
	C217.553986,181.014557 215.055573,180.188431 214.187729,176.859009 
	C216.559937,176.859009 218.743347,176.859009 221.292603,176.725128 
z"/>
<path fill="#A99168" opacity="1.000000" stroke="none" 
	d="
M218.299957,201.968689 
	C221.841949,201.033646 225.492004,200.436295 230.619522,199.597168 
	C228.684875,201.598679 227.376373,204.117584 225.884659,204.231216 
	C223.455429,204.416260 220.906479,203.029694 218.299957,201.968689 
z"/>
<path fill="#A79068" opacity="1.000000" stroke="none" 
	d="
M228.610992,226.944427 
	C228.236267,226.105530 227.962509,224.904526 228.059967,224.873596 
	C231.008682,223.938110 233.993942,223.117889 236.820984,222.322571 
	C236.497940,227.124191 234.647949,228.382202 228.610992,226.944427 
z"/>
<path fill="#575778" opacity="1.000000" stroke="none" 
	d="
M304.051941,86.157700 
	C308.427948,88.657906 312.221344,88.355598 316.049500,84.613968 
	C316.426697,85.550301 316.922394,87.080505 316.376099,87.718643 
	C313.321106,91.287117 308.304321,91.187195 302.038391,87.417465 
	C302.469086,86.874519 303.121277,86.625435 304.051941,86.157700 
z"/>
<path fill="#4D4F71" opacity="1.000000" stroke="none" 
	d="
M234.576813,85.389496 
	C235.753662,85.334595 237.045975,85.703972 238.363297,85.922539 
	C240.946533,86.351143 243.543686,86.695732 246.489227,86.975395 
	C246.892029,87.365776 246.940704,87.855858 246.998322,88.715378 
	C241.191742,91.356911 238.666824,90.671646 234.576813,85.389496 
z"/>
<path fill="#C7BDA2" opacity="1.000000" stroke="none" 
	d="
M233.784515,42.571289 
	C234.005737,41.745831 234.404938,41.213634 234.895279,40.354744 
	C237.035843,42.434971 239.085251,44.841892 241.076599,47.592777 
	C241.018555,47.936745 241.030975,47.897259 241.030975,47.897255 
	C238.674820,46.219688 236.318665,44.542122 233.784515,42.571289 
z"/>
<path fill="#5A5067" opacity="1.000000" stroke="none" 
	d="
M286.495972,119.976028 
	C285.795532,121.518044 284.660492,123.072083 283.090332,124.432541 
	C282.347778,123.582832 282.040375,122.926704 281.732971,122.270584 
	C282.146484,121.548592 282.559967,120.826599 283.215271,120.008789 
	C284.325195,119.937996 285.193298,119.963028 286.495972,119.976028 
z"/>
<path fill="#5D5368" opacity="1.000000" stroke="none" 
	d="
M317.078430,110.964371 
	C318.978485,110.600761 321.097046,110.487465 323.667694,110.432022 
	C321.845490,110.731476 319.571228,110.973076 317.078430,110.964371 
z"/>
<path fill="#575778" opacity="1.000000" stroke="none" 
	d="
M318.912262,78.072823 
	C319.244873,79.049011 319.375916,80.227600 319.300140,81.708191 
	C318.965759,80.765198 318.838226,79.520210 318.912262,78.072823 
z"/>
<path fill="#C7BDA2" opacity="1.000000" stroke="none" 
	d="
M245.440598,51.876740 
	C245.202530,51.753811 244.864929,51.613487 244.527344,51.473167 
	C244.518311,51.494781 244.509262,51.516392 244.500229,51.538006 
	C244.780518,51.645119 245.060791,51.752235 245.440598,51.876740 
z"/>
<path fill="#5A5067" opacity="1.000000" stroke="none" 
	d="
M278.094330,115.023987 
	C278.323761,115.732643 278.331238,116.585945 278.168335,117.719429 
	C277.956146,117.055954 277.914276,116.112289 278.094330,115.023987 
z"/>
<path fill="#5A5067" opacity="1.000000" stroke="none" 
	d="
M275.885986,106.982422 
	C276.835388,107.141098 277.830048,107.318520 278.750305,107.788071 
	C278.107788,108.139359 277.539642,108.198517 276.596130,108.222839 
	C276.220795,108.188011 276.033813,108.038483 276.103424,107.750214 
	C276.102417,107.277267 276.031799,107.092606 275.961182,106.907944 
	C275.961182,106.907944 275.931213,107.001160 275.885986,106.982422 
z"/>
<path fill="#C7BDA2" opacity="1.000000" stroke="none" 
	d="
M241.001312,47.945885 
	C241.192627,48.166481 241.401169,48.377934 241.688263,48.669033 
	C241.505127,48.414371 241.387283,48.250515 241.150208,47.991959 
	C241.030975,47.897259 241.018555,47.936745 241.001312,47.945885 
z"/>
<path fill="#5A5067" opacity="1.000000" stroke="none" 
	d="
M277.340271,125.506203 
	C277.676392,125.205177 277.958374,125.210182 278.711121,125.612457 
	C279.336639,126.513069 279.491364,127.016426 279.646057,127.519775 
	C279.646057,127.519775 279.720154,127.521683 279.744507,127.548065 
	C278.941284,126.987045 278.113708,126.399643 277.340271,125.506203 
z"/>
<path fill="#5A5067" opacity="1.000000" stroke="none" 
	d="
M276.312927,108.264473 
	C275.958191,108.686378 275.511322,109.031830 275.064453,109.377281 
	C274.911285,109.028343 274.758148,108.679398 275.037903,108.210159 
	C275.658447,108.072746 275.846130,108.055611 276.033813,108.038483 
	C276.033813,108.038483 276.220795,108.188011 276.312927,108.264473 
z"/>
<path fill="#5A5067" opacity="1.000000" stroke="none" 
	d="
M273.943146,91.806564 
	C274.361816,91.647171 275.147217,91.567772 275.866638,91.771378 
	C275.303772,91.998451 274.806793,91.942497 273.943146,91.806564 
z"/>
<path fill="#EAE0B4" opacity="1.000000" stroke="none" 
	d="
M276.103424,107.750214 
	C275.846130,108.055611 275.658447,108.072746 275.190704,108.051605 
	C275.047882,107.607315 275.185150,107.201302 275.641785,106.851608 
	C276.031799,107.092606 276.102417,107.277267 276.103424,107.750214 
z"/>
<path fill="#352B52" opacity="1.000000" stroke="none" 
	d="
M322.013977,149.007690 
	C322.159241,148.832520 322.279358,148.628876 322.399506,148.425232 
	C322.372192,148.671219 322.344879,148.917191 322.131531,149.040009 
	C321.945465,148.916840 321.988861,148.979218 322.013977,149.007690 
z"/>
<path fill="#352B52" opacity="1.000000" stroke="none" 
	d="
M279.939087,127.512520 
	C279.491364,127.016426 279.336639,126.513069 279.134094,125.618065 
	C279.776733,124.350540 280.467224,123.474663 281.445312,122.434685 
	C282.040375,122.926704 282.347778,123.582832 282.796692,124.567780 
	C282.036194,125.766159 281.134155,126.635712 279.939087,127.512520 
z"/>
</svg>